<svg version="1.1" id="Layer_1" xmlns="http://www.w3.org/2000/svg" xmlns:xlink="http://www.w3.org/1999/xlink" x="0px" y="0px"
	 width="100%" viewBox="0 0 1080 1080" enable-background="new 0 0 1080 1080" xml:space="preserve">
<path fill="#F7F5F5" opacity="1.000000" stroke="none" 
	d="
M625.000000,1081.000000 
	C416.690643,1081.000000 208.881302,1081.000000 1.035974,1081.000000 
	C1.035974,721.065552 1.035974,361.131042 1.035974,1.098287 
	C360.892914,1.098287 720.785889,1.098287 1080.839355,1.098287 
	C1080.839355,360.999939 1080.839355,720.999939 1080.839355,1081.000000 
	C929.130615,1081.000000 777.315308,1081.000000 625.000000,1081.000000 
M737.953247,851.484192 
	C739.976685,841.232544 742.000122,830.980957 744.023560,820.729309 
	C745.191772,822.262878 745.672485,823.809387 745.984741,825.389221 
	C748.239075,836.795349 750.734863,848.163269 752.601440,859.633301 
	C754.044312,868.499573 757.746460,877.517639 751.728088,886.707031 
	C775.041748,886.707031 797.582031,886.707031 819.012146,886.707031 
	C818.711243,880.785583 817.246643,874.710632 818.316589,869.120911 
	C823.187256,843.676025 828.058655,818.190308 834.313904,793.063843 
	C839.735168,771.287354 844.129761,748.981323 856.055908,728.995300 
	C839.043152,728.995300 822.086487,728.973389 805.130005,729.006348 
	C798.555359,729.019104 794.613831,731.746826 793.299194,738.127869 
	C792.443970,742.279114 791.819092,746.891602 792.748291,750.914612 
	C795.019165,760.745728 797.689026,770.565857 801.227417,780.004578 
	C806.882874,795.090515 814.560669,809.622925 815.345886,826.021484 
	C815.718689,833.809265 814.279968,841.820007 812.588623,849.493042 
	C812.032288,852.017029 808.284302,855.135315 805.657349,855.492493 
	C803.574829,855.775635 800.306641,852.695007 798.759766,850.327393 
	C796.334595,846.615417 794.581421,842.360718 793.127991,838.134827 
	C785.093872,814.776733 780.673279,790.571838 777.084534,766.230225 
	C775.266602,753.899597 771.732544,741.246521 780.162170,729.247314 
	C758.503662,729.247314 737.631470,729.247314 716.544250,729.247314 
	C726.333252,744.847961 730.589844,762.187256 734.149048,779.502258 
	C737.648438,796.526123 736.956543,813.993408 734.357361,831.167603 
	C733.306702,838.110474 731.038086,845.070862 728.113831,851.470398 
	C725.314453,857.596680 719.465576,857.701599 716.269714,851.772278 
	C712.589233,844.943848 709.059204,837.744202 707.213562,830.273438 
	C702.357300,810.616943 697.812744,790.835571 694.383606,770.890808 
	C692.014282,757.109741 687.774414,742.811829 696.385620,729.377441 
	C674.873840,729.377441 653.867004,729.377441 632.907776,729.377441 
	C634.824402,732.633972 636.789185,735.520447 638.280945,738.633606 
	C639.784058,741.770203 640.966370,745.083923 642.033386,748.402405 
	C653.753723,784.855347 662.449951,822.044312 669.106873,859.732666 
	C670.692749,868.710815 673.297913,877.645630 668.615723,886.725159 
	C691.432129,886.725159 713.963257,886.725159 735.964417,886.725159 
	C735.318604,881.983826 733.906616,877.391052 734.268677,872.942627 
	C734.831787,866.023865 736.601074,859.203308 737.953247,851.484192 
M310.333893,731.000122 
	C305.406403,730.333130 300.484894,729.147461 295.550323,729.090515 
	C276.054047,728.865540 256.553619,728.994507 237.054733,728.992371 
	C233.943970,728.992065 230.833191,728.992371 226.824005,728.992371 
	C232.606583,737.437988 231.938553,746.331299 231.939743,755.111328 
	C231.944336,788.942749 231.983292,822.774170 231.916321,856.605469 
	C231.896103,866.818970 233.265533,877.264282 227.025757,887.000549 
	C252.286789,887.000549 276.775970,887.045776 301.264618,886.951233 
	C304.897827,886.937195 308.594513,886.581055 312.149231,885.841736 
	C330.690704,881.985718 342.882446,864.635071 340.233948,846.896606 
	C337.975281,831.768982 329.048279,822.178711 315.117126,818.254456 
	C303.391541,814.951538 290.986572,814.083618 278.901093,812.027466 
	C269.921265,810.499695 260.944641,808.921387 252.038223,807.028442 
	C250.762619,806.757263 249.890884,804.585938 248.832245,803.293945 
	C250.495438,802.655640 252.249863,801.308777 253.805069,801.509094 
	C258.901398,802.165405 263.935089,803.337646 268.975098,804.396240 
	C280.869232,806.894348 292.716492,809.369446 305.010956,807.073364 
	C322.798523,803.751465 337.640289,788.433838 338.923889,771.723450 
	C340.403290,752.463440 330.399292,737.883850 310.333893,731.000122 
M579.903931,275.789795 
	C595.663452,276.432617 609.129517,271.938965 618.610779,258.513550 
	C624.040771,250.824646 626.720642,242.069763 627.592651,232.884842 
	C629.083862,217.178696 626.579834,202.507767 613.830505,191.532364 
	C604.155762,183.203735 592.309937,180.354584 579.973389,180.138947 
	C558.487427,179.763382 536.990662,180.002777 515.498413,180.009567 
	C514.450867,180.009903 513.403442,180.251328 513.457214,180.244690 
	C514.434753,186.298019 516.068665,191.910370 516.133057,197.540680 
	C516.573059,236.011307 516.685303,274.485718 516.898621,312.958893 
	C516.945496,321.415558 517.236938,329.918457 511.681213,338.002258 
	C525.692993,338.002258 538.807190,338.003479 551.921387,338.001862 
	C562.814575,338.000519 568.613037,330.851410 567.469849,319.923431 
	C566.375061,309.457306 560.948853,301.916351 552.876404,296.008270 
	C545.097229,290.314850 536.874023,285.223328 529.162109,279.445312 
	C526.315125,277.312256 523.319519,273.627533 525.936279,270.153107 
	C526.887939,268.889526 532.174805,269.777374 534.794617,271.075012 
	C546.676331,276.960144 556.966431,285.121643 566.297791,294.526398 
	C576.443237,304.751648 583.697144,315.800140 577.343567,331.001953 
	C577.218933,331.300262 577.223450,331.654938 577.181519,331.985077 
	C576.679016,335.938843 578.285217,338.016449 582.407227,338.005493 
	C593.903015,337.974915 605.400085,338.080933 616.894165,337.934692 
	C621.755615,337.872864 625.185486,334.857330 625.810364,330.110596 
	C626.932190,321.588623 625.808655,313.565674 620.161316,306.547455 
	C612.580994,297.127075 602.273560,291.730591 591.533630,287.138580 
	C577.618347,281.188904 563.374207,276.000488 549.524902,269.908630 
	C543.978821,267.469116 538.854431,263.824188 534.025635,260.096436 
	C531.272522,257.971069 530.294739,254.066177 533.026367,251.228561 
	C535.661560,248.491028 538.972961,249.811768 541.542480,252.056183 
	C543.920715,254.133484 546.164307,256.392059 548.275574,258.742950 
	C556.564941,267.973267 566.425720,274.288574 579.903931,275.789795 
M393.129791,804.330322 
	C397.501862,808.419617 401.561066,812.920227 406.301056,816.525818 
	C425.144073,830.859192 453.759766,826.521851 466.977295,807.229309 
	C475.685822,794.518250 477.460175,780.099976 475.387573,765.141907 
	C474.117432,755.975281 470.185852,748.040833 463.302704,741.649963 
	C453.431122,732.484436 441.204315,729.441956 428.378540,729.166565 
	C406.561371,728.698059 384.727386,729.007935 362.900482,729.004883 
	C362.152069,729.004761 361.403625,729.157166 359.947083,729.315430 
	C365.084839,736.597168 364.950104,744.430786 364.949829,752.259705 
	C364.948761,785.916626 365.101013,819.574097 364.931519,853.230042 
	C364.874664,864.521851 367.052002,876.175842 360.125610,887.002075 
	C374.588776,887.002075 388.243439,887.012268 401.898102,886.998047 
	C409.300446,886.990356 413.074066,884.290894 414.865692,877.176819 
	C417.890869,865.164734 413.444885,855.328735 404.426178,847.884460 
	C396.372253,841.236694 387.256683,835.890076 378.905548,829.577759 
	C376.553162,827.799683 374.840851,824.828796 373.565125,822.067627 
	C372.241699,819.203247 373.967834,817.531677 377.000427,817.887390 
	C378.767853,818.094666 380.684174,818.613342 382.146759,819.578186 
	C390.460938,825.063293 398.848572,830.470947 406.818420,836.430298 
	C411.035645,839.583801 414.606659,843.663574 418.207336,847.566956 
	C426.391937,856.439758 430.389282,866.286255 426.184845,878.611389 
	C423.891510,885.334229 425.603546,886.989746 432.649597,886.998413 
	C443.146545,887.011353 453.644073,887.061890 464.140259,886.971863 
	C469.987946,886.921692 472.738037,884.618286 473.985168,879.058716 
	C475.804169,870.949707 474.116150,863.510376 469.309692,856.837219 
	C461.360016,845.800049 449.487823,840.306580 437.557098,835.128784 
	C422.609222,828.641602 407.378326,822.801270 392.489929,816.185791 
	C388.368225,814.354431 384.576752,811.167969 381.541534,807.788086 
	C380.228455,806.325928 381.217163,802.796692 381.160309,800.206360 
	C383.622253,800.187561 386.200043,799.716370 388.505890,800.307007 
	C390.075745,800.709045 391.265015,802.597046 393.129791,804.330322 
M687.489990,182.897339 
	C675.885193,188.581512 667.351135,197.401123 661.184204,208.643433 
	C651.235962,226.778931 649.108032,246.422806 649.986633,266.646790 
	C650.660034,282.147797 654.169006,296.877350 661.827393,310.500732 
	C674.797058,333.572327 699.460510,344.833252 724.870178,338.946777 
	C744.789368,334.332275 757.937988,321.347900 765.567688,303.102570 
	C776.927185,275.937958 777.250183,247.966766 767.742859,220.265686 
	C755.369751,184.214355 722.537476,168.986923 687.489990,182.897339 
M514.860779,748.373962 
	C504.958771,762.342834 500.232849,778.165894 498.650238,794.976929 
	C496.572205,817.050171 498.323334,838.661804 509.358521,858.458435 
	C520.690430,878.787354 538.408875,889.304565 561.651733,889.359436 
	C582.702454,889.409119 598.104065,879.102051 608.171265,860.929626 
	C612.806335,852.562805 615.802612,843.522095 614.198059,833.710876 
	C613.927063,832.053894 612.356079,829.601929 611.069885,829.384399 
	C609.603516,829.136353 607.470459,830.674316 606.191467,831.986206 
	C604.353821,833.871277 603.038757,836.262695 601.478821,838.422241 
	C593.106628,850.012390 580.738403,854.752258 566.836121,851.455750 
	C549.764587,847.407837 538.429260,835.991638 529.920837,821.499146 
	C526.408508,815.516479 523.811462,808.927063 521.449646,802.378601 
	C520.698669,800.296326 521.223145,796.411072 522.676941,795.257324 
	C524.108154,794.121399 527.680420,794.859436 529.904846,795.771362 
	C532.273621,796.742432 534.283020,798.751099 536.238403,800.537537 
	C540.908997,804.804810 545.298340,809.390137 550.087097,813.515259 
	C558.253296,820.549622 567.390320,824.425903 578.562378,822.043762 
	C591.061035,819.378845 601.066101,805.333496 598.730835,792.800354 
	C598.372314,790.876343 597.002563,788.819885 595.478577,787.604187 
	C594.928406,787.165222 592.252930,788.709961 591.066223,789.877136 
	C587.536621,793.348389 583.297668,793.971069 579.029053,792.544495 
	C572.580566,790.389343 566.273804,787.757141 560.040222,785.023438 
	C547.491089,779.520081 535.285522,777.427368 523.333252,786.671265 
	C519.539673,789.605347 516.705261,788.495544 516.553833,783.727234 
	C516.318848,776.330017 516.354370,768.689514 517.962341,761.531067 
	C519.756042,753.545593 523.963745,750.765747 531.882202,752.058533 
	C538.455383,753.131653 544.782410,756.016602 551.065552,758.487793 
	C559.851074,761.943298 568.268555,766.526123 577.269775,769.181458 
	C584.550720,771.329224 592.662781,771.801880 599.015564,765.841064 
	C608.541931,756.902405 613.290466,745.480164 614.547852,732.701660 
	C615.066772,727.427368 611.165283,724.984558 606.780029,727.888611 
	C597.208679,734.226746 587.288391,733.476318 577.041626,730.682129 
	C566.915466,727.920898 556.770142,725.218933 546.143555,727.329468 
	C533.080811,729.923950 523.101624,737.273987 514.860779,748.373962 
M394.916931,237.353317 
	C393.217682,228.403748 392.997314,219.481903 396.141937,210.799545 
	C398.192627,205.137619 402.062195,202.850708 408.002777,202.749725 
	C416.779205,202.600586 423.821320,207.179367 431.350983,210.691513 
	C439.143341,214.326157 447.069427,217.975433 455.315430,220.240860 
	C461.922607,222.056061 469.397522,222.919952 475.398193,217.863632 
	C486.032562,208.902863 491.248535,197.099014 491.969727,183.360352 
	C492.248047,178.057861 489.559448,176.590027 484.613159,178.750229 
	C481.274017,180.208542 478.058075,182.108246 474.581635,183.061523 
	C465.994476,185.416229 457.780243,182.515930 449.624969,180.372467 
	C440.841675,178.063950 432.068237,176.666855 423.061798,178.622253 
	C404.256622,182.705048 392.947845,195.460175 385.290771,212.029068 
	C375.176270,233.915359 373.860840,257.063385 377.359009,280.466461 
	C380.130280,299.006897 387.264984,315.707367 402.454529,327.849579 
	C425.427338,346.213654 465.284973,346.719971 484.572113,314.476959 
	C489.987976,305.423065 493.127075,295.666046 491.919250,284.974213 
	C491.729553,283.295166 490.396149,281.093719 488.980927,280.423645 
	C487.962128,279.941284 485.652313,281.292419 484.418976,282.388824 
	C482.967316,283.679352 481.949921,285.514374 480.927216,287.222809 
	C469.511108,306.293274 448.528351,305.877655 435.011932,299.110596 
	C417.607269,290.396790 407.470551,275.536682 400.705658,257.924500 
	C399.178833,253.949463 396.388885,249.075073 400.550781,246.059235 
	C404.647461,243.090683 408.778229,247.034607 411.992188,249.719131 
	C416.454529,253.446472 420.329193,257.867279 424.622528,261.809204 
	C433.646271,270.094391 443.481140,275.930176 456.585052,273.025604 
	C469.673859,270.124359 479.970428,254.115570 476.091705,242.129929 
	C474.633453,237.623810 472.728485,236.931686 469.525055,240.274307 
	C465.504883,244.469193 460.766357,245.035263 455.774719,243.336868 
	C449.962646,241.359268 444.269318,238.961609 438.687866,236.391342 
	C425.694489,230.407852 413.011871,228.292648 400.573914,237.843307 
	C399.413361,238.734436 397.053223,238.063354 394.916931,237.353317 
M301.470123,212.959457 
	C308.813599,209.839584 315.958221,206.028336 323.569427,203.839508 
	C328.762726,202.346008 334.700684,202.399628 340.132507,203.101654 
	C344.622589,203.681961 346.466522,208.173050 343.886810,211.906723 
	C341.335907,215.598770 337.933533,219.337906 334.025391,221.340683 
	C321.009674,228.010727 307.575134,233.859543 294.346039,240.118103 
	C278.341034,247.689911 262.877228,256.023865 250.835449,269.542725 
	C235.992493,286.206421 234.829880,309.606323 243.086243,326.974762 
	C246.595886,334.357727 252.459900,338.126007 261.014618,338.072754 
	C290.502716,337.889221 319.992676,338.006195 349.481903,337.991943 
	C351.099426,337.991150 352.716919,337.838654 354.900818,337.728088 
	C354.900818,328.450897 354.936462,319.500610 354.889435,310.550751 
	C354.852448,303.513062 351.871338,299.254456 345.234711,297.050079 
	C338.801056,294.913116 331.954559,294.924011 326.283752,298.200897 
	C314.955231,304.747131 304.335541,312.507233 293.171783,319.356354 
	C286.848206,323.235962 280.214844,326.786285 273.327087,329.476166 
	C270.883698,330.430420 266.612091,329.259247 264.358276,327.522736 
	C261.255219,325.131927 262.695007,321.228790 264.695892,318.471252 
	C269.668579,311.617981 274.565491,304.643829 280.192291,298.342896 
	C299.926361,276.244659 320.112030,254.548645 339.762756,232.377747 
	C344.667114,226.844360 349.036407,220.495346 352.196350,213.831177 
	C358.024567,201.539749 353.233368,187.702209 340.766174,182.371780 
	C333.500427,179.265289 324.985474,177.434021 317.132294,177.724503 
	C304.587524,178.188568 292.132660,180.947327 279.626770,182.639740 
	C269.535492,184.005386 259.454712,185.493744 250.235397,178.968369 
	C248.803040,177.954559 245.105652,177.630661 244.496887,178.469345 
	C243.091003,180.406204 242.106384,183.364365 242.421738,185.710571 
	C243.750137,195.593887 247.413498,204.672791 253.572754,212.599274 
	C257.988861,218.282440 263.484039,221.441437 271.130890,221.232162 
	C281.747162,220.941635 291.328735,217.534180 301.470123,212.959457 
M685.443115,485.820709 
	C688.076660,478.630493 687.419067,471.692688 683.459534,465.201080 
	C677.030518,454.660828 666.771790,450.177765 655.187317,450.292084 
	C642.624512,450.416046 630.059937,452.214783 617.533020,453.613678 
	C604.745178,455.041718 592.046387,458.661285 579.755981,450.764130 
	C575.125000,447.788513 571.350098,450.677002 571.092346,456.352478 
	C570.633972,466.441040 574.861572,475.170471 579.632568,483.602997 
	C585.452087,493.888947 594.127258,498.916626 606.212708,496.817780 
	C608.177002,496.476654 610.211365,496.270691 612.062500,495.591156 
	C622.036987,491.929596 632.002197,488.236328 641.895203,484.361542 
	C650.098389,481.148651 658.092041,477.026459 667.251953,478.064362 
	C669.246826,478.290344 672.063904,479.709961 672.684937,481.292877 
	C673.338806,482.959442 672.375183,485.923340 671.110779,487.525055 
	C669.198669,489.947205 666.673645,492.170990 663.950500,493.612976 
	C656.314819,497.656189 648.502686,501.382294 640.654846,505.005554 
	C621.928467,513.651428 602.732239,521.459595 586.915405,535.242981 
	C567.777466,551.920532 562.551025,573.523560 569.729065,596.671326 
	C573.723145,609.551208 580.776367,613.945068 594.395569,613.945618 
	C623.218018,613.946716 652.040466,613.945984 680.862915,613.945984 
	C682.786133,613.945984 684.709290,613.945984 687.025757,613.945984 
	C687.025757,604.007751 687.032959,594.867371 687.023865,585.727051 
	C687.012817,574.585022 680.675781,568.169434 669.473145,568.023315 
	C658.570984,567.881226 649.661194,573.229431 640.977417,578.827515 
	C631.475525,584.953003 622.412720,591.770508 612.807129,597.718933 
	C609.124390,599.999512 604.562439,601.309326 600.234009,601.974854 
	C595.710632,602.670288 593.816589,599.509949 595.869629,595.295471 
	C597.239868,592.482483 598.941040,589.713379 601.002869,587.372742 
	C622.000916,563.534912 643.104980,539.790466 664.176025,516.016968 
	C672.216553,506.945190 681.041138,498.431366 685.443115,485.820709 
M799.265442,508.852448 
	C783.383240,516.165588 767.497437,523.445435 754.107056,535.079468 
	C734.977051,551.700195 729.608337,573.154480 736.624573,596.443176 
	C740.482117,609.247437 747.771606,613.944580 761.146423,613.945435 
	C789.970337,613.947205 818.794189,613.945984 847.618103,613.945984 
	C849.563477,613.945984 851.508850,613.945984 854.025696,613.945984 
	C854.025696,604.037720 854.035583,594.754028 854.023071,585.470337 
	C854.008545,574.663147 847.643738,568.247070 836.714844,568.026306 
	C825.798889,567.805786 816.866272,573.102295 808.176575,578.693420 
	C798.669067,584.810730 789.566467,591.559448 780.031128,597.630493 
	C776.748352,599.720581 772.785522,601.014221 768.954102,601.855713 
	C767.063721,602.270874 764.068604,601.426147 762.878052,600.035034 
	C761.966980,598.970520 762.683472,595.979736 763.436096,594.160095 
	C764.371338,591.899048 765.875305,589.774597 767.502197,587.913208 
	C786.657715,565.997437 805.920898,544.175781 825.069824,522.254211 
	C832.828247,513.372375 840.974426,504.738190 847.851196,495.203125 
	C854.516357,485.961487 856.880127,475.396637 850.224731,464.794678 
	C843.796936,454.555328 833.625977,450.146393 822.215271,450.286377 
	C809.649414,450.440582 797.084900,452.205444 784.557800,453.607788 
	C771.769104,455.039398 759.071533,458.635956 746.779480,450.771576 
	C742.134460,447.799744 738.355530,450.667236 738.093201,456.329529 
	C737.625732,466.419098 741.851013,475.151337 746.621765,483.584320 
	C752.437561,493.864349 761.097595,498.924561 773.192810,496.819458 
	C775.157043,496.477600 777.190430,496.271790 779.043579,495.596375 
	C788.871765,492.014282 798.709717,488.446320 808.432556,484.591553 
	C816.781555,481.281433 824.899109,477.057068 834.235779,478.063965 
	C836.230957,478.279114 839.054626,479.695648 839.681396,481.277832 
	C840.340332,482.941193 839.403625,485.947052 838.120056,487.507477 
	C836.054260,490.019012 833.405396,492.364349 830.520691,493.832153 
	C820.445679,498.958527 810.163940,503.678711 799.265442,508.852448 
M515.021057,558.610596 
	C515.244629,550.967651 515.624084,543.325500 515.661133,535.681702 
	C515.753967,516.526917 515.676331,497.371338 515.698486,478.216156 
	C515.709167,468.960480 514.359131,459.272186 523.396118,452.396057 
	C502.923920,452.396057 482.451721,452.396057 460.790436,452.396057 
	C466.594116,456.842987 470.060455,461.728546 470.064423,468.345184 
	C470.081573,496.826874 470.250183,525.310181 469.985352,553.789429 
	C469.881195,564.991638 461.791077,574.777588 451.279449,576.796936 
	C439.045715,579.147034 427.506165,577.269104 417.319580,569.445862 
	C411.212646,564.755798 408.323425,558.105896 409.404327,551.087646 
	C410.486694,544.059753 412.835419,536.644592 416.693359,530.750366 
	C424.230591,519.234558 433.487732,508.860962 441.497742,497.632874 
	C447.959503,488.575012 452.502533,478.442200 451.801300,466.987732 
	C451.227203,457.609283 446.230377,451.519531 436.447845,451.910187 
	C421.979584,452.487915 407.471100,452.051605 392.979797,452.072449 
	C391.611938,452.074432 390.244324,452.257477 387.580566,452.450256 
	C396.860748,458.327881 397.539734,466.546417 397.317261,475.118988 
	C397.256775,477.449341 397.290619,479.782776 397.310822,482.114532 
	C397.541351,508.745789 397.325592,535.391357 398.171356,562.003174 
	C398.735565,579.756470 405.647949,595.094116 420.599091,605.669922 
	C431.222076,613.184143 443.264679,615.992737 456.369629,616.160217 
	C488.997498,616.576965 513.955444,594.512024 515.021057,558.610596 
M231.864182,472.939911 
	C231.901749,510.436462 232.018341,547.933228 231.923523,585.429443 
	C231.898544,595.303589 232.561447,605.506470 224.275940,613.570740 
	C225.489487,613.779419 225.955368,613.929626 226.421280,613.929688 
	C252.419708,613.934937 278.429382,614.347168 304.409241,613.649109 
	C311.591339,613.456055 319.354309,611.178650 325.678528,607.716370 
	C338.670898,600.603394 345.121704,588.981445 344.007233,573.768311 
	C343.011261,560.173401 336.439545,550.345520 324.270599,544.115906 
	C313.648865,538.678284 302.145752,537.317444 290.534851,536.011292 
	C279.321228,534.749756 268.158661,533.012939 256.998840,531.318909 
	C255.354752,531.069275 253.849884,529.902466 252.280609,529.160095 
	C252.468323,528.667725 252.656052,528.175415 252.843781,527.683105 
	C260.615967,529.242126 268.381653,530.834534 276.161804,532.352722 
	C288.973602,534.852844 301.708527,536.557678 314.531860,531.937012 
	C343.729645,521.416199 352.217316,484.782867 330.039734,463.774628 
	C321.139282,455.343475 309.975159,452.169891 297.960815,452.100739 
	C274.462921,451.965546 250.963715,452.056427 227.465073,452.071259 
	C226.586563,452.071808 225.708191,452.255127 224.575058,452.381683 
	C230.137421,460.007355 230.137421,460.007355 231.864182,472.939911 
M841.372314,274.010040 
	C844.107910,273.410187 848.908325,273.352020 849.231689,272.119415 
	C850.881042,265.831635 851.572754,259.259064 852.182312,252.747055 
	C852.463562,249.741882 850.249268,249.101120 847.463989,249.292374 
	C832.739441,250.303421 818.011902,251.305542 803.272034,252.044891 
	C793.400879,252.540039 791.971313,253.683273 791.180786,263.544678 
	C791.127747,264.205902 791.140137,264.873444 791.143127,265.537933 
	C791.173828,272.470734 792.188660,273.684418 799.028809,273.772278 
	C812.820251,273.949432 826.614014,273.946930 841.372314,274.010040 
z"/>
<path fill="#889BFE" opacity="1.000000" stroke="none" 
	d="
M737.906189,851.912659 
	C736.601074,859.203308 734.831787,866.023865 734.268677,872.942627 
	C733.906616,877.391052 735.318604,881.983826 735.964417,886.725159 
	C713.963257,886.725159 691.432129,886.725159 668.615723,886.725159 
	C673.297913,877.645630 670.692749,868.710815 669.106873,859.732666 
	C662.449951,822.044312 653.753723,784.855347 642.033386,748.402405 
	C640.966370,745.083923 639.784058,741.770203 638.280945,738.633606 
	C636.789185,735.520447 634.824402,732.633972 632.907776,729.377441 
	C653.867004,729.377441 674.873840,729.377441 696.385620,729.377441 
	C687.774414,742.811829 692.014282,757.109741 694.383606,770.890808 
	C697.812744,790.835571 702.357300,810.616943 707.213562,830.273438 
	C709.059204,837.744202 712.589233,844.943848 716.269714,851.772278 
	C719.465576,857.701599 725.314453,857.596680 728.113831,851.470398 
	C731.038086,845.070862 733.306702,838.110474 734.357361,831.167603 
	C736.956543,813.993408 737.648438,796.526123 734.149048,779.502258 
	C730.589844,762.187256 726.333252,744.847961 716.544250,729.247314 
	C737.631470,729.247314 758.503662,729.247314 780.162170,729.247314 
	C771.732544,741.246521 775.266602,753.899597 777.084534,766.230225 
	C780.673279,790.571838 785.093872,814.776733 793.127991,838.134827 
	C794.581421,842.360718 796.334595,846.615417 798.759766,850.327393 
	C800.306641,852.695007 803.574829,855.775635 805.657349,855.492493 
	C808.284302,855.135315 812.032288,852.017029 812.588623,849.493042 
	C814.279968,841.820007 815.718689,833.809265 815.345886,826.021484 
	C814.560669,809.622925 806.882874,795.090515 801.227417,780.004578 
	C797.689026,770.565857 795.019165,760.745728 792.748291,750.914612 
	C791.819092,746.891602 792.443970,742.279114 793.299194,738.127869 
	C794.613831,731.746826 798.555359,729.019104 805.130005,729.006348 
	C822.086487,728.973389 839.043152,728.995300 856.055908,728.995300 
	C844.129761,748.981323 839.735168,771.287354 834.313904,793.063843 
	C828.058655,818.190308 823.187256,843.676025 818.316589,869.120911 
	C817.246643,874.710632 818.711243,880.785583 819.012146,886.707031 
	C797.582031,886.707031 775.041748,886.707031 751.728088,886.707031 
	C757.746460,877.517639 754.044312,868.499573 752.601440,859.633301 
	C750.734863,848.163269 748.239075,836.795349 745.984741,825.389221 
	C745.672485,823.809387 745.191772,822.262878 744.023560,820.729309 
	C742.000122,830.980957 739.976685,841.232544 737.906189,851.912659 
z"/>
<path fill="#889BFE" opacity="1.000000" stroke="none" 
	d="
M310.725830,731.099731 
	C330.399292,737.883850 340.403290,752.463440 338.923889,771.723450 
	C337.640289,788.433838 322.798523,803.751465 305.010956,807.073364 
	C292.716492,809.369446 280.869232,806.894348 268.975098,804.396240 
	C263.935089,803.337646 258.901398,802.165405 253.805069,801.509094 
	C252.249863,801.308777 250.495438,802.655640 248.832245,803.293945 
	C249.890884,804.585938 250.762619,806.757263 252.038223,807.028442 
	C260.944641,808.921387 269.921265,810.499695 278.901093,812.027466 
	C290.986572,814.083618 303.391541,814.951538 315.117126,818.254456 
	C329.048279,822.178711 337.975281,831.768982 340.233948,846.896606 
	C342.882446,864.635071 330.690704,881.985718 312.149231,885.841736 
	C308.594513,886.581055 304.897827,886.937195 301.264618,886.951233 
	C276.775970,887.045776 252.286789,887.000549 227.025757,887.000549 
	C233.265533,877.264282 231.896103,866.818970 231.916321,856.605469 
	C231.983292,822.774170 231.944336,788.942749 231.939743,755.111328 
	C231.938553,746.331299 232.606583,737.437988 226.824005,728.992371 
	C230.833191,728.992371 233.943970,728.992065 237.054733,728.992371 
	C256.553619,728.994507 276.054047,728.865540 295.550323,729.090515 
	C300.484894,729.147461 305.406403,730.333130 310.725830,731.099731 
M295.490906,780.875000 
	C302.088379,773.814453 300.263489,762.924133 288.375519,761.334595 
	C273.513489,759.347412 259.160492,762.017273 246.771988,771.265503 
	C242.507629,774.449036 239.417984,778.761230 240.469498,784.490906 
	C241.627045,790.798340 246.904266,793.251343 252.214569,793.621826 
	C267.813507,794.710022 282.761597,792.578003 295.490906,780.875000 
M299.569580,840.147034 
	C295.681122,836.419617 292.420563,831.219482 287.785431,829.243408 
	C274.368134,823.523376 260.417206,819.044800 246.619080,814.241638 
	C245.035080,813.690247 243.093185,814.166870 240.498718,814.166870 
	C241.265991,816.325195 241.436111,818.281677 242.475586,819.490845 
	C249.953369,828.189087 257.323578,837.011475 265.306335,845.232788 
	C270.548767,850.631775 277.106171,854.394470 284.792053,855.715332 
	C295.128815,857.491760 302.184326,850.565796 299.569580,840.147034 
z"/>
<path fill="#889BFE" opacity="1.000000" stroke="none" 
	d="
M579.459351,275.739258 
	C566.425720,274.288574 556.564941,267.973267 548.275574,258.742950 
	C546.164307,256.392059 543.920715,254.133484 541.542480,252.056183 
	C538.972961,249.811768 535.661560,248.491028 533.026367,251.228561 
	C530.294739,254.066177 531.272522,257.971069 534.025635,260.096436 
	C538.854431,263.824188 543.978821,267.469116 549.524902,269.908630 
	C563.374207,276.000488 577.618347,281.188904 591.533630,287.138580 
	C602.273560,291.730591 612.580994,297.127075 620.161316,306.547455 
	C625.808655,313.565674 626.932190,321.588623 625.810364,330.110596 
	C625.185486,334.857330 621.755615,337.872864 616.894165,337.934692 
	C605.400085,338.080933 593.903015,337.974915 582.407227,338.005493 
	C578.285217,338.016449 576.679016,335.938843 577.181519,331.985077 
	C577.223450,331.654938 577.218933,331.300262 577.343567,331.001953 
	C583.697144,315.800140 576.443237,304.751648 566.297791,294.526398 
	C556.966431,285.121643 546.676331,276.960144 534.794617,271.075012 
	C532.174805,269.777374 526.887939,268.889526 525.936279,270.153107 
	C523.319519,273.627533 526.315125,277.312256 529.162109,279.445312 
	C536.874023,285.223328 545.097229,290.314850 552.876404,296.008270 
	C560.948853,301.916351 566.375061,309.457306 567.469849,319.923431 
	C568.613037,330.851410 562.814575,338.000519 551.921387,338.001862 
	C538.807190,338.003479 525.692993,338.002258 511.681213,338.002258 
	C517.236938,329.918457 516.945496,321.415558 516.898621,312.958893 
	C516.685303,274.485718 516.573059,236.011307 516.133057,197.540680 
	C516.068665,191.910370 514.434753,186.298019 513.457214,180.244690 
	C513.403442,180.251328 514.450867,180.009903 515.498413,180.009567 
	C536.990662,180.002777 558.487427,179.763382 579.973389,180.138947 
	C592.309937,180.354584 604.155762,183.203735 613.830505,191.532364 
	C626.579834,202.507767 629.083862,217.178696 627.592651,232.884842 
	C626.720642,242.069763 624.040771,250.824646 618.610779,258.513550 
	C609.129517,271.938965 595.663452,276.432617 579.459351,275.739258 
M590.110046,243.851913 
	C592.251221,243.577606 594.452332,243.530685 596.522156,242.985474 
	C602.267212,241.472214 608.349792,240.538666 613.579407,237.932205 
	C621.845154,233.812531 621.597168,224.298080 613.458862,219.877151 
	C610.287231,218.154266 606.747620,216.800354 603.213013,216.105682 
	C583.974121,212.324631 564.544800,211.816818 545.153687,214.384949 
	C539.727539,215.103592 534.138672,217.229034 529.424438,220.047333 
	C522.948547,223.918808 523.129517,233.072571 529.511353,237.146866 
	C533.057861,239.411011 537.330444,241.511734 541.408203,241.797653 
	C557.302124,242.912064 573.248962,243.271729 590.110046,243.851913 
z"/>
<path fill="#889BFE" opacity="1.000000" stroke="none" 
	d="
M392.877136,804.075439 
	C391.265015,802.597046 390.075745,800.709045 388.505890,800.307007 
	C386.200043,799.716370 383.622253,800.187561 381.160309,800.206421 
	C381.217163,802.796692 380.228455,806.325928 381.541534,807.788086 
	C384.576752,811.167969 388.368225,814.354431 392.489929,816.185791 
	C407.378326,822.801270 422.609222,828.641602 437.557098,835.128784 
	C449.487823,840.306580 461.360016,845.800049 469.309692,856.837219 
	C474.116150,863.510376 475.804169,870.949707 473.985168,879.058716 
	C472.738037,884.618286 469.987946,886.921692 464.140259,886.971863 
	C453.644073,887.061890 443.146545,887.011353 432.649597,886.998413 
	C425.603546,886.989746 423.891510,885.334229 426.184845,878.611389 
	C430.389282,866.286255 426.391937,856.439758 418.207336,847.566956 
	C414.606659,843.663574 411.035645,839.583801 406.818420,836.430298 
	C398.848572,830.470947 390.460938,825.063293 382.146759,819.578186 
	C380.684174,818.613342 378.767853,818.094666 377.000427,817.887390 
	C373.967834,817.531677 372.241699,819.203247 373.565125,822.067627 
	C374.840851,824.828796 376.553162,827.799683 378.905548,829.577759 
	C387.256683,835.890076 396.372253,841.236694 404.426178,847.884460 
	C413.444885,855.328735 417.890869,865.164734 414.865692,877.176819 
	C413.074066,884.290894 409.300446,886.990356 401.898102,886.998047 
	C388.243439,887.012268 374.588776,887.002075 360.125610,887.002075 
	C367.052002,876.175842 364.874664,864.521851 364.931519,853.230042 
	C365.101013,819.574097 364.948761,785.916626 364.949829,752.259705 
	C364.950104,744.430786 365.084839,736.597168 359.947083,729.315430 
	C361.403625,729.157166 362.152069,729.004761 362.900482,729.004883 
	C384.727386,729.007935 406.561371,728.698059 428.378540,729.166565 
	C441.204315,729.441956 453.431122,732.484436 463.302704,741.649963 
	C470.185852,748.040833 474.117432,755.975281 475.387573,765.141907 
	C477.460175,780.099976 475.685822,794.518250 466.977295,807.229309 
	C453.759766,826.521851 425.144073,830.859192 406.301056,816.525818 
	C401.561066,812.920227 397.501862,808.419617 392.877136,804.075439 
M383.422577,789.240051 
	C385.659393,789.838318 387.865601,790.613342 390.137878,791.006958 
	C408.620483,794.208313 427.209381,793.788696 445.730347,791.791382 
	C451.360382,791.184265 457.185913,789.342407 462.190765,786.687683 
	C470.026123,782.531677 469.796082,773.737122 462.224884,769.155884 
	C459.980225,767.797668 457.467529,766.697021 454.932281,766.034363 
	C437.197815,761.399231 419.070282,761.285278 400.999786,762.492126 
	C393.875916,762.967834 386.497253,764.798828 379.960999,767.667603 
	C370.616058,771.769104 370.527374,781.709961 379.099731,787.290955 
	C380.200592,788.007629 381.480621,788.449097 383.422577,789.240051 
z"/>
<path fill="#889BFE" opacity="1.000000" stroke="none" 
	d="
M687.835999,182.742691 
	C722.537476,168.986923 755.369751,184.214355 767.742859,220.265686 
	C777.250183,247.966766 776.927185,275.937958 765.567688,303.102570 
	C757.937988,321.347900 744.789368,334.332275 724.870178,338.946777 
	C699.460510,344.833252 674.797058,333.572327 661.827393,310.500732 
	C654.169006,296.877350 650.660034,282.147797 649.986633,266.646790 
	C649.108032,246.422806 651.235962,226.778931 661.184204,208.643433 
	C667.351135,197.401123 675.885193,188.581512 687.835999,182.742691 
M688.035461,200.776016 
	C687.325928,206.367538 686.211853,211.942139 685.976868,217.553528 
	C684.964905,241.714783 688.888794,265.293152 695.412476,288.441376 
	C698.888672,300.776459 703.050598,312.939606 711.140564,323.249268 
	C715.664917,329.015045 721.968750,331.373749 726.739807,327.974731 
	C730.062195,325.607880 733.426819,321.909424 734.551880,318.142517 
	C736.810059,310.582245 738.561462,302.589569 738.728149,294.737274 
	C739.273193,269.058411 734.900513,244.004684 725.639160,220.063049 
	C722.327271,211.501572 717.777222,202.996979 712.027039,195.895889 
	C702.476196,184.101166 693.733276,186.036469 688.035461,200.776016 
z"/>
<path fill="#889BFE" opacity="1.000000" stroke="none" 
	d="
M515.040283,748.065125 
	C523.101624,737.273987 533.080811,729.923950 546.143555,727.329468 
	C556.770142,725.218933 566.915466,727.920898 577.041626,730.682129 
	C587.288391,733.476318 597.208679,734.226746 606.780029,727.888611 
	C611.165283,724.984558 615.066772,727.427368 614.547852,732.701660 
	C613.290466,745.480164 608.541931,756.902405 599.015564,765.841064 
	C592.662781,771.801880 584.550720,771.329224 577.269775,769.181458 
	C568.268555,766.526123 559.851074,761.943298 551.065552,758.487793 
	C544.782410,756.016602 538.455383,753.131653 531.882202,752.058533 
	C523.963745,750.765747 519.756042,753.545593 517.962341,761.531067 
	C516.354370,768.689514 516.318848,776.330017 516.553833,783.727234 
	C516.705261,788.495544 519.539673,789.605347 523.333252,786.671265 
	C535.285522,777.427368 547.491089,779.520081 560.040222,785.023438 
	C566.273804,787.757141 572.580566,790.389343 579.029053,792.544495 
	C583.297668,793.971069 587.536621,793.348389 591.066223,789.877136 
	C592.252930,788.709961 594.928406,787.165222 595.478577,787.604187 
	C597.002563,788.819885 598.372314,790.876343 598.730835,792.800354 
	C601.066101,805.333496 591.061035,819.378845 578.562378,822.043762 
	C567.390320,824.425903 558.253296,820.549622 550.087097,813.515259 
	C545.298340,809.390137 540.908997,804.804810 536.238403,800.537537 
	C534.283020,798.751099 532.273621,796.742432 529.904846,795.771362 
	C527.680420,794.859436 524.108154,794.121399 522.676941,795.257324 
	C521.223145,796.411072 520.698669,800.296326 521.449646,802.378601 
	C523.811462,808.927063 526.408508,815.516479 529.920837,821.499146 
	C538.429260,835.991638 549.764587,847.407837 566.836121,851.455750 
	C580.738403,854.752258 593.106628,850.012390 601.478821,838.422241 
	C603.038757,836.262695 604.353821,833.871277 606.191467,831.986206 
	C607.470459,830.674316 609.603516,829.136353 611.069885,829.384399 
	C612.356079,829.601929 613.927063,832.053894 614.198059,833.710876 
	C615.802612,843.522095 612.806335,852.562805 608.171265,860.929626 
	C598.104065,879.102051 582.702454,889.409119 561.651733,889.359436 
	C538.408875,889.304565 520.690430,878.787354 509.358521,858.458435 
	C498.323334,838.661804 496.572205,817.050171 498.650238,794.976929 
	C500.232849,778.165894 504.958771,762.342834 515.040283,748.065125 
z"/>
<path fill="#889BFE" opacity="1.000000" stroke="none" 
	d="
M395.083496,237.735474 
	C397.053223,238.063354 399.413361,238.734436 400.573914,237.843307 
	C413.011871,228.292648 425.694489,230.407852 438.687866,236.391342 
	C444.269318,238.961609 449.962646,241.359268 455.774719,243.336868 
	C460.766357,245.035263 465.504883,244.469193 469.525055,240.274307 
	C472.728485,236.931686 474.633453,237.623810 476.091705,242.129929 
	C479.970428,254.115570 469.673859,270.124359 456.585052,273.025604 
	C443.481140,275.930176 433.646271,270.094391 424.622528,261.809204 
	C420.329193,257.867279 416.454529,253.446472 411.992188,249.719131 
	C408.778229,247.034607 404.647461,243.090683 400.550781,246.059235 
	C396.388885,249.075073 399.178833,253.949463 400.705658,257.924500 
	C407.470551,275.536682 417.607269,290.396790 435.011932,299.110596 
	C448.528351,305.877655 469.511108,306.293274 480.927216,287.222809 
	C481.949921,285.514374 482.967316,283.679352 484.418976,282.388824 
	C485.652313,281.292419 487.962128,279.941284 488.980927,280.423645 
	C490.396149,281.093719 491.729553,283.295166 491.919250,284.974213 
	C493.127075,295.666046 489.987976,305.423065 484.572113,314.476959 
	C465.284973,346.719971 425.427338,346.213654 402.454529,327.849579 
	C387.264984,315.707367 380.130280,299.006897 377.359009,280.466461 
	C373.860840,257.063385 375.176270,233.915359 385.290771,212.029068 
	C392.947845,195.460175 404.256622,182.705048 423.061798,178.622253 
	C432.068237,176.666855 440.841675,178.063950 449.624969,180.372467 
	C457.780243,182.515930 465.994476,185.416229 474.581635,183.061523 
	C478.058075,182.108246 481.274017,180.208542 484.613159,178.750229 
	C489.559448,176.590027 492.248047,178.057861 491.969727,183.360352 
	C491.248535,197.099014 486.032562,208.902863 475.398193,217.863632 
	C469.397522,222.919952 461.922607,222.056061 455.315430,220.240860 
	C447.069427,217.975433 439.143341,214.326157 431.350983,210.691513 
	C423.821320,207.179367 416.779205,202.600586 408.002777,202.749725 
	C402.062195,202.850708 398.192627,205.137619 396.141937,210.799545 
	C392.997314,219.481903 393.217682,228.403748 395.083496,237.735474 
z"/>
<path fill="#889BFE" opacity="1.000000" stroke="none" 
	d="
M301.109894,213.080048 
	C291.328735,217.534180 281.747162,220.941635 271.130890,221.232162 
	C263.484039,221.441437 257.988861,218.282440 253.572754,212.599274 
	C247.413498,204.672791 243.750137,195.593887 242.421738,185.710571 
	C242.106384,183.364365 243.091003,180.406204 244.496887,178.469345 
	C245.105652,177.630661 248.803040,177.954559 250.235397,178.968369 
	C259.454712,185.493744 269.535492,184.005386 279.626770,182.639740 
	C292.132660,180.947327 304.587524,178.188568 317.132294,177.724503 
	C324.985474,177.434021 333.500427,179.265289 340.766174,182.371780 
	C353.233368,187.702209 358.024567,201.539749 352.196350,213.831177 
	C349.036407,220.495346 344.667114,226.844360 339.762756,232.377747 
	C320.112030,254.548645 299.926361,276.244659 280.192291,298.342896 
	C274.565491,304.643829 269.668579,311.617981 264.695892,318.471252 
	C262.695007,321.228790 261.255219,325.131927 264.358276,327.522736 
	C266.612091,329.259247 270.883698,330.430420 273.327087,329.476166 
	C280.214844,326.786285 286.848206,323.235962 293.171783,319.356354 
	C304.335541,312.507233 314.955231,304.747131 326.283752,298.200897 
	C331.954559,294.924011 338.801056,294.913116 345.234711,297.050079 
	C351.871338,299.254456 354.852448,303.513062 354.889435,310.550751 
	C354.936462,319.500610 354.900818,328.450897 354.900818,337.728088 
	C352.716919,337.838654 351.099426,337.991150 349.481903,337.991943 
	C319.992676,338.006195 290.502716,337.889221 261.014618,338.072754 
	C252.459900,338.126007 246.595886,334.357727 243.086243,326.974762 
	C234.829880,309.606323 235.992493,286.206421 250.835449,269.542725 
	C262.877228,256.023865 278.341034,247.689911 294.346039,240.118103 
	C307.575134,233.859543 321.009674,228.010727 334.025391,221.340683 
	C337.933533,219.337906 341.335907,215.598770 343.886810,211.906723 
	C346.466522,208.173050 344.622589,203.681961 340.132507,203.101654 
	C334.700684,202.399628 328.762726,202.346008 323.569427,203.839508 
	C315.958221,206.028336 308.813599,209.839584 301.109894,213.080048 
z"/>
<path fill="#90A1FD" opacity="1.000000" stroke="none" 
	d="
M685.312866,486.198792 
	C681.041138,498.431366 672.216553,506.945190 664.176025,516.016968 
	C643.104980,539.790466 622.000916,563.534912 601.002869,587.372742 
	C598.941040,589.713379 597.239868,592.482483 595.869629,595.295471 
	C593.816589,599.509949 595.710632,602.670288 600.234009,601.974854 
	C604.562439,601.309326 609.124390,599.999512 612.807129,597.718933 
	C622.412720,591.770508 631.475525,584.953003 640.977417,578.827515 
	C649.661194,573.229431 658.570984,567.881226 669.473145,568.023315 
	C680.675781,568.169434 687.012817,574.585022 687.023865,585.727051 
	C687.032959,594.867371 687.025757,604.007751 687.025757,613.945984 
	C684.709290,613.945984 682.786133,613.945984 680.862915,613.945984 
	C652.040466,613.945984 623.218018,613.946716 594.395569,613.945618 
	C580.776367,613.945068 573.723145,609.551208 569.729065,596.671326 
	C562.551025,573.523560 567.777466,551.920532 586.915405,535.242981 
	C602.732239,521.459595 621.928467,513.651428 640.654846,505.005554 
	C648.502686,501.382294 656.314819,497.656189 663.950500,493.612976 
	C666.673645,492.170990 669.198669,489.947205 671.110779,487.525055 
	C672.375183,485.923340 673.338806,482.959442 672.684937,481.292877 
	C672.063904,479.709961 669.246826,478.290344 667.251953,478.064362 
	C658.092041,477.026459 650.098389,481.148651 641.895203,484.361542 
	C632.002197,488.236328 622.036987,491.929596 612.062500,495.591156 
	C610.211365,496.270691 608.177002,496.476654 606.212708,496.817780 
	C594.127258,498.916626 585.452087,493.888947 579.632568,483.602997 
	C574.861572,475.170471 570.633972,466.441040 571.092346,456.352478 
	C571.350098,450.677002 575.125000,447.788513 579.755981,450.764130 
	C592.046387,458.661285 604.745178,455.041718 617.533020,453.613678 
	C630.059937,452.214783 642.624512,450.416046 655.187317,450.292084 
	C666.771790,450.177765 677.030518,454.660828 683.459534,465.201080 
	C687.419067,471.692688 688.076660,478.630493 685.312866,486.198792 
M664.986633,509.460632 
	C668.692627,504.760712 672.575195,500.188049 676.069763,495.335846 
	C684.729248,483.312042 685.561584,473.336151 678.143738,464.226532 
	C670.196960,454.467255 658.749817,452.984650 647.337830,453.789429 
	C634.449951,454.698242 621.663452,457.035675 608.830444,458.733795 
	C598.842712,460.055420 588.939880,460.953705 579.947266,454.717621 
	C578.831116,453.943542 577.004944,454.193237 575.228699,453.926697 
	C574.043457,464.273621 577.931213,472.537537 582.255676,480.612701 
	C588.312988,491.923737 595.867798,495.877197 608.282288,492.302582 
	C620.683838,488.731659 632.517761,483.233246 644.813660,479.235535 
	C652.145996,476.851624 659.827881,475.169037 667.479248,474.339417 
	C670.218567,474.042389 674.218750,476.499420 676.053589,478.909729 
	C678.526428,482.157990 677.226746,486.325378 674.592468,489.481232 
	C672.905579,491.502045 671.043335,493.651581 668.788330,494.874023 
	C660.322876,499.463348 651.762817,503.905273 643.056396,508.017395 
	C625.316101,516.396301 607.016846,523.704407 591.535278,536.214417 
	C570.968018,552.833984 565.872620,576.462524 574.442017,598.306763 
	C577.602722,606.363831 583.372192,610.161377 592.148560,610.114746 
	C620.631958,609.963440 649.116577,610.063354 677.600769,610.045959 
	C679.355042,610.044861 681.109192,609.866150 683.163208,609.753723 
	C683.163208,601.498230 683.166809,593.847168 683.162292,586.196106 
	C683.156494,576.275757 678.896423,571.297241 668.956665,572.159119 
	C662.397522,572.727905 655.455994,574.830750 649.757812,578.109802 
	C638.975403,584.314697 629.227661,592.302551 618.526733,598.670166 
	C612.822449,602.064697 606.194885,604.616516 599.673279,605.732178 
	C592.967834,606.879211 589.237305,600.594971 592.397644,594.474976 
	C594.595276,590.219543 597.136475,585.981445 600.282227,582.401672 
	C621.580566,558.164795 643.080872,534.105347 664.986633,509.460632 
z"/>
<path fill="#90A1FD" opacity="1.000000" stroke="none" 
	d="
M799.613098,508.702850 
	C810.163940,503.678711 820.445679,498.958527 830.520691,493.832153 
	C833.405396,492.364349 836.054260,490.019012 838.120056,487.507477 
	C839.403625,485.947052 840.340332,482.941193 839.681396,481.277832 
	C839.054626,479.695648 836.230957,478.279114 834.235779,478.063965 
	C824.899109,477.057068 816.781555,481.281433 808.432556,484.591553 
	C798.709717,488.446320 788.871765,492.014282 779.043579,495.596375 
	C777.190430,496.271790 775.157043,496.477600 773.192810,496.819458 
	C761.097595,498.924561 752.437561,493.864349 746.621765,483.584320 
	C741.851013,475.151337 737.625732,466.419098 738.093201,456.329529 
	C738.355530,450.667236 742.134460,447.799744 746.779480,450.771576 
	C759.071533,458.635956 771.769104,455.039398 784.557800,453.607788 
	C797.084900,452.205444 809.649414,450.440582 822.215271,450.286377 
	C833.625977,450.146393 843.796936,454.555328 850.224731,464.794678 
	C856.880127,475.396637 854.516357,485.961487 847.851196,495.203125 
	C840.974426,504.738190 832.828247,513.372375 825.069824,522.254211 
	C805.920898,544.175781 786.657715,565.997437 767.502197,587.913208 
	C765.875305,589.774597 764.371338,591.899048 763.436096,594.160095 
	C762.683472,595.979736 761.966980,598.970520 762.878052,600.035034 
	C764.068604,601.426147 767.063721,602.270874 768.954102,601.855713 
	C772.785522,601.014221 776.748352,599.720581 780.031128,597.630493 
	C789.566467,591.559448 798.669067,584.810730 808.176575,578.693420 
	C816.866272,573.102295 825.798889,567.805786 836.714844,568.026306 
	C847.643738,568.247070 854.008545,574.663147 854.023071,585.470337 
	C854.035583,594.754028 854.025696,604.037720 854.025696,613.945984 
	C851.508850,613.945984 849.563477,613.945984 847.618103,613.945984 
	C818.794189,613.945984 789.970337,613.947205 761.146423,613.945435 
	C747.771606,613.944580 740.482117,609.247437 736.624573,596.443176 
	C729.608337,573.154480 734.977051,551.700195 754.107056,535.079468 
	C767.497437,523.445435 783.383240,516.165588 799.613098,508.702850 
M769.780273,459.120270 
	C762.235657,460.984528 755.308044,459.194214 748.616516,455.682770 
	C746.837524,454.749207 744.851868,454.209351 742.245361,453.215973 
	C742.245361,457.083282 741.494507,460.130157 742.386292,462.578796 
	C745.043152,469.874176 747.878418,477.183899 751.527832,484.015869 
	C755.082886,490.671295 761.155273,494.122192 768.995789,493.074463 
	C773.911438,492.417572 778.995728,491.946808 783.604980,490.284973 
	C794.860229,486.227081 805.739319,481.101410 817.059143,477.257416 
	C822.911377,475.270081 829.395264,474.216187 835.565735,474.325134 
	C843.425354,474.463867 846.645630,481.745148 842.242493,488.285400 
	C840.522583,490.840057 838.278625,493.439941 835.652832,494.912903 
	C827.398621,499.543182 818.966614,503.898193 810.390625,507.904327 
	C792.454102,516.283142 773.996033,523.669373 758.408264,536.323120 
	C737.883789,552.984253 733.009583,576.335144 741.312134,598.028320 
	C744.475647,606.293945 750.338623,610.181396 759.349243,610.124634 
	C787.842468,609.944946 816.337585,610.062805 844.831970,610.046204 
	C846.441162,610.045227 848.050171,609.870361 850.163208,609.747070 
	C850.163208,601.543030 850.168274,593.748779 850.161926,585.954590 
	C850.154114,576.291626 845.940918,571.322876 836.207458,572.178223 
	C829.489075,572.768616 822.393494,574.915344 816.542480,578.252869 
	C805.880127,584.335022 796.292480,592.284729 785.711609,598.532715 
	C779.859192,601.988464 773.072876,604.567322 766.393555,605.716125 
	C759.960449,606.822510 756.290588,600.567688 759.299500,594.666504 
	C761.475708,590.398376 764.000122,586.142334 767.142395,582.558838 
	C788.093811,558.666382 809.467957,535.141479 830.222168,511.080872 
	C837.000427,503.222717 843.087952,494.538879 848.121765,485.472290 
	C852.886353,476.890656 849.460144,466.578949 841.541382,460.662750 
	C830.524292,452.431824 817.888672,452.976349 805.236633,454.415405 
	C793.692871,455.728455 782.199829,457.487244 769.780273,459.120270 
z"/>
<path fill="#8FA0FD" opacity="1.000000" stroke="none" 
	d="
M515.017212,559.077759 
	C513.955444,594.512024 488.997498,616.576965 456.369629,616.160217 
	C443.264679,615.992737 431.222076,613.184143 420.599091,605.669922 
	C405.647949,595.094116 398.735565,579.756470 398.171356,562.003174 
	C397.325592,535.391357 397.541351,508.745789 397.310822,482.114532 
	C397.290619,479.782776 397.256775,477.449341 397.317261,475.118988 
	C397.539734,466.546417 396.860748,458.327881 387.580566,452.450256 
	C390.244324,452.257477 391.611938,452.074432 392.979797,452.072449 
	C407.471100,452.051605 421.979584,452.487915 436.447845,451.910187 
	C446.230377,451.519531 451.227203,457.609283 451.801300,466.987732 
	C452.502533,478.442200 447.959503,488.575012 441.497742,497.632874 
	C433.487732,508.860962 424.230591,519.234558 416.693359,530.750366 
	C412.835419,536.644592 410.486694,544.059753 409.404327,551.087646 
	C408.323425,558.105896 411.212646,564.755798 417.319580,569.445862 
	C427.506165,577.269104 439.045715,579.147034 451.279449,576.796936 
	C461.791077,574.777588 469.881195,564.991638 469.985352,553.789429 
	C470.250183,525.310181 470.081573,496.826874 470.064423,468.345184 
	C470.060455,461.728546 466.594116,456.842987 460.790436,452.396057 
	C482.451721,452.396057 502.923920,452.396057 523.396118,452.396057 
	C514.359131,459.272186 515.709167,468.960480 515.698486,478.216156 
	C515.676331,497.371338 515.753967,516.526917 515.661133,535.681702 
	C515.624084,543.325500 515.244629,550.967651 515.017212,559.077759 
M458.443085,612.171082 
	C484.186951,612.003845 504.739044,596.467407 509.554749,571.778259 
	C510.978271,564.480103 511.675934,556.942383 511.774384,549.502136 
	C512.061035,527.840820 511.738800,506.171997 511.940155,484.508789 
	C512.027100,475.158051 512.814209,465.813843 513.295349,456.224182 
	C500.141968,456.224182 485.744446,456.224182 471.258728,456.224182 
	C472.195648,460.672760 473.798920,464.830872 473.832275,469.001526 
	C474.057648,497.163635 474.079651,525.329224 473.889221,553.491882 
	C473.810394,565.149353 466.215027,575.971252 455.316010,579.531799 
	C441.495605,584.046753 428.273499,581.586487 416.341827,573.549744 
	C408.652588,568.370544 404.902130,560.585815 405.353760,551.281738 
	C405.783051,542.438110 408.878754,534.342712 414.221588,527.269775 
	C421.943237,517.047607 430.047394,507.110596 437.635986,496.792786 
	C443.952911,488.203918 448.175018,478.654541 448.032837,467.692810 
	C447.923920,459.294434 444.452606,455.944427 436.150635,455.941254 
	C425.151428,455.937073 414.152222,455.930847 403.153076,455.950714 
	C401.557953,455.953613 399.963104,456.096649 399.549286,456.116913 
	C400.092316,465.086456 400.928772,473.600800 401.064575,482.126282 
	C401.496918,509.266144 401.250000,536.423584 402.118103,563.546936 
	C402.549896,577.038025 407.672699,589.197266 417.959839,598.593018 
	C429.150482,608.813965 442.575317,612.658691 458.443085,612.171082 
z"/>
<path fill="#8FA0FD" opacity="1.000000" stroke="none" 
	d="
M231.773071,472.489777 
	C230.137421,460.007355 230.137421,460.007355 224.575058,452.381683 
	C225.708191,452.255127 226.586563,452.071808 227.465073,452.071259 
	C250.963715,452.056427 274.462921,451.965546 297.960815,452.100739 
	C309.975159,452.169891 321.139282,455.343475 330.039734,463.774628 
	C352.217316,484.782867 343.729645,521.416199 314.531860,531.937012 
	C301.708527,536.557678 288.973602,534.852844 276.161804,532.352722 
	C268.381653,530.834534 260.615967,529.242126 252.843781,527.683105 
	C252.656052,528.175415 252.468323,528.667725 252.280609,529.160095 
	C253.849884,529.902466 255.354752,531.069275 256.998840,531.318909 
	C268.158661,533.012939 279.321228,534.749756 290.534851,536.011292 
	C302.145752,537.317444 313.648865,538.678284 324.270599,544.115906 
	C336.439545,550.345520 343.011261,560.173401 344.007233,573.768311 
	C345.121704,588.981445 338.670898,600.603394 325.678528,607.716370 
	C319.354309,611.178650 311.591339,613.456055 304.409241,613.649109 
	C278.429382,614.347168 252.419708,613.934937 226.421280,613.929688 
	C225.955368,613.929626 225.489487,613.779419 224.275940,613.570740 
	C232.561447,605.506470 231.898544,595.303589 231.923523,585.429443 
	C232.018341,547.933228 231.901749,510.436462 231.773071,472.489777 
M338.364777,488.227234 
	C337.223267,484.264465 336.674561,479.999573 334.835876,476.392181 
	C327.554230,462.106201 314.810638,456.369934 299.593262,456.052032 
	C278.936249,455.620422 258.263489,455.941467 237.597504,455.939728 
	C235.977554,455.939575 234.357620,455.939697 233.644379,455.939697 
	C234.156052,463.758850 235.027573,471.146698 235.057419,478.537933 
	C235.202835,514.536194 235.203674,550.535645 235.059082,586.533936 
	C235.028061,594.256714 234.182419,601.976196 233.698502,609.919434 
	C233.537567,609.903748 234.346024,610.051270 235.154480,610.051331 
	C258.486938,610.053162 281.820160,610.133850 305.151062,609.937988 
	C309.072021,609.905090 313.116180,609.089050 316.874023,607.906128 
	C329.451691,603.946716 339.451874,592.176575 340.057587,581.125122 
	C340.994751,564.026123 335.066101,553.585938 320.744110,546.752502 
	C308.254761,540.793518 294.658875,540.729248 281.353516,538.915710 
	C271.689941,537.598511 262.074707,535.738892 252.585388,533.496887 
	C250.786591,533.071838 249.679932,529.717407 248.253922,527.714600 
	C250.585785,526.588684 252.916733,524.545105 255.249710,524.542786 
	C259.162537,524.538879 263.081329,525.811707 266.989380,526.588745 
	C280.338867,529.242920 293.573700,532.788696 307.425201,530.025818 
	C326.704620,526.180298 340.778564,507.825256 338.364777,488.227234 
z"/>
<path fill="#889BFE" opacity="1.000000" stroke="none" 
	d="
M840.889587,274.014282 
	C826.614014,273.946930 812.820251,273.949432 799.028809,273.772278 
	C792.188660,273.684418 791.173828,272.470734 791.143127,265.537933 
	C791.140137,264.873444 791.127747,264.205902 791.180786,263.544678 
	C791.971313,253.683273 793.400879,252.540039 803.272034,252.044891 
	C818.011902,251.305542 832.739441,250.303421 847.463989,249.292374 
	C850.249268,249.101120 852.463562,249.741882 852.182312,252.747055 
	C851.572754,259.259064 850.881042,265.831635 849.231689,272.119415 
	C848.908325,273.352020 844.107910,273.410187 840.889587,274.014282 
z"/>
<path fill="#F6F4F5" opacity="1.000000" stroke="none" 
	d="
M295.236267,781.140076 
	C282.761597,792.578003 267.813507,794.710022 252.214569,793.621826 
	C246.904266,793.251343 241.627045,790.798340 240.469498,784.490906 
	C239.417984,778.761230 242.507629,774.449036 246.771988,771.265503 
	C259.160492,762.017273 273.513489,759.347412 288.375519,761.334595 
	C300.263489,762.924133 302.088379,773.814453 295.236267,781.140076 
z"/>
<path fill="#F5F4F5" opacity="1.000000" stroke="none" 
	d="
M299.711945,840.494873 
	C302.184326,850.565796 295.128815,857.491760 284.792053,855.715332 
	C277.106171,854.394470 270.548767,850.631775 265.306335,845.232788 
	C257.323578,837.011475 249.953369,828.189087 242.475586,819.490845 
	C241.436111,818.281677 241.265991,816.325195 240.498718,814.166870 
	C243.093185,814.166870 245.035080,813.690247 246.619080,814.241638 
	C260.417206,819.044800 274.368134,823.523376 287.785431,829.243408 
	C292.420563,831.219482 295.681122,836.419617 299.711945,840.494873 
z"/>
<path fill="#F6F4F5" opacity="1.000000" stroke="none" 
	d="
M589.643066,243.882019 
	C573.248962,243.271729 557.302124,242.912064 541.408203,241.797653 
	C537.330444,241.511734 533.057861,239.411011 529.511353,237.146866 
	C523.129517,233.072571 522.948547,223.918808 529.424438,220.047333 
	C534.138672,217.229034 539.727539,215.103592 545.153687,214.384949 
	C564.544800,211.816818 583.974121,212.324631 603.213013,216.105682 
	C606.747620,216.800354 610.287231,218.154266 613.458862,219.877151 
	C621.597168,224.298080 621.845154,233.812531 613.579407,237.932205 
	C608.349792,240.538666 602.267212,241.472214 596.522156,242.985474 
	C594.452332,243.530685 592.251221,243.577606 589.643066,243.882019 
z"/>
<path fill="#F6F4F5" opacity="1.000000" stroke="none" 
	d="
M383.050110,789.129028 
	C381.480621,788.449097 380.200592,788.007629 379.099731,787.290955 
	C370.527374,781.709961 370.616058,771.769104 379.960999,767.667603 
	C386.497253,764.798828 393.875916,762.967834 400.999786,762.492126 
	C419.070282,761.285278 437.197815,761.399231 454.932281,766.034363 
	C457.467529,766.697021 459.980225,767.797668 462.224884,769.155884 
	C469.796082,773.737122 470.026123,782.531677 462.190765,786.687683 
	C457.185913,789.342407 451.360382,791.184265 445.730347,791.791382 
	C427.209381,793.788696 408.620483,794.208313 390.137878,791.006958 
	C387.865601,790.613342 385.659393,789.838318 383.050110,789.129028 
z"/>
<path fill="#F6F4F5" opacity="1.000000" stroke="none" 
	d="
M688.122803,200.383881 
	C693.733276,186.036469 702.476196,184.101166 712.027039,195.895889 
	C717.777222,202.996979 722.327271,211.501572 725.639160,220.063049 
	C734.900513,244.004684 739.273193,269.058411 738.728149,294.737274 
	C738.561462,302.589569 736.810059,310.582245 734.551880,318.142517 
	C733.426819,321.909424 730.062195,325.607880 726.739807,327.974731 
	C721.968750,331.373749 715.664917,329.015045 711.140564,323.249268 
	C703.050598,312.939606 698.888672,300.776459 695.412476,288.441376 
	C688.888794,265.293152 684.964905,241.714783 685.976868,217.553528 
	C686.211853,211.942139 687.325928,206.367538 688.122803,200.383881 
z"/>
<path fill="#F6F4F5" opacity="1.000000" stroke="none" 
	d="
M664.751221,509.724579 
	C643.080872,534.105347 621.580566,558.164795 600.282227,582.401672 
	C597.136475,585.981445 594.595276,590.219543 592.397644,594.474976 
	C589.237305,600.594971 592.967834,606.879211 599.673279,605.732178 
	C606.194885,604.616516 612.822449,602.064697 618.526733,598.670166 
	C629.227661,592.302551 638.975403,584.314697 649.757812,578.109802 
	C655.455994,574.830750 662.397522,572.727905 668.956665,572.159119 
	C678.896423,571.297241 683.156494,576.275757 683.162292,586.196106 
	C683.166809,593.847168 683.163208,601.498230 683.163208,609.753723 
	C681.109192,609.866150 679.355042,610.044861 677.600769,610.045959 
	C649.116577,610.063354 620.631958,609.963440 592.148560,610.114746 
	C583.372192,610.161377 577.602722,606.363831 574.442017,598.306763 
	C565.872620,576.462524 570.968018,552.833984 591.535278,536.214417 
	C607.016846,523.704407 625.316101,516.396301 643.056396,508.017395 
	C651.762817,503.905273 660.322876,499.463348 668.788330,494.874023 
	C671.043335,493.651581 672.905579,491.502045 674.592468,489.481232 
	C677.226746,486.325378 678.526428,482.157990 676.053589,478.909729 
	C674.218750,476.499420 670.218567,474.042389 667.479248,474.339417 
	C659.827881,475.169037 652.145996,476.851624 644.813660,479.235535 
	C632.517761,483.233246 620.683838,488.731659 608.282288,492.302582 
	C595.867798,495.877197 588.312988,491.923737 582.255676,480.612701 
	C577.931213,472.537537 574.043457,464.273621 575.228699,453.926697 
	C577.004944,454.193237 578.831116,453.943542 579.947266,454.717621 
	C588.939880,460.953705 598.842712,460.055420 608.830444,458.733795 
	C621.663452,457.035675 634.449951,454.698242 647.337830,453.789429 
	C658.749817,452.984650 670.196960,454.467255 678.143738,464.226532 
	C685.561584,473.336151 684.729248,483.312042 676.069763,495.335846 
	C672.575195,500.188049 668.692627,504.760712 664.751221,509.724579 
z"/>
<path fill="#F6F4F5" opacity="1.000000" stroke="none" 
	d="
M770.232300,459.084930 
	C782.199829,457.487244 793.692871,455.728455 805.236633,454.415405 
	C817.888672,452.976349 830.524292,452.431824 841.541382,460.662750 
	C849.460144,466.578949 852.886353,476.890656 848.121765,485.472290 
	C843.087952,494.538879 837.000427,503.222717 830.222168,511.080872 
	C809.467957,535.141479 788.093811,558.666382 767.142395,582.558838 
	C764.000122,586.142334 761.475708,590.398376 759.299500,594.666504 
	C756.290588,600.567688 759.960449,606.822510 766.393555,605.716125 
	C773.072876,604.567322 779.859192,601.988464 785.711609,598.532715 
	C796.292480,592.284729 805.880127,584.335022 816.542480,578.252869 
	C822.393494,574.915344 829.489075,572.768616 836.207458,572.178223 
	C845.940918,571.322876 850.154114,576.291626 850.161926,585.954590 
	C850.168274,593.748779 850.163208,601.543030 850.163208,609.747070 
	C848.050171,609.870361 846.441162,610.045227 844.831970,610.046204 
	C816.337585,610.062805 787.842468,609.944946 759.349243,610.124634 
	C750.338623,610.181396 744.475647,606.293945 741.312134,598.028320 
	C733.009583,576.335144 737.883789,552.984253 758.408264,536.323120 
	C773.996033,523.669373 792.454102,516.283142 810.390625,507.904327 
	C818.966614,503.898193 827.398621,499.543182 835.652832,494.912903 
	C838.278625,493.439941 840.522583,490.840057 842.242493,488.285400 
	C846.645630,481.745148 843.425354,474.463867 835.565735,474.325134 
	C829.395264,474.216187 822.911377,475.270081 817.059143,477.257416 
	C805.739319,481.101410 794.860229,486.227081 783.604980,490.284973 
	C778.995728,491.946808 773.911438,492.417572 768.995789,493.074463 
	C761.155273,494.122192 755.082886,490.671295 751.527832,484.015869 
	C747.878418,477.183899 745.043152,469.874176 742.386292,462.578796 
	C741.494507,460.130157 742.245361,457.083282 742.245361,453.215973 
	C744.851868,454.209351 746.837524,454.749207 748.616516,455.682770 
	C755.308044,459.194214 762.235657,460.984528 770.232300,459.084930 
z"/>
<path fill="#F6F4F5" opacity="1.000000" stroke="none" 
	d="
M457.954620,612.177368 
	C442.575317,612.658691 429.150482,608.813965 417.959839,598.593018 
	C407.672699,589.197266 402.549896,577.038025 402.118103,563.546936 
	C401.250000,536.423584 401.496918,509.266144 401.064575,482.126282 
	C400.928772,473.600800 400.092316,465.086456 399.549286,456.116913 
	C399.963104,456.096649 401.557953,455.953613 403.153076,455.950714 
	C414.152222,455.930847 425.151428,455.937073 436.150635,455.941254 
	C444.452606,455.944427 447.923920,459.294434 448.032837,467.692810 
	C448.175018,478.654541 443.952911,488.203918 437.635986,496.792786 
	C430.047394,507.110596 421.943237,517.047607 414.221588,527.269775 
	C408.878754,534.342712 405.783051,542.438110 405.353760,551.281738 
	C404.902130,560.585815 408.652588,568.370544 416.341827,573.549744 
	C428.273499,581.586487 441.495605,584.046753 455.316010,579.531799 
	C466.215027,575.971252 473.810394,565.149353 473.889221,553.491882 
	C474.079651,525.329224 474.057648,497.163635 473.832275,469.001526 
	C473.798920,464.830872 472.195648,460.672760 471.258728,456.224182 
	C485.744446,456.224182 500.141968,456.224182 513.295349,456.224182 
	C512.814209,465.813843 512.027100,475.158051 511.940155,484.508789 
	C511.738800,506.171997 512.061035,527.840820 511.774384,549.502136 
	C511.675934,556.942383 510.978271,564.480103 509.554749,571.778259 
	C504.739044,596.467407 484.186951,612.003845 457.954620,612.177368 
z"/>
<path fill="#F6F4F5" opacity="1.000000" stroke="none" 
	d="
M338.481567,488.646301 
	C340.778564,507.825256 326.704620,526.180298 307.425201,530.025818 
	C293.573700,532.788696 280.338867,529.242920 266.989380,526.588745 
	C263.081329,525.811707 259.162537,524.538879 255.249710,524.542786 
	C252.916733,524.545105 250.585785,526.588684 248.253906,527.714600 
	C249.679932,529.717407 250.786591,533.071838 252.585388,533.496887 
	C262.074707,535.738892 271.689941,537.598511 281.353516,538.915710 
	C294.658875,540.729248 308.254761,540.793518 320.744110,546.752502 
	C335.066101,553.585938 340.994751,564.026123 340.057587,581.125122 
	C339.451874,592.176575 329.451691,603.946716 316.874023,607.906128 
	C313.116180,609.089050 309.072021,609.905090 305.151062,609.937988 
	C281.820160,610.133850 258.486938,610.053162 235.154480,610.051331 
	C234.346024,610.051270 233.537567,609.903748 233.698502,609.919434 
	C234.182419,601.976196 235.028061,594.256714 235.059082,586.533936 
	C235.203674,550.535645 235.202835,514.536194 235.057419,478.537933 
	C235.027573,471.146698 234.156052,463.758850 233.644379,455.939697 
	C234.357620,455.939697 235.977554,455.939575 237.597504,455.939728 
	C258.263489,455.941467 278.936249,455.620422 299.593262,456.052032 
	C314.810638,456.369934 327.554230,462.106201 334.835876,476.392181 
	C336.674561,479.999573 337.223267,484.264465 338.481567,488.646301 
M301.806885,577.113647 
	C305.509888,569.922119 304.799988,564.239868 298.970276,558.667358 
	C296.364319,556.176392 293.433685,553.578369 290.154846,552.316528 
	C277.016113,547.260437 263.744904,542.521118 250.371429,538.124878 
	C247.602509,537.214600 244.186508,538.272888 241.068726,538.423950 
	C242.162933,541.506042 242.570007,545.125122 244.480286,547.569458 
	C250.197433,554.885193 255.939835,562.356934 262.753235,568.585449 
	C268.380920,573.729919 275.195282,577.944092 282.131683,581.182922 
	C288.731140,584.264404 295.806091,583.633240 301.806885,577.113647 
M254.094818,490.498596 
	C251.358566,492.379608 248.480774,494.087311 245.917831,496.180511 
	C241.633240,499.679749 239.460480,504.452820 240.384109,509.862640 
	C241.350464,515.522644 245.552017,519.178955 250.999466,519.772217 
	C257.683807,520.500183 264.595612,520.604980 271.253845,519.758423 
	C280.908325,518.531006 290.009125,515.246094 297.293823,508.302307 
	C301.486786,504.305511 304.293762,499.646729 302.187683,493.642822 
	C299.918060,487.172668 294.522034,484.547607 288.224457,484.066864 
	C276.590942,483.178864 265.343750,485.007782 254.094818,490.498596 
z"/>
<path fill="#8FA0FD" opacity="1.000000" stroke="none" 
	d="
M301.583374,577.420654 
	C295.806091,583.633240 288.731140,584.264404 282.131683,581.182922 
	C275.195282,577.944092 268.380920,573.729919 262.753235,568.585449 
	C255.939835,562.356934 250.197433,554.885193 244.480286,547.569458 
	C242.570007,545.125122 242.162933,541.506042 241.068726,538.423950 
	C244.186508,538.272888 247.602509,537.214600 250.371429,538.124878 
	C263.744904,542.521118 277.016113,547.260437 290.154846,552.316528 
	C293.433685,553.578369 296.364319,556.176392 298.970276,558.667358 
	C304.799988,564.239868 305.509888,569.922119 301.583374,577.420654 
M265.800232,546.687927 
	C259.087616,544.587097 252.374985,542.486206 245.100861,540.209595 
	C245.322403,541.958435 245.214417,542.563965 245.467133,542.889587 
	C254.562119,554.610962 263.569855,566.558350 276.449890,574.382507 
	C280.771667,577.007874 286.338715,578.377869 291.443085,578.716736 
	C297.656403,579.129211 301.291290,574.729858 299.911102,568.649292 
	C299.106873,565.106140 296.700836,560.718567 293.719818,559.105591 
	C285.016724,554.396667 275.662537,550.891113 265.800232,546.687927 
z"/>
<path fill="#90A1FD" opacity="1.000000" stroke="none" 
	d="
M254.422729,490.320740 
	C265.343750,485.007782 276.590942,483.178864 288.224457,484.066864 
	C294.522034,484.547607 299.918060,487.172668 302.187683,493.642822 
	C304.293762,499.646729 301.486786,504.305511 297.293823,508.302307 
	C290.009125,515.246094 280.908325,518.531006 271.253845,519.758423 
	C264.595612,520.604980 257.683807,520.500183 250.999466,519.772217 
	C245.552017,519.178955 241.350464,515.522644 240.384109,509.862640 
	C239.460480,504.452820 241.633240,499.679749 245.917831,496.180511 
	C248.480774,494.087311 251.358566,492.379608 254.422729,490.320740 
M266.104797,516.948242 
	C268.068878,516.628113 270.044312,516.364990 271.995117,515.977966 
	C280.403931,514.309692 288.412079,511.692200 294.829529,505.658051 
	C298.024872,502.653534 300.098999,498.992737 298.664429,494.514221 
	C297.277466,490.184387 293.423187,488.566406 289.353516,488.025024 
	C279.304871,486.688324 269.455017,488.024902 260.185699,491.989136 
	C255.699005,493.907990 251.192642,496.506378 247.687607,499.840424 
	C240.911148,506.286316 243.209610,514.063599 252.325729,516.119080 
	C256.466064,517.052673 260.890289,516.726990 266.104797,516.948242 
z"/>
<path fill="#F5F4F5" opacity="1.000000" stroke="none" 
	d="
M266.181885,546.800903 
	C275.662537,550.891113 285.016724,554.396667 293.719818,559.105591 
	C296.700836,560.718567 299.106873,565.106140 299.911102,568.649292 
	C301.291290,574.729858 297.656403,579.129211 291.443085,578.716736 
	C286.338715,578.377869 280.771667,577.007874 276.449890,574.382507 
	C263.569855,566.558350 254.562119,554.610962 245.467133,542.889587 
	C245.214417,542.563965 245.322403,541.958435 245.100861,540.209595 
	C252.374985,542.486206 259.087616,544.587097 266.181885,546.800903 
z"/>
<path fill="#F6F4F5" opacity="1.000000" stroke="none" 
	d="
M265.645264,516.960388 
	C260.890289,516.726990 256.466064,517.052673 252.325729,516.119080 
	C243.209610,514.063599 240.911148,506.286316 247.687607,499.840424 
	C251.192642,496.506378 255.699005,493.907990 260.185699,491.989136 
	C269.455017,488.024902 279.304871,486.688324 289.353516,488.025024 
	C293.423187,488.566406 297.277466,490.184387 298.664429,494.514221 
	C300.098999,498.992737 298.024872,502.653534 294.829529,505.658051 
	C288.412079,511.692200 280.403931,514.309692 271.995117,515.977966 
	C270.044312,516.364990 268.068878,516.628113 265.645264,516.960388 
z"/>
</svg>