<svg version="1.1" id="Layer_1" xmlns="http://www.w3.org/2000/svg" xmlns:xlink="http://www.w3.org/1999/xlink" x="0px" y="0px"
	 width="100%" viewBox="0 0 1024 1024" enable-background="new 0 0 1024 1024" xml:space="preserve">
<path fill="#000000" opacity="1.000000" stroke="none" 
	d="
M633.369263,745.650879 
	C630.385010,736.475403 627.707703,727.626221 624.603333,718.929443 
	C623.341553,715.394653 621.873962,711.813293 619.348145,708.852722 
	C618.305786,707.630981 616.605957,706.468262 617.621765,704.580994 
	C618.535278,702.883728 620.453552,703.021729 622.103149,703.015686 
	C636.101257,702.964539 650.099487,702.943787 664.097717,702.926392 
	C670.596924,702.918335 677.097839,702.847778 683.594727,702.973328 
	C688.913513,703.076050 689.489441,704.126587 687.165161,708.766663 
	C682.486755,718.106323 683.765991,727.988770 685.035095,737.680847 
	C686.779846,751.005066 688.943970,764.290405 691.450623,777.493225 
	C693.146362,786.424866 696.068970,795.120422 697.847046,804.040344 
	C699.871155,814.193848 703.356567,823.796936 707.419495,833.236633 
	C708.266602,835.204895 709.380371,837.108521 710.652893,838.834290 
	C714.596741,844.182739 718.974609,844.156677 722.496704,838.409485 
	C727.015137,831.036560 728.502808,822.599915 729.541687,814.183594 
	C731.690918,796.771729 731.630249,779.334229 729.179260,761.943359 
	C727.787781,752.069336 724.527161,742.641357 721.521423,733.210938 
	C719.175598,725.851013 717.423462,718.156494 713.015625,711.563904 
	C711.645508,709.514648 710.324768,707.432373 709.001892,705.396729 
	C710.160950,702.625854 712.555359,703.002686 714.609375,702.997498 
	C734.773376,702.946472 754.937744,702.914001 775.101501,703.000854 
	C780.742065,703.025146 780.957642,704.061707 778.967896,709.087952 
	C776.528137,715.251099 774.774719,721.722290 775.706177,728.515564 
	C777.172363,739.208557 778.268127,749.978699 780.329895,760.558411 
	C784.954346,784.287781 789.181641,808.153809 798.299500,830.738281 
	C799.349976,833.340088 800.766541,835.816833 802.219849,838.227112 
	C803.812683,840.868896 805.888367,843.356506 809.354309,842.632446 
	C812.674072,841.938965 814.514587,839.354187 815.775269,836.224731 
	C818.330139,829.882568 818.461243,823.168213 818.471924,816.578430 
	C818.500549,798.934814 812.067993,782.901550 805.278809,766.997620 
	C799.079773,752.476318 793.185730,737.867432 792.680969,721.730652 
	C792.550537,717.560791 793.858582,713.751709 795.494812,710.209106 
	C797.545044,705.770081 801.249512,702.961121 806.554871,702.967834 
	C824.552368,702.990540 842.549805,702.963501 860.547302,702.987976 
	C862.351135,702.990417 864.205872,703.086426 865.723938,705.140747 
	C861.790527,710.250732 858.960327,715.892212 856.599365,721.929016 
	C853.084412,730.916626 850.918335,740.268982 847.976624,749.401062 
	C842.233459,767.229858 838.309021,785.558899 833.891724,803.736023 
	C830.801697,816.451599 828.913147,829.458557 826.465332,842.331055 
	C825.226990,848.843262 824.164490,855.401062 822.597595,861.834717 
	C821.433350,866.614868 823.580750,870.648132 824.603760,874.957336 
	C824.865845,876.061768 825.741150,877.031067 825.233826,878.407410 
	C823.674377,880.253906 821.402649,879.916992 819.291809,879.902954 
	C797.466797,879.757446 775.642273,879.541992 753.817139,879.420837 
	C749.920532,879.399231 748.205994,878.614136 750.079102,874.177979 
	C753.600403,865.838623 750.789185,857.482422 749.315186,849.184448 
	C748.187256,842.834595 747.002197,836.494507 745.791077,830.159912 
	C744.701660,824.462280 743.565491,818.773132 742.384766,813.093872 
	C742.232910,812.363464 742.031006,811.444275 740.935608,811.267639 
	C738.084717,817.185486 738.130127,823.765930 736.812256,830.013794 
	C734.456482,841.182495 731.416565,852.275208 731.143921,863.793762 
	C731.054199,867.585754 730.814026,871.369690 732.631958,875.040771 
	C733.930237,877.662231 732.861877,879.603943 729.565491,879.599121 
	C706.748596,879.565979 683.931641,879.536316 661.114746,879.496399 
	C657.445374,879.489990 656.014404,877.698181 657.822144,874.419678 
	C660.434570,869.681824 660.246399,864.647522 659.255920,859.799805 
	C655.537903,841.603882 652.524780,823.278015 648.454407,805.135193 
	C645.921631,793.846252 642.720581,782.719482 640.413635,771.363098 
	C638.680847,762.832886 635.119995,754.678162 633.369263,745.650879 
z"/>
<path fill="#000000" opacity="1.000000" stroke="none" 
	d="
M282.893555,868.953979 
	C272.841400,877.106262 261.304840,879.762634 249.113388,879.855103 
	C224.958969,880.038452 200.802307,879.956482 176.646637,879.926697 
	C169.607788,879.918030 169.059586,878.989746 172.189377,872.550659 
	C173.901825,869.027588 174.688705,865.406921 174.684402,861.475037 
	C174.633911,815.329407 174.637527,769.183655 174.677170,723.037964 
	C174.681839,717.593323 173.784637,712.393860 170.971115,707.711304 
	C169.082962,704.568909 170.476807,703.489624 173.382843,703.070374 
	C174.365982,702.928467 175.377106,702.948242 176.375427,702.948792 
	C200.697617,702.963379 225.030060,702.566895 249.338104,703.163879 
	C263.766174,703.518250 276.824554,708.537170 285.958923,720.478821 
	C300.711090,739.764832 297.601135,762.722229 280.715790,778.889893 
	C269.455536,789.671570 255.638718,792.543274 240.241745,791.712402 
	C226.847382,790.989624 214.125107,787.074951 200.966370,785.474365 
	C198.705536,785.199402 198.717880,785.097839 195.664581,786.667969 
	C198.426575,790.457275 202.704407,791.097046 206.580856,791.659790 
	C221.710510,793.856201 236.971283,795.105713 252.118118,797.078979 
	C263.462219,798.556885 274.441101,802.331482 283.464752,810.016174 
	C300.007629,824.104431 302.957764,851.444763 282.893555,868.953979 
M213.759308,742.209900 
	C211.056732,742.939026 208.215485,743.351135 205.679184,744.460449 
	C199.616928,747.112122 193.464386,749.763611 189.384552,755.396240 
	C183.915833,762.946289 187.179260,771.193298 196.160141,773.514221 
	C201.832474,774.980042 207.351440,774.213745 212.941833,773.671021 
	C224.529663,772.546143 235.464447,769.623596 244.096863,761.221130 
	C251.919800,753.606689 250.168533,745.730347 240.036819,741.566406 
	C237.665619,740.591797 235.287460,740.288635 232.789597,740.072693 
	C226.568909,739.534851 220.603668,740.915527 213.759308,742.209900 
M231.631790,841.929749 
	C235.984467,843.749878 240.152908,842.654968 244.229858,841.014282 
	C249.421326,838.924927 251.557037,833.100647 249.623810,827.841858 
	C247.090652,820.951050 241.349686,817.604004 235.459976,814.476196 
	C225.434265,809.151978 214.420013,806.437866 203.715851,802.919617 
	C198.582993,801.232544 193.529373,799.216125 188.110855,798.625671 
	C186.519684,801.576050 188.434494,803.333130 189.817352,805.067871 
	C196.149323,813.010864 202.612244,820.829529 209.833405,828.019531 
	C215.923050,834.082886 222.225464,839.622925 231.631790,841.929749 
z"/>
<path fill="#000000" opacity="1.000000" stroke="none" 
	d="
M420.179047,709.713135 
	C433.006348,716.263611 441.193298,725.832642 444.435974,739.857849 
	C448.457367,757.251160 446.174377,773.493164 437.077362,788.681702 
	C429.088287,802.020325 417.050507,808.837280 401.513458,810.213684 
	C383.202240,811.835754 368.891937,804.570007 356.775421,791.604797 
	C354.054626,788.693298 351.450317,785.619263 347.950012,783.539246 
	C345.842957,782.287170 343.664612,781.297180 341.583740,783.380981 
	C339.441681,785.526062 339.982666,787.946350 341.395844,790.251953 
	C343.092285,793.019775 345.612061,794.915527 348.317200,796.613770 
	C361.656311,804.988342 376.571838,809.777710 391.117065,815.390686 
	C407.154449,821.579468 423.040100,827.980774 435.269653,840.768494 
	C443.105988,848.962402 445.451538,858.868591 443.947662,869.795593 
	C443.250305,874.862549 438.901947,878.981934 433.178070,879.395020 
	C420.215057,880.330627 407.211792,880.273315 394.238586,879.337585 
	C390.514221,879.068909 388.571777,876.821777 388.769501,872.960632 
	C388.871613,870.965698 388.419067,868.736877 389.153778,867.012817 
	C394.277588,854.988342 388.778381,845.491516 381.615601,836.852356 
	C370.115875,822.982483 356.070374,812.148010 339.750305,804.355103 
	C337.579102,803.318359 335.229401,802.056335 333.389008,804.282898 
	C331.660553,806.373901 333.586731,808.515930 334.704529,810.161804 
	C338.565491,815.846924 344.618439,818.924927 350.228729,822.485229 
	C359.963074,828.662659 369.602631,834.984558 375.477325,845.354187 
	C380.379578,854.007385 380.924896,862.981934 376.519867,872.055176 
	C374.301758,876.623901 370.557098,879.425537 365.540802,879.531128 
	C350.717316,879.843262 335.886932,879.897034 321.059296,879.892456 
	C317.245819,879.891296 315.822754,878.001770 318.028717,874.390869 
	C320.549561,870.264587 321.124603,865.766174 321.113159,860.982788 
	C321.000427,813.833618 320.966583,766.684082 321.022461,719.534851 
	C321.027405,715.349304 319.750977,711.599426 317.933350,708.109863 
	C315.933075,704.269714 317.588867,703.293701 320.919037,703.037598 
	C322.743011,702.897339 324.583038,702.942993 326.415833,702.943604 
	C347.913666,702.950806 369.411804,702.907227 390.909241,703.003540 
	C401.006805,703.048828 410.677734,705.235352 420.179047,709.713135 
M393.177490,773.624939 
	C397.828461,773.398560 402.522919,773.494080 407.120667,772.873474 
	C414.800659,771.836853 422.701416,771.093323 429.345032,766.578857 
	C436.647919,761.616638 435.928436,753.257507 428.293640,748.996033 
	C419.929230,744.327271 410.661377,742.946167 401.500244,742.428162 
	C387.897614,741.658997 374.201141,741.775146 360.582672,742.376404 
	C353.420013,742.692627 346.029358,743.674316 339.557159,747.482483 
	C335.468903,749.888000 332.261719,753.448669 332.587097,758.239990 
	C332.906677,762.946289 336.288879,766.376831 340.613831,768.310974 
	C346.541870,770.962097 352.980377,772.268555 359.321686,772.766174 
	C370.249115,773.623718 381.239563,774.203552 393.177490,773.624939 
z"/>
<path fill="#000000" opacity="1.000000" stroke="none" 
	d="
M553.384155,237.603653 
	C545.400818,225.145920 534.576477,216.133240 522.914734,207.989136 
	C517.450928,204.173416 511.773865,200.719757 505.636993,198.074951 
	C504.102173,197.413498 502.437744,196.536011 501.069885,198.187897 
	C499.727142,199.809433 500.148682,201.592056 501.129852,203.301941 
	C504.617828,209.380341 510.661713,212.468964 516.250488,215.994034 
	C523.722778,220.707123 531.320007,225.264786 537.282959,231.882523 
	C542.489014,237.660278 545.949890,244.400772 546.899353,252.280853 
	C547.568481,257.834442 546.000122,262.928802 543.267761,267.530487 
	C541.095703,271.188599 537.854370,273.458832 533.007080,273.387329 
	C518.515320,273.173584 504.017731,273.380402 489.522522,273.353699 
	C483.801697,273.343170 483.562012,272.681885 486.027924,267.372833 
	C487.780670,263.599304 488.942139,259.638733 488.936798,255.348373 
	C488.879761,209.529938 488.889282,163.711456 488.873810,117.892975 
	C488.872009,112.493416 487.453857,107.413818 485.268951,102.524460 
	C483.438080,98.427292 484.206909,96.822250 488.768219,96.928772 
	C516.046570,97.565788 543.427124,94.786148 570.595398,98.958466 
	C590.615356,102.032997 605.428955,112.242920 611.362976,132.241821 
	C614.078918,141.395142 614.500366,150.929459 612.562256,160.826233 
	C610.206116,172.857483 605.965576,183.589615 597.294434,192.036972 
	C586.119629,202.923340 572.328552,206.186081 556.940796,204.297226 
	C541.857056,202.445709 531.121704,193.752045 521.383057,183.136002 
	C519.363892,180.934860 517.363098,178.594376 514.425720,177.586304 
	C512.143555,176.803085 509.644714,176.560760 507.992523,178.722153 
	C506.429596,180.766800 507.506744,182.800690 508.814819,184.669662 
	C512.299011,189.647644 517.508301,192.323242 522.690735,194.965057 
	C537.356689,202.441254 553.109314,207.290497 568.236755,213.655411 
	C581.020264,219.034103 593.304993,225.157730 602.959961,235.551224 
	C611.097656,244.311417 614.054626,257.731628 609.799500,267.352142 
	C608.144348,271.094391 605.364868,273.174164 601.332092,273.204407 
	C588.004089,273.304413 574.674622,273.351685 561.346863,273.256989 
	C557.061401,273.226562 555.010071,270.538513 555.677734,266.398834 
	C556.127075,263.613342 556.303589,260.701294 557.277405,258.098572 
	C560.105347,250.540192 557.407410,244.151901 553.384155,237.603653 
M543.502991,136.038422 
	C531.986389,135.655075 520.651428,136.947678 509.681732,140.455231 
	C504.936584,141.972473 501.165192,145.097717 500.275848,150.447601 
	C499.512573,155.038849 501.415710,158.677277 505.258301,161.072403 
	C510.394318,164.273743 516.221191,166.168015 522.116638,166.615891 
	C541.535583,168.091141 561.014343,168.789627 580.427795,166.643478 
	C586.148376,166.011063 591.821899,164.313431 596.687866,160.883057 
	C603.146057,156.330154 602.909729,147.598236 596.225525,143.505585 
	C591.784607,140.786484 586.794678,139.202713 581.782043,138.401611 
	C569.456787,136.431808 557.012573,135.497833 543.502991,136.038422 
z"/>
<path fill="#000000" opacity="1.000000" stroke="none" 
	d="
M734.045532,101.761955 
	C748.363220,109.523705 758.055664,121.166290 764.761230,135.278961 
	C770.579773,147.524841 773.090271,160.678635 774.130249,174.190231 
	C776.242249,201.628754 771.903015,227.588791 755.852905,250.480515 
	C747.975525,261.715790 737.096802,269.466095 723.607422,273.445648 
	C704.540649,279.070618 686.789734,276.259430 670.344788,265.584625 
	C658.905518,258.159149 651.259460,247.436539 645.469177,235.128326 
	C635.797424,214.569244 634.119019,192.716309 636.288818,170.800537 
	C638.526794,148.197464 645.337708,126.769707 663.124756,110.882614 
	C678.293701,97.334023 696.071350,92.270195 716.267395,95.959564 
	C722.372253,97.074791 728.144653,98.948685 734.045532,101.761955 
M732.773132,236.362946 
	C733.747375,233.306335 733.837585,230.152710 733.913513,226.978043 
	C734.276672,211.800476 732.961548,196.811615 729.857300,181.917023 
	C726.408020,165.367233 722.874146,148.856033 715.457703,133.543961 
	C711.549072,125.474335 707.391907,117.399101 699.720276,112.021309 
	C693.174866,107.433060 685.514954,108.969368 682.449524,115.691734 
	C679.325928,122.541748 677.617798,129.824295 677.290039,137.366562 
	C676.528381,154.890121 678.845520,172.112717 681.883118,189.337845 
	C684.591919,204.698502 687.683960,219.906723 693.658203,234.353165 
	C697.266357,243.078033 700.738586,251.954788 708.197144,258.436523 
	C715.748779,264.999115 720.721069,262.083649 726.373840,255.914368 
	C726.812927,255.435196 727.032654,254.760666 727.387634,254.197952 
	C730.661987,249.007767 731.856445,243.182983 732.773132,236.362946 
z"/>
<path fill="#000000" opacity="1.000000" stroke="none" 
	d="
M359.824432,129.945801 
	C354.593262,138.939041 354.981781,148.465530 355.712616,157.926804 
	C356.017670,161.876282 358.472595,162.689331 362.175995,160.702881 
	C366.119171,158.587845 369.803070,156.040314 374.275726,154.919754 
	C384.016449,152.479355 392.852966,155.254364 401.853241,158.635849 
	C409.550171,161.527664 416.425598,166.560379 425.063599,167.147385 
	C429.787964,167.468445 433.846558,166.976730 437.610107,163.857040 
	C441.404236,160.712036 445.203949,162.022705 446.074951,166.806396 
	C448.822266,181.895203 439.969543,197.863403 424.246277,201.581482 
	C410.936493,204.728806 400.497406,200.043259 390.861267,191.987335 
	C386.019836,187.939804 381.707703,183.260376 377.140808,178.882782 
	C374.106354,175.974136 370.687256,173.691605 366.714142,172.199524 
	C365.031219,171.567535 363.603058,171.144897 362.135498,172.566681 
	C360.696198,173.961075 359.918610,175.612976 360.561920,177.522659 
	C367.830536,199.098816 378.886475,217.984650 400.014923,228.636063 
	C410.951508,234.149490 422.684326,234.400726 434.345337,229.904984 
	C441.116516,227.294479 445.161896,221.832153 449.278748,216.369949 
	C450.777466,214.381439 452.135315,212.238785 453.887482,210.498856 
	C457.957672,206.457108 462.031799,207.559219 463.336121,213.092758 
	C465.417084,221.921066 463.122833,230.360001 459.728546,238.305176 
	C453.158569,253.683838 442.508453,265.426697 426.779541,271.936218 
	C411.783875,278.142242 396.659973,277.535217 381.565125,272.232758 
	C357.891693,263.916809 344.788574,245.626419 338.388031,222.858551 
	C332.082947,200.430359 331.607910,177.407837 337.180298,154.330734 
	C342.016846,134.301208 350.334900,116.630783 367.246796,104.198570 
	C379.641113,95.087303 393.646362,92.366257 408.761078,96.117249 
	C415.515808,97.793549 422.324402,99.252396 429.106262,100.819839 
	C438.078888,102.893616 446.145874,100.383102 454.053162,96.281303 
	C459.997467,93.197777 463.263367,94.861443 463.198761,101.470840 
	C463.031433,118.589287 456.424835,132.843277 442.102661,142.699203 
	C435.932770,146.945053 428.690643,145.699844 421.789154,144.233444 
	C410.260315,141.783875 400.102448,136.058029 389.891174,130.524033 
	C384.880585,127.808540 379.524658,126.122429 374.065826,124.726837 
	C368.368011,123.270172 363.505951,124.552620 359.824432,129.945801 
z"/>
<path fill="#000000" opacity="1.000000" stroke="none" 
	d="
M527.603210,830.427856 
	C536.890198,836.524536 546.561279,839.627563 557.519226,838.878967 
	C566.525757,838.263733 573.849060,834.679199 579.681091,828.059692 
	C583.079041,824.202942 585.854919,819.803040 589.172302,815.868042 
	C590.496094,814.297852 592.339111,812.589783 594.823486,813.776245 
	C597.141418,814.883240 597.922485,816.925049 598.223022,819.453979 
	C601.087646,843.558716 581.810974,869.819458 561.090698,877.631042 
	C538.874146,886.006592 518.800476,881.813049 500.079346,869.236877 
	C489.739960,862.291138 482.926910,851.877991 477.763245,840.418213 
	C468.679718,820.259033 467.103119,798.954712 469.078308,777.512146 
	C471.000031,756.650391 476.514984,736.598267 490.804352,720.232605 
	C505.485077,703.418701 523.456909,697.085388 546.419434,702.495728 
	C557.332642,705.067078 568.158203,708.920288 579.715454,705.847656 
	C582.839111,705.017212 585.544556,703.492126 588.357483,702.084900 
	C594.463623,699.030334 598.340088,701.098022 598.139465,707.754456 
	C597.653137,723.894104 591.376221,737.411072 578.453247,747.305786 
	C574.510925,750.324280 569.673096,750.975708 564.347473,750.608398 
	C548.140503,749.490845 534.880371,741.066528 520.836548,734.430359 
	C516.997620,732.616394 513.126099,730.534729 508.668396,730.332947 
	C497.983124,729.849365 493.197815,733.222351 491.392395,743.720642 
	C490.326904,749.916321 489.907837,756.300415 490.761566,762.631042 
	C491.519073,768.248352 492.997772,769.002930 497.809326,765.960144 
	C505.485321,761.106018 513.619385,757.793640 522.787476,759.924561 
	C530.042603,761.610901 537.000854,764.371155 543.836975,767.444275 
	C549.829651,770.138062 555.691772,773.425720 562.678345,773.145081 
	C565.950012,773.013733 568.760864,772.442810 571.427368,770.283569 
	C576.346252,766.300598 580.178467,767.690674 581.447571,773.931885 
	C582.764465,780.408386 580.989746,786.698425 578.030457,792.243835 
	C569.555115,808.125916 548.881531,812.941589 533.609863,803.327087 
	C526.608459,798.919189 520.787415,793.283203 515.045898,787.488770 
	C511.516541,783.926819 507.879272,780.541016 503.308014,778.316895 
	C501.105804,777.245422 498.823395,776.515991 496.751465,778.256409 
	C494.467621,780.174927 494.874390,782.947021 495.776215,785.219604 
	C502.713257,802.701477 511.227295,819.124695 527.603210,830.427856 
z"/>
<path fill="#000000" opacity="1.000000" stroke="none" 
	d="
M253.915314,202.911011 
	C241.482758,216.815063 228.601089,229.858627 217.432663,244.394501 
	C215.322632,247.140747 213.489319,250.185013 212.025879,253.323746 
	C209.457336,258.832672 212.349335,263.161682 218.473526,262.606873 
	C227.747726,261.766754 235.192123,256.570129 242.560852,251.401459 
	C251.136185,245.386429 259.120422,238.549820 268.173859,233.193405 
	C274.544556,229.424179 281.357300,226.929703 288.552155,225.339081 
	C294.825867,223.952103 300.411224,225.856171 305.658417,228.984955 
	C310.406982,231.816406 312.019867,236.455704 312.086304,241.709259 
	C312.197968,250.536774 312.154541,259.366364 312.284180,268.193512 
	C312.336273,271.739288 310.873260,273.369507 307.248016,273.362518 
	C272.431763,273.295563 237.613617,273.468079 202.800262,273.132263 
	C194.057205,273.047974 188.906097,266.321930 186.261078,259.113342 
	C181.835800,247.053040 179.759491,234.596558 183.091156,221.491333 
	C186.249130,209.069290 192.610092,198.905396 201.757431,190.392090 
	C216.587662,176.589844 234.760315,168.228226 252.838806,159.745499 
	C265.746552,153.689011 279.344971,149.008423 291.190277,140.816696 
	C294.340576,138.638092 297.388855,136.304062 298.118591,132.082382 
	C298.883331,127.658257 297.085968,124.768585 292.693237,124.310898 
	C284.978394,123.507088 277.575165,124.605072 270.406830,127.838295 
	C256.359070,134.174454 242.523560,141.008881 227.384018,144.677383 
	C215.956100,147.446548 205.109100,143.684570 197.967590,133.886078 
	C191.980164,125.671036 188.672684,116.335327 186.193710,106.653839 
	C185.674164,104.624825 185.732956,102.302742 186.105698,100.219559 
	C186.957108,95.461121 191.054672,93.076508 195.035446,95.585220 
	C205.888763,102.425056 217.234116,101.602127 229.250214,99.874771 
	C245.304581,97.566895 261.294067,93.402977 277.673126,94.846588 
	C291.003448,96.021507 303.307648,100.071762 309.487640,113.511284 
	C313.647858,122.558533 312.186951,131.624313 307.649567,140.239792 
	C303.344116,148.414948 297.442657,155.378372 290.966370,161.909790 
	C278.066620,174.919388 266.536896,189.170837 253.915314,202.911011 
z"/>
<path fill="#000000" opacity="1.000000" stroke="none" 
	d="
M231.000000,580.075317 
	C210.503738,580.098145 190.507446,580.141235 170.511261,580.113342 
	C168.465546,580.110474 165.796936,580.956909 164.778000,578.351868 
	C163.853683,575.988647 166.192657,574.846252 167.591614,573.547119 
	C172.552017,568.940674 173.604828,562.715149 173.630646,556.628296 
	C173.822311,511.472687 173.828094,466.315186 173.592072,421.159882 
	C173.556885,414.426514 172.686829,407.448486 166.833435,402.525665 
	C165.710251,401.581024 164.513367,400.362976 165.272079,398.655487 
	C165.989624,397.040619 167.603165,396.917175 169.119827,396.897461 
	C175.950775,396.808624 182.782104,396.724518 189.613525,396.699371 
	C208.273605,396.630676 226.942688,396.226135 245.590683,396.678009 
	C257.029205,396.955200 268.369080,398.421600 278.572815,404.767548 
	C294.315918,414.558502 302.238068,431.470184 299.831787,449.407471 
	C296.916138,471.141571 283.974609,484.483643 263.160034,490.545868 
	C262.715759,490.675262 262.336792,491.029053 261.621582,491.464142 
	C264.781494,494.264160 268.493225,494.301025 271.621521,495.427979 
	C292.244232,502.857025 303.144135,518.768921 301.995422,540.527161 
	C301.213501,555.338257 288.730713,571.014954 274.006836,576.404663 
	C266.175476,579.271362 258.176514,580.024597 249.997025,580.060913 
	C243.831451,580.088257 237.665680,580.072144 231.000000,580.075317 
M207.304718,528.206665 
	C198.505768,518.997986 189.931854,509.604065 183.047485,498.794861 
	C182.069489,499.701050 182.400818,500.936035 182.411621,502.042023 
	C182.574265,518.688171 182.774292,535.334045 182.960739,551.979980 
	C183.009384,556.322327 182.645828,560.628967 181.551834,564.839233 
	C180.079071,570.507080 180.230072,570.754089 186.164261,570.753052 
	C209.149811,570.749084 232.135391,570.714172 255.120911,570.736755 
	C260.463562,570.742004 265.502472,570.125244 270.664215,568.124268 
	C285.253235,562.468750 292.992767,551.187927 292.977325,534.130249 
	C292.965576,521.159424 283.632477,509.210052 270.317688,504.245880 
	C260.532013,500.597473 250.305664,499.573090 240.131531,498.197937 
	C230.141541,496.847656 219.991760,497.008514 210.018951,495.051514 
	C215.261612,497.285828 220.607712,498.941406 225.897903,500.759674 
	C236.025223,504.240387 245.794327,508.389221 253.141907,516.637756 
	C258.496643,522.649048 259.400024,530.985168 255.466736,537.362061 
	C251.433746,543.900696 242.548141,547.157349 235.038788,545.354065 
	C224.110886,542.729736 215.297546,536.838318 207.304718,528.206665 
M217.763092,476.258850 
	C215.966690,476.570221 213.879684,475.697815 212.051514,477.584381 
	C212.890656,478.081146 213.399490,478.583923 213.984268,478.698273 
	C222.765488,480.415527 231.510071,482.410980 240.359207,483.663055 
	C248.501038,484.815002 256.661957,483.808350 264.438507,481.102203 
	C277.863647,476.430481 291.520935,462.952850 291.199219,442.614594 
	C290.859406,421.134125 272.789886,406.732849 254.966354,406.331879 
	C231.834091,405.811493 208.682922,406.120239 185.539886,406.110504 
	C183.958160,406.109833 182.167099,405.626495 180.751511,407.497559 
	C184.591782,423.213928 182.340881,439.425903 182.806595,456.991882 
	C185.319824,450.462860 188.459778,446.198639 193.021149,443.231537 
	C207.597565,433.749847 223.457779,429.932220 240.801132,432.531738 
	C249.404236,433.821228 254.799561,438.846283 256.648956,446.916504 
	C258.045654,453.011322 254.607834,458.220581 250.330917,462.345154 
	C241.521561,470.840912 230.728256,475.111481 217.763092,476.258850 
M233.490829,463.022491 
	C237.345505,461.381989 240.836731,459.248383 243.921112,456.331940 
	C247.137970,453.290161 247.933197,449.580811 246.406235,445.864624 
	C245.078522,442.633392 241.859238,441.251862 238.223480,441.213074 
	C229.416504,441.119171 220.579117,440.563354 212.078384,443.718292 
	C205.218933,446.264099 198.023178,448.324768 193.655838,454.864075 
	C189.940216,460.427551 192.590973,467.101135 199.047989,467.635101 
	C210.536285,468.585083 222.012955,468.421326 233.490829,463.022491 
M239.444748,536.724365 
	C247.277023,535.437988 249.846802,532.756714 248.764908,526.851746 
	C248.228165,523.922180 246.251526,521.858154 244.131210,519.961487 
	C238.836929,515.225647 232.494171,512.419861 225.858673,510.190735 
	C215.786957,506.807190 205.702682,503.461060 194.647186,499.773285 
	C197.842972,505.658691 201.909317,509.180023 205.394089,513.096985 
	C214.622955,523.470398 223.198196,534.977661 239.444748,536.724365 
M196.143860,476.187958 
	C190.282074,474.362366 185.883835,470.703125 182.782898,464.538483 
	C182.782898,474.831146 182.782898,484.172821 182.782898,494.448364 
	C186.292953,489.087036 190.949371,490.942322 195.202805,490.775970 
	C189.606934,483.219391 189.766968,481.732758 196.143860,476.187958 
z"/>
<path fill="#000000" opacity="1.000000" stroke="none" 
	d="
M755.332886,580.081421 
	C740.598145,577.788025 733.066650,569.962585 729.301636,555.994141 
	C720.426819,523.068054 736.044189,496.675201 762.381287,479.461639 
	C780.021484,467.932312 799.410461,459.995697 818.548889,451.516907 
	C825.692139,448.352264 832.914001,445.318237 839.149719,440.462799 
	C840.325989,439.546906 841.536743,438.632904 842.531555,437.536469 
	C843.916321,436.010254 844.874695,434.149506 843.953735,432.081635 
	C843.080872,430.121765 841.083679,430.097534 839.233887,429.907379 
	C830.920593,429.052582 823.463928,432.093018 816.247009,435.438080 
	C805.095947,440.606628 794.257019,446.615234 782.139099,449.198181 
	C758.690979,454.196228 750.357910,450.391388 739.459778,431.143524 
	C734.912109,423.111511 731.416077,414.385223 731.779602,404.703400 
	C732.086609,396.525024 737.854431,391.873932 744.861938,395.725037 
	C758.150146,403.027771 771.505432,400.272217 785.125122,398.245911 
	C796.458130,396.559784 807.822266,394.532532 819.230103,394.067535 
	C828.987305,393.669800 838.827148,395.279327 847.655823,400.284729 
	C863.504639,409.270050 870.084045,427.849762 857.985657,447.099579 
	C853.347351,454.479645 848.026184,461.318054 842.028076,467.532135 
	C820.517090,489.817230 800.708801,513.639771 779.580811,536.268982 
	C774.143250,542.092834 768.925842,548.193481 764.862183,555.142273 
	C763.751953,557.040771 762.426147,558.996033 764.135376,561.090942 
	C765.629211,562.921997 767.633240,562.334595 769.670776,561.864746 
	C781.498718,559.137268 790.174316,551.055969 799.459656,544.153870 
	C808.303284,537.580139 817.126770,531.065247 827.504150,527.141113 
	C841.183777,521.968262 853.747009,524.051453 861.489502,533.933960 
	C863.409058,536.384094 864.262024,539.094238 864.227173,542.269897 
	C864.113708,552.600525 864.218018,562.933289 864.190186,573.265137 
	C864.173401,579.477295 863.517700,580.126221 857.282043,580.126343 
	C823.453247,580.126831 789.624390,580.106995 755.332886,580.081421 
M735.998596,536.565369 
	C735.758667,546.010986 737.249512,555.070129 742.086914,563.354675 
	C746.011230,570.075439 751.023926,572.017029 759.147461,569.800842 
	C751.999878,563.453308 753.411926,556.508911 757.850586,549.651978 
	C760.642029,545.339600 763.627197,541.072937 767.059998,537.267944 
	C790.785645,510.969635 813.746338,483.979919 838.314148,458.439697 
	C842.071960,454.533112 845.257996,450.076538 848.708496,445.874359 
	C841.279846,450.630493 833.706970,454.390869 826.026794,457.942963 
	C804.538330,467.881592 781.989014,475.762146 762.782227,490.142578 
	C747.561584,501.538513 736.513489,515.499756 735.998596,536.565369 
M822.270813,423.639557 
	C823.384949,423.306458 824.491089,422.942902 825.614502,422.644928 
	C838.843933,419.136353 847.844177,419.193359 854.478333,431.009064 
	C857.718872,416.821045 846.970886,406.640381 833.543945,404.368988 
	C817.395691,401.637268 801.514832,405.122498 785.564453,407.409241 
	C774.640137,408.975403 763.664612,411.686432 752.431702,408.627045 
	C748.460327,407.545380 745.436218,404.202881 741.229492,404.092896 
	C739.921326,405.822418 740.128906,407.578857 740.557312,409.119354 
	C743.015015,417.957001 746.122192,426.545532 751.659058,433.998901 
	C754.476746,437.791748 757.821289,441.274841 762.787292,441.763947 
	C771.128906,442.585449 779.199158,441.197754 787.168884,438.426056 
	C798.961975,434.324738 809.723755,427.887695 822.270813,423.639557 
M853.385315,570.619324 
	C855.695374,570.152405 855.464905,568.311401 855.417969,566.680298 
	C855.198181,559.046326 856.017212,551.413574 855.130249,543.768250 
	C854.486328,538.217834 852.225098,535.422546 846.794128,534.279480 
	C837.413940,532.305298 829.146545,535.262512 821.141174,539.750610 
	C804.930481,548.838867 792.671814,563.882324 774.802307,570.690002 
	C800.731262,570.690002 826.660217,570.690002 853.385315,570.619324 
z"/>
<path fill="#000000" opacity="1.000000" stroke="none" 
	d="
M677.436768,439.287048 
	C672.598694,451.722809 663.933228,460.993866 655.334717,470.243317 
	C632.337646,494.981262 609.794800,520.126221 587.523621,545.515137 
	C584.909119,548.495667 582.913330,552.022583 580.666443,555.320496 
	C579.393616,557.188721 578.443054,559.297668 579.972229,561.324097 
	C581.428345,563.253601 583.503784,562.422668 585.497498,561.950684 
	C596.933838,559.243286 605.445923,551.567993 614.470032,544.843201 
	C623.555969,538.072449 632.546814,531.197571 643.301331,527.219177 
	C653.041138,523.616150 662.724243,522.875061 671.934143,528.798645 
	C676.971619,532.038635 680.143311,536.493591 680.138062,542.772644 
	C680.129456,553.102234 680.062744,563.432922 680.201050,573.760803 
	C680.260742,578.224365 678.374268,580.064880 673.925476,580.056152 
	C639.937622,579.989319 605.949524,580.065857 571.961670,579.999146 
	C555.246582,579.966309 548.396973,567.745850 545.215210,555.589172 
	C543.889893,550.525757 542.849854,545.314514 542.736267,539.879150 
	C542.271484,517.637634 551.918701,500.573944 568.638977,486.794617 
	C585.289246,473.073090 604.847717,464.643829 624.274109,455.964691 
	C634.264465,451.501312 644.627136,447.806915 653.717957,441.515289 
	C654.676086,440.852203 655.677490,440.233521 656.552307,439.471863 
	C658.710022,437.593170 661.222717,435.437317 660.091003,432.387238 
	C658.930908,429.260651 655.560425,429.354736 652.721497,429.497955 
	C643.537842,429.961182 635.379883,433.741608 627.290222,437.653290 
	C615.471741,443.368042 603.613831,448.736359 590.369202,450.617554 
	C576.289062,452.617462 565.673767,448.295288 558.214783,435.949677 
	C552.471313,426.443573 547.887939,416.615631 547.747437,405.316772 
	C547.633362,396.146149 553.833618,391.549164 561.589844,395.954712 
	C574.392029,403.226318 587.286133,399.933319 600.409912,398.504059 
	C616.828735,396.716034 633.076050,391.656586 649.844177,395.440948 
	C662.595520,398.318848 673.161804,403.930573 678.080322,417.140839 
	C680.844299,424.564484 680.827454,431.731049 677.436768,439.287048 
M551.322693,536.623901 
	C550.803894,543.257996 552.503662,549.671631 554.507324,555.751221 
	C558.283020,567.207581 562.873108,572.658752 575.345825,570.250610 
	C569.157471,563.034851 568.785339,557.681763 573.957520,549.308411 
	C574.917297,547.754639 575.954285,546.229309 577.113708,544.820984 
	C600.933960,515.887085 626.489441,488.497314 651.883118,460.966431 
	C656.228699,456.255096 660.431702,451.491333 663.614868,445.847351 
	C655.122864,451.537415 646.162659,456.146332 636.877014,460.210632 
	C616.817200,468.990692 596.355103,477.030487 578.524353,490.142700 
	C563.079468,501.500427 552.784851,515.993774 551.322693,536.623901 
M666.274109,413.295624 
	C656.108337,402.874359 643.122620,402.992981 630.015686,403.623871 
	C614.574890,404.367096 599.525208,408.130432 584.146362,409.568848 
	C575.796936,410.349823 568.344727,409.199677 561.095825,405.397644 
	C559.779846,404.707428 558.414062,403.623993 556.990601,404.866760 
	C555.869324,405.845703 556.112305,407.388275 556.427429,408.646362 
	C558.700012,417.718567 561.871216,426.458435 567.471130,434.041901 
	C571.406494,439.371246 576.480896,442.168793 583.639709,442.069641 
	C594.945374,441.913055 604.998718,437.970856 615.012207,433.601013 
	C624.125061,429.624176 632.847290,424.690918 642.571716,422.234558 
	C649.920532,420.378357 657.233948,419.345978 664.241272,423.729095 
	C667.409363,425.710724 668.449768,429.203522 670.585144,432.555298 
	C671.618408,425.331238 670.903015,419.215454 666.274109,413.295624 
M616.594299,554.116089 
	C608.622192,560.543823 600.459045,566.662842 589.901123,570.027649 
	C591.033386,570.463501 591.450317,570.764282 591.867310,570.764465 
	C616.832703,570.776306 641.798157,570.731018 666.763367,570.791504 
	C670.101746,570.799561 671.095093,569.271973 671.052856,566.216187 
	C670.947144,558.561829 670.829407,550.901123 671.032959,543.251343 
	C671.158264,538.541809 668.470581,535.992432 664.696045,534.760132 
	C658.362488,532.692261 651.910278,533.225708 645.681702,535.596008 
	C634.949829,539.680115 626.216553,546.942810 616.594299,554.116089 
z"/>
<path fill="#000000" opacity="1.000000" stroke="none" 
	d="
M395.698120,577.437073 
	C374.788330,568.518555 362.694794,553.215149 358.413635,531.187073 
	C356.548889,521.592468 356.237335,512.013245 356.146179,502.399078 
	C355.887085,475.072723 355.863525,447.742432 356.003662,420.415009 
	C356.042053,412.930176 354.541809,406.596130 347.763367,402.372803 
	C346.602783,401.649689 344.884613,400.759186 345.480743,398.910889 
	C346.107666,396.967102 348.000580,396.935883 349.662964,396.924591 
	C367.990448,396.799835 386.326080,396.346283 404.642731,396.747711 
	C415.162445,396.978241 420.605225,405.257782 420.928497,416.994202 
	C421.207916,427.139709 417.483948,436.510895 412.406799,445.262604 
	C406.361969,455.682404 398.340881,464.611115 390.857605,473.955872 
	C384.745544,481.588196 378.005676,488.971497 375.525452,498.776489 
	C371.191925,515.907898 374.702393,526.148987 391.635162,532.460632 
	C400.728271,535.850037 410.493561,536.826538 419.964203,533.416992 
	C430.110596,529.764221 435.789490,521.709717 435.827728,510.960632 
	C435.938599,479.802216 435.764496,448.642639 435.923370,417.484619 
	C435.957306,410.827240 433.639404,405.910767 428.032104,402.412537 
	C426.700958,401.582001 424.717133,400.844574 425.422668,398.703918 
	C426.068878,396.743530 427.998932,396.852081 429.657349,396.848724 
	C452.151733,396.803406 474.646118,396.772644 497.140533,396.761993 
	C498.795349,396.761200 500.695160,396.660248 501.442993,398.559448 
	C502.278534,400.681244 500.382446,401.590179 499.068817,402.407288 
	C492.685150,406.378143 490.865021,412.243683 490.904510,419.445648 
	C491.067963,449.272064 491.060516,479.100250 490.935394,508.927032 
	C490.868408,524.900574 488.594849,540.480591 479.528412,554.147339 
	C468.884003,570.192810 453.687439,578.683716 434.648682,581.533752 
	C421.260071,583.537964 408.598450,582.015625 395.698120,577.437073 
M445.916046,438.500946 
	C444.964386,464.414062 447.952972,490.417633 444.242493,516.261719 
	C442.814789,526.206055 437.627106,533.752014 429.010559,539.023010 
	C420.951752,543.952881 412.163574,544.652100 403.052979,544.115417 
	C398.832916,543.866821 394.932495,542.424744 390.903564,541.431213 
	C386.648315,540.381958 382.801208,538.441833 379.155579,536.135864 
	C375.611908,533.894409 372.783844,530.825378 370.304138,527.444397 
	C367.862183,524.114929 366.162140,520.441223 365.091309,516.407837 
	C365.857178,524.039307 366.856537,531.570618 369.311432,538.836182 
	C375.979553,558.571289 393.899292,571.397949 414.748505,572.763916 
	C420.383453,573.133179 426.092529,573.168396 431.718323,572.727905 
	C446.979034,571.533020 459.805145,565.326599 469.447601,553.190918 
	C478.902893,541.290833 481.643341,527.176025 481.847198,512.555969 
	C482.339935,477.218262 481.363312,441.862030 482.420746,406.072174 
	C472.082886,406.072174 460.948669,406.067841 449.814453,406.074005 
	C444.363312,406.076996 443.330750,406.836273 444.433807,412.152344 
	C446.181244,420.573883 445.880066,429.028198 445.916046,438.500946 
M392.058594,458.577026 
	C396.196045,453.166107 400.640472,447.972656 404.094086,442.070679 
	C408.937073,433.794342 412.316589,425.043182 411.811707,415.252075 
	C411.482574,408.870300 408.702179,406.201965 402.534119,406.155914 
	C390.719482,406.067719 378.903992,406.061920 367.089050,406.096405 
	C365.712799,406.100433 364.038513,405.583252 363.698517,407.224274 
	C366.134308,438.723724 364.484161,470.287567 365.279510,502.616547 
	C366.551727,495.947388 368.916229,490.571747 371.876617,485.370087 
	C377.343872,475.763641 384.572632,467.525391 392.058594,458.577026 
z"/>
<path fill="#000000" opacity="1.000000" stroke="none" 
	d="
M853.951172,171.990585 
	C859.142883,171.612991 860.766907,174.358170 861.294861,178.580246 
	C862.101135,185.027405 860.363281,191.089554 858.726929,197.147232 
	C858.026855,199.738510 856.054138,201.194824 853.109558,201.182968 
	C834.804199,201.109329 816.498718,201.107346 798.193237,201.055954 
	C794.894348,201.046692 793.035461,199.567825 792.584045,196.050232 
	C792.046021,191.858322 792.255798,187.706070 792.961792,183.634521 
	C794.084595,177.158035 795.670410,176.735657 802.315369,175.774796 
	C819.313171,173.316925 836.587708,175.050888 853.951172,171.990585 
z"/>
</svg>