<svg version="1.1" id="Layer_1" xmlns="http://www.w3.org/2000/svg" xmlns:xlink="http://www.w3.org/1999/xlink" x="0px" y="0px"
	 width="100%" viewBox="0 0 1080 1080" enable-background="new 0 0 1080 1080" xml:space="preserve">
<path fill="#DDE9F1" opacity="1.000000" stroke="none" 
	d="
M1081.000000,397.000000 
	C1081.000000,625.307007 1081.000000,853.114014 1081.000000,1080.960449 
	C721.067993,1080.960449 361.135956,1080.960449 1.101959,1080.960449 
	C1.101959,721.109619 1.101959,361.219208 1.101959,1.164401 
	C360.999939,1.164401 720.999939,1.164401 1081.000000,1.164401 
	C1081.000000,132.864166 1081.000000,264.682098 1081.000000,397.000000 
M863.155396,909.254211 
	C859.061646,890.255249 854.657227,871.316162 850.982605,852.236511 
	C848.503723,839.364746 846.882446,826.316956 845.200684,813.306152 
	C843.929993,803.475708 846.464600,794.299988 851.936768,785.534912 
	C823.684631,785.534912 796.180176,785.534912 768.679321,785.534912 
	C771.293579,790.112854 774.337219,794.152466 776.048462,798.694214 
	C780.268738,809.894958 784.509705,821.159729 787.551392,832.712341 
	C790.495178,843.893005 793.397949,855.423035 793.731750,866.875122 
	C794.268066,885.275574 793.387268,903.805725 791.650024,922.143188 
	C790.894531,930.117249 787.289795,938.136841 783.576721,945.420776 
	C780.283875,951.880493 774.073425,951.697144 769.463623,945.989746 
	C767.707214,943.815125 765.949585,941.386902 765.096741,938.778625 
	C759.938232,923.002441 753.947998,907.386414 750.320557,891.248230 
	C745.228149,868.592102 741.862427,845.542725 737.952698,822.628357 
	C736.377808,813.398132 735.724304,804.066833 738.838013,794.970764 
	C739.885376,791.911072 741.485901,789.040771 743.080261,785.542847 
	C715.222839,785.542847 687.915405,785.542847 660.466248,785.542847 
	C663.152283,790.479919 666.457764,794.832642 668.029053,799.740601 
	C674.970947,821.423828 682.311218,843.042908 687.815002,865.107422 
	C695.048462,894.105835 700.904114,923.457275 706.922363,952.745239 
	C709.455261,965.071716 713.901733,977.590454 706.716248,990.526123 
	C736.753113,990.526123 766.067993,990.526123 794.353149,990.526123 
	C793.595642,983.979675 791.424500,977.444214 792.394470,971.414001 
	C795.978394,949.132935 800.600403,927.018799 804.832153,904.841919 
	C806.074646,905.882385 806.617493,906.890259 806.829224,907.963379 
	C809.594727,921.981262 812.697327,935.947510 814.932617,950.050781 
	C817.047180,963.392517 823.371643,976.793030 814.917725,990.543823 
	C845.246582,990.543823 874.759949,990.543823 905.031860,990.543823 
	C899.766357,983.240845 899.863708,975.403503 901.338257,967.968445 
	C907.606934,936.359070 913.589417,904.655884 921.230042,873.366333 
	C928.528076,843.479370 934.709351,813.038696 950.488159,785.360535 
	C948.703674,785.282227 946.951599,785.139893 945.199463,785.138550 
	C925.367615,785.122986 905.535706,785.122803 885.703857,785.131653 
	C875.391113,785.136292 869.292786,790.055054 868.245483,800.283386 
	C867.646057,806.138062 867.855408,812.212830 868.678406,818.050598 
	C871.290649,836.579346 879.921509,853.114441 886.702209,870.252380 
	C893.474304,887.369080 899.156128,904.751282 897.987000,923.493103 
	C897.493591,931.401917 897.237427,939.524048 891.950928,946.263245 
	C887.916809,951.405884 882.031189,951.565125 878.147888,946.306763 
	C876.188049,943.652832 874.244934,940.818359 873.098267,937.763672 
	C869.657043,928.596191 866.611389,919.280212 863.155396,909.254211 
M179.500000,785.127747 
	C164.137802,785.127747 148.775589,785.127747 132.218491,785.127747 
	C139.583405,795.441162 139.062958,805.998352 139.057327,816.483887 
	C139.033432,860.961731 139.173401,905.440063 138.971436,949.916992 
	C138.909607,963.536560 141.511475,977.634155 132.378464,990.919434 
	C135.337509,990.919434 137.095627,990.919434 138.853745,990.919434 
	C168.505630,990.919128 198.159180,990.734985 227.808685,991.000183 
	C241.515396,991.122803 253.603012,987.495300 264.335419,978.854370 
	C282.663116,964.097900 285.878906,938.928040 273.026611,919.680359 
	C263.677124,905.678589 249.075745,899.783020 233.322647,897.262878 
	C215.966736,894.486328 198.372559,893.231018 180.939316,890.887939 
	C175.239059,890.121765 169.636139,888.260132 164.171539,886.370728 
	C162.791565,885.893555 162.114853,883.382446 161.114960,881.806030 
	C162.946518,880.987427 164.812515,879.422363 166.602478,879.505005 
	C170.382568,879.679504 174.147888,880.601501 177.875137,881.418274 
	C193.453156,884.832092 208.932922,888.935242 225.110931,887.991150 
	C243.984528,886.889648 259.454651,879.465698 270.054077,863.343872 
	C283.757599,842.500793 280.741425,816.014832 262.538300,799.291504 
	C252.007996,789.617249 238.868027,785.819397 224.972900,785.284119 
	C210.168564,784.713867 195.325912,785.138062 179.500000,785.127747 
M564.499512,71.216797 
	C544.161438,71.216797 523.823364,71.216797 502.090088,71.216797 
	C508.350861,79.946785 509.097717,88.111252 509.094421,96.521996 
	C509.074280,148.019775 509.091522,199.517654 509.178894,251.015366 
	C509.193970,259.884979 508.957123,268.612579 502.553802,277.057709 
	C505.330383,277.057709 507.073273,277.057709 508.816162,277.057709 
	C524.815491,277.057770 540.814819,277.060638 556.814148,277.056824 
	C567.328247,277.054321 573.127991,272.322815 574.878540,261.899658 
	C577.411987,246.814163 571.663879,234.638306 560.205444,225.428009 
	C551.943665,218.787109 542.647461,213.439255 533.867615,207.434280 
	C528.509888,203.769806 522.864868,200.249756 520.797668,193.564667 
	C520.320984,192.022964 520.299316,189.453049 521.222107,188.589798 
	C522.386292,187.500809 524.953186,186.966171 526.525574,187.452179 
	C529.986694,188.522003 533.539185,189.913300 536.460693,192.003220 
	C548.061890,200.302353 559.992004,208.284271 570.689758,217.651886 
	C577.438171,223.561203 582.837891,231.324829 587.704163,238.980362 
	C592.492798,246.513885 591.710083,255.123566 589.412415,263.645844 
	C586.181885,275.628662 587.415466,277.057648 599.613525,277.057739 
	C612.279663,277.057831 624.945862,277.079498 637.611938,277.046722 
	C646.626282,277.023376 651.231201,272.418091 651.914673,263.435455 
	C653.150085,247.198792 645.848389,235.237396 633.427795,225.807571 
	C619.999268,215.612534 604.378906,209.763657 588.949585,203.508606 
	C574.459351,197.634277 559.914307,191.842972 545.740173,185.267639 
	C540.308838,182.748062 535.544678,178.481750 531.035217,174.394882 
	C528.147217,171.777557 527.223755,167.109818 530.433044,164.639084 
	C532.545593,163.012695 536.804199,163.872925 540.050232,164.174850 
	C541.269836,164.288284 542.411194,165.901291 543.471436,166.948761 
	C546.790833,170.227997 550.173706,173.454666 553.319031,176.896332 
	C566.337219,191.141098 582.478088,197.400085 601.644897,195.981216 
	C620.989807,194.549194 635.738403,185.797516 645.137695,168.548630 
	C652.109253,155.755035 654.289795,142.001678 654.027832,127.588150 
	C653.530701,100.233238 636.117188,78.550690 609.200562,74.292473 
	C594.830933,72.019196 580.078674,72.163963 564.499512,71.216797 
M447.947815,882.370178 
	C455.733215,866.730103 458.664185,850.289856 455.897736,832.970764 
	C453.200531,816.084961 445.157959,802.738708 429.832611,794.349915 
	C418.638092,788.222290 406.414276,785.490051 393.886902,785.292725 
	C366.233612,784.856995 338.569061,785.132080 310.909088,785.142761 
	C309.356506,785.143311 307.804016,785.375122 305.249359,785.579468 
	C312.622559,795.791138 312.020935,806.690125 312.024384,817.485107 
	C312.038483,861.807678 312.177460,906.130737 312.014679,950.452637 
	C311.965240,963.915405 314.452362,977.835327 305.805695,990.345032 
	C307.193604,990.639954 307.804565,990.882629 308.415833,990.883301 
	C326.911255,990.903748 345.407104,990.969177 363.901825,990.852722 
	C368.599976,990.823181 372.123077,988.276733 374.322052,984.173035 
	C380.498077,972.647461 379.206238,961.224182 372.733612,950.463013 
	C366.577423,940.228027 356.688477,933.860962 346.906860,927.447083 
	C339.840240,922.813538 332.868469,917.952209 326.377228,912.562805 
	C323.546906,910.212952 321.275726,905.878662 324.055145,902.310730 
	C326.667969,898.956604 330.473999,901.164795 333.573914,902.725586 
	C352.990570,912.501770 369.876373,925.591248 383.711945,942.343018 
	C389.665924,949.551880 394.865356,957.585266 393.946564,967.621216 
	C393.480957,972.706787 391.897369,977.683411 390.944458,982.732849 
	C389.867401,988.440002 391.775696,990.854675 397.616394,990.886414 
	C412.445679,990.967102 427.276123,990.969360 442.105286,990.876221 
	C448.614777,990.835327 452.619476,987.267090 453.915558,980.892456 
	C457.326324,964.116577 450.514343,951.391357 437.967834,941.069214 
	C425.308624,930.654480 410.275208,924.692749 395.284637,918.645813 
	C380.017487,912.487183 364.649109,906.524597 349.700012,899.659607 
	C343.813416,896.956360 338.612610,892.406738 333.734528,887.995667 
	C330.903015,885.435364 330.473236,881.197632 333.424988,878.066406 
	C336.289368,875.027954 339.897858,875.484741 342.841156,878.151306 
	C348.261261,883.061829 353.694031,887.994568 358.717621,893.300415 
	C382.826965,918.764221 430.644958,915.138367 447.947815,882.370178 
M719.950562,82.429840 
	C699.872131,97.688667 689.893127,118.863281 685.189209,142.865997 
	C682.240906,157.910294 681.478882,173.128525 682.848328,188.514633 
	C684.954407,212.177002 690.971619,234.272156 706.128174,253.154068 
	C729.503052,282.274475 768.766541,287.585876 798.592651,271.335022 
	C820.497009,259.400360 832.191284,239.235443 838.789978,215.924698 
	C843.351379,199.811035 844.647522,183.246140 843.920044,166.524765 
	C842.981628,144.954391 838.429871,124.331024 827.194763,105.640564 
	C812.689453,81.509926 791.198425,68.695404 763.042664,68.425064 
	C747.648499,68.277260 733.110168,72.500244 719.950562,82.429840 
M603.607849,790.097229 
	C596.108704,788.708618 588.619446,787.263306 581.107605,785.947083 
	C573.441467,784.603760 565.719788,782.139282 558.080688,782.343506 
	C532.702698,783.021851 514.693726,796.290771 502.260132,817.731689 
	C492.682892,834.247070 487.655640,852.204956 485.919708,871.174255 
	C483.440369,898.266602 485.609009,924.577576 497.643036,949.538269 
	C507.346191,969.664307 522.472351,984.056946 543.726257,990.349121 
	C572.481323,998.862061 598.492615,993.723389 619.137024,970.310974 
	C630.067261,957.915344 636.168945,943.407654 636.824463,926.838745 
	C636.991455,922.618042 637.326233,917.104004 632.338196,915.692505 
	C627.581421,914.346375 625.217529,919.102417 623.207642,922.688477 
	C609.220703,947.643372 582.946899,950.306274 561.893005,939.979858 
	C540.404968,929.440430 527.554871,911.103455 518.729797,889.585754 
	C516.988281,885.339600 515.596558,880.778625 515.083130,876.245117 
	C514.490723,871.014709 517.666809,868.722839 522.634766,870.805176 
	C526.839905,872.567627 530.946594,875.046509 534.400391,878.017883 
	C541.206604,883.873352 547.298157,890.559448 554.104492,896.414734 
	C565.778442,906.457397 579.175476,909.947021 594.105103,905.041260 
	C609.086548,900.118530 619.104614,882.340393 615.797363,867.070312 
	C614.474365,860.961731 611.199951,859.278198 607.559021,863.190918 
	C602.202332,868.947632 596.007812,870.255432 588.962769,867.546753 
	C578.571655,863.551636 568.372986,859.050964 557.952698,855.137451 
	C545.668823,850.523987 533.528625,850.515564 521.986816,857.643799 
	C520.292053,858.690491 518.749023,859.990967 517.024414,860.979614 
	C512.860291,863.366577 510.105316,862.420349 509.489502,857.708496 
	C508.782043,852.295654 508.402557,846.686279 509.022430,841.293579 
	C509.750458,834.959839 511.172882,828.579407 513.289490,822.569824 
	C515.155518,817.271729 519.843872,815.056946 525.586670,814.851440 
	C536.251465,814.469727 545.319763,819.074646 554.263611,823.844055 
	C565.302856,829.730957 576.330933,835.405579 588.657288,838.320862 
	C601.876282,841.447266 614.463013,838.036316 621.553406,828.427979 
	C629.588684,817.539185 635.079712,805.476135 636.498413,791.930542 
	C636.791748,789.129028 635.803711,785.174438 633.882263,783.496338 
	C632.455383,782.250122 628.138428,783.046265 625.849548,784.292908 
	C619.136353,787.949341 612.379456,790.814453 603.607849,790.097229 
M432.777710,124.924065 
	C434.774017,125.010117 436.825653,124.829430 438.756653,125.230186 
	C445.684448,126.667969 451.860840,124.705284 456.829010,120.222305 
	C469.803619,108.514870 476.102234,93.322502 477.640289,76.214989 
	C478.232727,69.625153 473.394592,67.051224 467.375641,69.989479 
	C466.334900,70.497543 465.412384,71.241890 464.399658,71.814079 
	C457.874451,75.500771 451.024384,77.740326 443.418518,76.228111 
	C434.471680,74.449295 425.454285,72.934166 416.622131,70.694733 
	C407.423279,68.362297 398.223633,68.017052 389.012299,69.615967 
	C370.700897,72.794495 357.226227,83.450783 346.970917,98.379166 
	C333.176483,118.459328 327.819061,141.341080 326.229645,165.205383 
	C325.299347,179.172760 326.246002,193.115402 329.036072,206.908508 
	C334.362885,233.242294 345.866180,255.609299 369.617462,269.985626 
	C392.071136,283.576538 426.507355,284.521271 448.449982,267.678131 
	C466.198547,254.054337 476.339996,236.277634 477.792328,213.875748 
	C478.067566,209.630630 478.970703,203.866684 473.540741,202.285522 
	C468.053345,200.687653 466.476624,206.526642 463.623474,209.768295 
	C458.936005,215.093979 454.891327,221.579147 449.097015,225.226471 
	C431.137543,236.531403 413.021210,233.354416 396.058075,222.469345 
	C378.502411,211.204041 367.297241,194.579529 359.468933,175.595596 
	C357.722595,171.360718 356.766663,166.713699 356.065369,162.161163 
	C355.494324,158.454010 357.977875,156.171295 361.513763,156.969513 
	C365.114624,157.782364 369.037598,159.082642 371.786407,161.396683 
	C380.047028,168.350693 387.509674,176.258835 395.827332,183.137238 
	C407.874786,193.100098 421.451813,196.967850 436.692688,190.882996 
	C450.789368,185.254990 460.749542,166.097855 456.784424,152.381424 
	C455.173676,146.809418 452.070892,145.543045 448.353088,149.542679 
	C442.093292,156.277008 434.923950,156.103287 427.298645,153.156967 
	C420.477142,150.521240 413.846283,147.396515 407.073975,144.627884 
	C396.718475,140.394363 386.212982,135.820633 374.788116,139.258514 
	C369.004517,140.998871 363.687683,144.334457 358.220917,147.070892 
	C353.210236,149.579086 350.747772,148.896164 350.382751,143.391617 
	C349.683075,132.841507 348.389587,122.149887 352.708466,111.866638 
	C356.143158,103.688499 362.840027,99.208496 371.288361,101.423386 
	C379.407288,103.551918 387.499847,106.388008 395.002197,110.122223 
	C406.933716,116.060974 418.496674,122.679314 432.777710,124.924065 
M227.738205,246.231110 
	C222.359192,250.143677 217.274521,254.577377 211.521072,257.826996 
	C205.364700,261.304138 198.679642,263.938812 192.027985,266.410004 
	C188.112701,267.864624 183.275436,267.612579 181.403183,263.526489 
	C180.018036,260.503510 180.893005,256.334442 181.186569,252.710419 
	C181.294785,251.374588 182.457443,249.996780 183.417236,248.876297 
	C199.308762,230.324249 215.060608,211.647720 231.225708,193.336273 
	C245.532272,177.130112 260.467133,161.479156 274.805847,145.300568 
	C280.965240,138.350830 286.829102,131.023193 291.933380,123.278175 
	C303.024200,106.449440 300.054291,87.797989 285.337585,77.201736 
	C274.899994,69.686501 262.707764,67.746658 250.641617,68.526230 
	C234.286453,69.582901 218.047745,72.575890 201.788376,74.939835 
	C188.164337,76.920624 174.840698,78.581398 162.357803,69.991837 
	C157.108002,66.379410 152.812485,69.339775 152.994400,75.797813 
	C153.460342,92.339256 160.100098,106.404633 171.191711,118.398041 
	C175.255341,122.792053 180.696793,125.739029 186.658661,125.567062 
	C193.738068,125.362862 201.176910,124.928230 207.753922,122.599388 
	C222.154312,117.500366 235.942123,110.681091 250.312988,105.485039 
	C257.998596,102.706169 266.310425,101.246658 274.466919,100.350937 
	C278.759918,99.879478 283.514130,101.778709 285.387329,106.715492 
	C287.212952,111.526909 284.437958,115.022186 281.391327,118.237411 
	C280.027100,119.677155 278.599091,121.245125 276.878448,122.128639 
	C263.141144,129.182312 249.510010,136.483566 235.492996,142.942093 
	C214.484131,152.622208 193.565567,162.169174 175.212433,176.742447 
	C149.458405,197.192413 140.240189,229.169250 152.210770,259.955658 
	C156.356445,270.617645 164.277832,276.995392 173.988510,277.012939 
	C214.143860,277.085449 254.299484,277.015930 294.454712,277.117310 
	C297.908325,277.126007 299.119110,276.115479 299.052643,272.580353 
	C298.858490,262.253540 298.994751,251.920731 298.980927,241.590286 
	C298.968597,232.382767 295.144592,227.197525 286.544403,223.938721 
	C276.535431,220.146149 266.820221,222.083878 258.097046,226.773071 
	C247.750031,232.335159 238.228271,239.432419 227.738205,246.231110 
M791.917358,592.799866 
	C791.861328,602.592224 793.608154,611.934082 798.385681,620.635986 
	C803.595886,630.126038 811.127319,635.888184 822.270752,635.900269 
	C862.588318,635.943909 902.906067,635.875671 943.223328,635.993652 
	C946.942078,636.004517 948.128601,634.925354 948.058777,631.178345 
	C947.844849,619.686768 947.587097,608.171326 948.096558,596.698425 
	C948.555298,586.368164 941.783691,579.754395 932.891846,577.190308 
	C920.904907,573.733826 909.646851,577.034790 899.528992,583.306641 
	C886.132324,591.610962 873.319824,600.852356 860.145508,609.522766 
	C852.511658,614.546875 844.757568,619.600586 835.236633,620.109314 
	C829.545044,620.413452 827.200745,616.997925 829.623840,611.791260 
	C831.358765,608.063171 833.571960,604.418762 836.212097,601.274597 
	C847.961975,587.281128 859.704041,573.267517 871.895325,559.661194 
	C890.421997,538.984436 909.617493,518.900635 927.898499,498.013184 
	C934.485291,490.487366 940.209045,481.838379 944.615967,472.862091 
	C950.636719,460.598602 949.214600,448.436279 940.052917,437.520905 
	C930.693420,426.369781 917.783691,422.212830 904.495117,422.592957 
	C885.845642,423.126434 867.240234,426.113464 848.679932,428.540161 
	C835.347351,430.283356 822.499329,431.512939 810.023804,424.151642 
	C802.013062,419.424866 796.887390,423.014709 797.152039,432.448456 
	C797.614014,448.911469 804.365417,462.958588 814.957520,475.252319 
	C820.359924,481.522614 827.196167,484.272614 835.712769,484.086212 
	C846.931702,483.840637 857.406799,480.818451 867.648315,476.900024 
	C877.729431,473.042938 887.439819,468.225586 897.473389,464.232849 
	C905.013062,461.232513 912.739441,458.045868 921.065735,459.134460 
	C923.975830,459.514893 928.046570,461.347443 928.976746,463.596588 
	C929.881897,465.785156 928.343994,470.474670 926.307739,472.110016 
	C920.159729,477.047638 913.605774,481.752686 906.567383,485.257782 
	C885.301514,495.848022 863.472656,505.326477 842.374878,516.228333 
	C828.945862,523.167542 816.903198,532.351440 807.187683,544.359192 
	C795.890381,558.322144 790.520142,573.964783 791.917358,592.799866 
M637.421631,578.962219 
	C661.244019,552.753540 685.128235,526.600586 708.854492,500.305145 
	C716.885071,491.405029 724.363037,482.073425 728.619568,470.584167 
	C732.905640,459.015350 731.437134,448.375427 723.933228,438.625183 
	C714.712341,426.644012 701.274780,422.193817 687.422180,422.598267 
	C668.609436,423.147552 649.852600,426.282959 631.120239,428.687012 
	C617.785828,430.398315 604.806702,431.560822 592.532471,423.952850 
	C585.487183,419.585968 580.067261,423.015564 580.086853,431.407593 
	C580.125916,448.156860 586.949890,462.314819 597.526794,474.840088 
	C602.703430,480.970276 609.161194,484.153931 617.595337,484.080994 
	C632.828064,483.949280 646.504700,478.566742 660.253174,473.029907 
	C671.786499,468.385132 683.260376,463.489105 695.087036,459.731842 
	C699.293762,458.395355 704.560852,459.598297 709.157288,460.546783 
	C712.642334,461.265991 713.889099,464.661804 712.014954,467.669617 
	C709.877075,471.100708 707.405273,474.991669 704.060730,476.880249 
	C693.101318,483.068756 681.811279,488.719727 670.406982,494.061859 
	C650.391724,503.437592 629.881348,511.831146 611.699097,524.697876 
	C593.686707,537.444397 579.311340,552.865295 575.486877,575.636169 
	C572.595459,592.851379 573.927307,609.475037 583.857849,624.533203 
	C588.811707,632.044922 595.959717,635.862610 604.885803,635.880432 
	C645.375549,635.961243 685.865540,635.886169 726.355225,635.979553 
	C729.731506,635.987305 731.080017,635.130188 731.024048,631.514954 
	C730.833252,619.187622 730.932251,606.855591 730.941345,594.525391 
	C730.945923,588.289734 727.881470,583.874512 722.843933,580.558716 
	C712.429138,573.703491 701.606873,575.123657 690.856873,579.300110 
	C675.641296,585.211487 663.203186,595.668701 649.839294,604.656555 
	C641.492676,610.270081 632.452942,614.975891 623.322998,619.227478 
	C620.560730,620.513672 615.538757,620.133301 613.181885,618.355347 
	C609.670959,615.706909 612.501404,611.672424 614.146790,608.442200 
	C614.820435,607.119629 615.691101,605.871521 616.622620,604.710205 
	C623.377869,596.288513 630.171570,587.897705 637.421631,578.962219 
M507.903809,487.500000 
	C507.903992,475.671967 507.760468,463.841614 507.948669,452.016571 
	C508.106750,442.087555 510.051300,432.790802 519.145935,426.731964 
	C519.289795,426.636108 519.163879,426.135315 519.163879,425.499512 
	C492.036133,425.499512 464.898346,425.499512 438.276306,425.499512 
	C441.270142,430.136536 445.026581,434.411682 446.951935,439.394409 
	C448.689178,443.890228 448.916412,449.156403 448.955841,454.089630 
	C449.143585,477.578247 449.127686,501.069611 449.002655,524.559082 
	C448.940704,536.195557 448.909302,547.859680 448.095978,559.457397 
	C447.223602,571.896973 440.829407,580.777588 429.075073,585.773071 
	C419.365997,589.899292 409.546356,589.273865 399.737518,587.019287 
	C374.447144,581.206238 363.071228,562.221863 373.951233,537.565063 
	C380.237152,523.319641 390.733154,512.085205 400.307526,500.235718 
	C412.688293,484.912994 423.279968,469.027710 425.579956,448.676178 
	C427.036316,435.789398 418.643585,425.125793 405.725647,425.123962 
	C386.400452,425.121216 367.075287,425.116516 347.750092,425.134705 
	C346.042297,425.136322 344.334656,425.300476 342.626923,425.389130 
	C353.552399,433.446136 354.290314,444.564148 354.240051,456.204071 
	C354.098236,489.022949 353.981262,521.844849 354.298889,554.661316 
	C354.417358,566.903564 355.042175,579.186279 359.265411,590.997803 
	C367.193085,613.169861 382.131775,628.032532 404.561737,635.180054 
	C421.685211,640.636536 438.980011,640.419312 456.161133,635.549133 
	C468.556274,632.035522 479.333344,625.503052 488.090149,616.011292 
	C502.143616,600.778320 507.279297,582.047424 507.679718,561.964966 
	C508.167847,537.484924 507.864532,512.989014 507.903809,487.500000 
M262.299255,520.859192 
	C266.747131,515.729492 271.723297,510.960541 275.527069,505.390869 
	C282.320526,495.443512 284.243439,484.153748 282.871399,472.196381 
	C281.865601,463.431000 278.929871,455.492096 273.765137,448.370209 
	C261.444733,431.381226 243.896027,425.338562 223.870758,425.181854 
	C194.221054,424.949829 164.568176,425.117706 134.916656,425.131226 
	C133.170212,425.132050 131.423828,425.274750 129.353058,425.365692 
	C131.775269,429.192627 134.778702,432.242249 135.747971,435.839905 
	C137.496689,442.330627 138.896088,449.144775 138.930298,455.831543 
	C139.185150,505.638123 139.211761,555.447449 138.917740,605.253601 
	C138.872528,612.910828 139.158966,621.031067 134.641373,627.992554 
	C133.060638,630.428345 131.182343,632.671021 129.057785,635.513062 
	C130.778015,635.692932 131.865707,635.906311 132.953354,635.906128 
	C167.435486,635.900635 201.922729,636.217224 236.397583,635.704651 
	C253.316986,635.453064 267.008698,627.562744 276.952332,613.833984 
	C293.116913,591.516296 286.683258,554.058167 253.234192,541.957947 
	C236.411591,535.872437 218.893036,534.883301 201.413757,533.013672 
	C191.373779,531.939819 181.414078,530.054871 171.458252,528.307190 
	C169.528122,527.968384 167.783203,526.574463 165.952850,525.667236 
	C166.154037,525.244202 166.355209,524.821228 166.556381,524.398193 
	C167.677780,524.398193 168.839142,524.205383 169.914307,524.428345 
	C179.330704,526.381226 188.685974,528.662842 198.146454,530.362183 
	C220.302322,534.342163 242.180878,535.777344 262.299255,520.859192 
M905.500244,164.050552 
	C897.705994,164.422455 889.915283,164.930298 882.116699,165.134964 
	C869.889038,165.455856 866.307312,168.957520 866.171143,181.442001 
	C866.142456,184.071014 866.797974,186.701004 866.899109,189.339691 
	C867.004089,192.076065 868.219421,193.018402 870.937500,193.046234 
	C893.375854,193.275940 915.812744,193.678650 938.251282,193.778671 
	C939.679626,193.785034 942.125671,191.897354 942.383972,190.559708 
	C943.852539,182.954865 945.043091,175.273911 945.820923,167.567642 
	C946.207703,163.735321 944.299133,161.591202 939.770142,161.964462 
	C928.687988,162.877823 917.571472,163.373093 905.500244,164.050552 
z"/>
<path fill="#889BFE" opacity="1.000000" stroke="none" 
	d="
M863.283325,909.638184 
	C866.611389,919.280212 869.657043,928.596191 873.098267,937.763672 
	C874.244934,940.818359 876.188049,943.652832 878.147888,946.306763 
	C882.031189,951.565125 887.916809,951.405884 891.950928,946.263245 
	C897.237427,939.524048 897.493591,931.401917 897.987000,923.493103 
	C899.156128,904.751282 893.474304,887.369080 886.702209,870.252380 
	C879.921509,853.114441 871.290649,836.579346 868.678406,818.050598 
	C867.855408,812.212830 867.646057,806.138062 868.245483,800.283386 
	C869.292786,790.055054 875.391113,785.136292 885.703857,785.131653 
	C905.535706,785.122803 925.367615,785.122986 945.199463,785.138550 
	C946.951599,785.139893 948.703674,785.282227 950.488159,785.360535 
	C934.709351,813.038696 928.528076,843.479370 921.230042,873.366333 
	C913.589417,904.655884 907.606934,936.359070 901.338257,967.968445 
	C899.863708,975.403503 899.766357,983.240845 905.031860,990.543823 
	C874.759949,990.543823 845.246582,990.543823 814.917725,990.543823 
	C823.371643,976.793030 817.047180,963.392517 814.932617,950.050781 
	C812.697327,935.947510 809.594727,921.981262 806.829224,907.963379 
	C806.617493,906.890259 806.074646,905.882385 804.832153,904.841919 
	C800.600403,927.018799 795.978394,949.132935 792.394470,971.414001 
	C791.424500,977.444214 793.595642,983.979675 794.353149,990.526123 
	C766.067993,990.526123 736.753113,990.526123 706.716248,990.526123 
	C713.901733,977.590454 709.455261,965.071716 706.922363,952.745239 
	C700.904114,923.457275 695.048462,894.105835 687.815002,865.107422 
	C682.311218,843.042908 674.970947,821.423828 668.029053,799.740601 
	C666.457764,794.832642 663.152283,790.479919 660.466248,785.542847 
	C687.915405,785.542847 715.222839,785.542847 743.080261,785.542847 
	C741.485901,789.040771 739.885376,791.911072 738.838013,794.970764 
	C735.724304,804.066833 736.377808,813.398132 737.952698,822.628357 
	C741.862427,845.542725 745.228149,868.592102 750.320557,891.248230 
	C753.947998,907.386414 759.938232,923.002441 765.096741,938.778625 
	C765.949585,941.386902 767.707214,943.815125 769.463623,945.989746 
	C774.073425,951.697144 780.283875,951.880493 783.576721,945.420776 
	C787.289795,938.136841 790.894531,930.117249 791.650024,922.143188 
	C793.387268,903.805725 794.268066,885.275574 793.731750,866.875122 
	C793.397949,855.423035 790.495178,843.893005 787.551392,832.712341 
	C784.509705,821.159729 780.268738,809.894958 776.048462,798.694214 
	C774.337219,794.152466 771.293579,790.112854 768.679321,785.534912 
	C796.180176,785.534912 823.684631,785.534912 851.936768,785.534912 
	C846.464600,794.299988 843.929993,803.475708 845.200684,813.306152 
	C846.882446,826.316956 848.503723,839.364746 850.982605,852.236511 
	C854.657227,871.316162 859.061646,890.255249 863.283325,909.638184 
z"/>
<path fill="#889BFE" opacity="1.000000" stroke="none" 
	d="
M180.000000,785.127930 
	C195.325912,785.138062 210.168564,784.713867 224.972900,785.284119 
	C238.868027,785.819397 252.007996,789.617249 262.538300,799.291504 
	C280.741425,816.014832 283.757599,842.500793 270.054077,863.343872 
	C259.454651,879.465698 243.984528,886.889648 225.110931,887.991150 
	C208.932922,888.935242 193.453156,884.832092 177.875137,881.418274 
	C174.147888,880.601501 170.382568,879.679504 166.602478,879.505005 
	C164.812515,879.422363 162.946518,880.987427 161.114960,881.806030 
	C162.114853,883.382446 162.791565,885.893555 164.171539,886.370728 
	C169.636139,888.260132 175.239059,890.121765 180.939316,890.887939 
	C198.372559,893.231018 215.966736,894.486328 233.322647,897.262878 
	C249.075745,899.783020 263.677124,905.678589 273.026611,919.680359 
	C285.878906,938.928040 282.663116,964.097900 264.335419,978.854370 
	C253.603012,987.495300 241.515396,991.122803 227.808685,991.000183 
	C198.159180,990.734985 168.505630,990.919128 138.853745,990.919434 
	C137.095627,990.919434 135.337509,990.919434 132.378464,990.919434 
	C141.511475,977.634155 138.909607,963.536560 138.971436,949.916992 
	C139.173401,905.440063 139.033432,860.961731 139.057327,816.483887 
	C139.062958,805.998352 139.583405,795.441162 132.218491,785.127747 
	C148.775589,785.127747 164.137802,785.127747 180.000000,785.127930 
M200.858231,865.530212 
	C208.892670,862.581909 216.453354,858.893433 222.231735,852.279907 
	C228.120621,845.539917 228.456329,836.450378 222.128250,832.014893 
	C218.503296,829.474060 213.831940,827.579956 209.452301,827.126282 
	C197.956314,825.935364 186.450348,827.111023 175.652206,831.400940 
	C169.395462,833.886658 163.263504,837.136108 157.796310,841.049072 
	C150.528046,846.251099 148.190872,854.899414 151.681931,861.191101 
	C155.310089,867.729919 161.947495,870.078186 168.643341,869.716309 
	C179.169800,869.147461 189.620316,867.173340 200.858231,865.530212 
M199.141281,909.245667 
	C191.878113,906.843262 184.647385,904.336426 177.342728,902.067566 
	C169.887878,899.752014 162.384521,897.579041 154.838959,895.583618 
	C153.693512,895.280701 151.820145,895.920044 151.005341,896.795471 
	C150.435120,897.408081 150.832413,899.267578 151.271042,900.384216 
	C151.805664,901.745300 152.720123,903.008850 153.671371,904.146423 
	C160.493179,912.304993 167.077759,920.687988 174.297775,928.480774 
	C182.812424,937.670837 192.034286,946.225891 204.741837,949.308594 
	C211.732605,951.004517 218.866837,951.143860 224.429062,945.613831 
	C230.360626,939.716553 230.272751,929.999573 222.958847,923.898804 
	C216.063431,918.147095 207.612228,914.260559 199.141281,909.245667 
z"/>
<path fill="#889BFE" opacity="1.000000" stroke="none" 
	d="
M564.999329,71.217102 
	C580.078674,72.163963 594.830933,72.019196 609.200562,74.292473 
	C636.117188,78.550690 653.530701,100.233238 654.027832,127.588150 
	C654.289795,142.001678 652.109253,155.755035 645.137695,168.548630 
	C635.738403,185.797516 620.989807,194.549194 601.644897,195.981216 
	C582.478088,197.400085 566.337219,191.141098 553.319031,176.896332 
	C550.173706,173.454666 546.790833,170.227997 543.471436,166.948761 
	C542.411194,165.901291 541.269836,164.288284 540.050232,164.174850 
	C536.804199,163.872925 532.545593,163.012695 530.433044,164.639084 
	C527.223755,167.109818 528.147217,171.777557 531.035217,174.394882 
	C535.544678,178.481750 540.308838,182.748062 545.740173,185.267639 
	C559.914307,191.842972 574.459351,197.634277 588.949585,203.508606 
	C604.378906,209.763657 619.999268,215.612534 633.427795,225.807571 
	C645.848389,235.237396 653.150085,247.198792 651.914673,263.435455 
	C651.231201,272.418091 646.626282,277.023376 637.611938,277.046722 
	C624.945862,277.079498 612.279663,277.057831 599.613525,277.057739 
	C587.415466,277.057648 586.181885,275.628662 589.412415,263.645844 
	C591.710083,255.123566 592.492798,246.513885 587.704163,238.980362 
	C582.837891,231.324829 577.438171,223.561203 570.689758,217.651886 
	C559.992004,208.284271 548.061890,200.302353 536.460693,192.003220 
	C533.539185,189.913300 529.986694,188.522003 526.525574,187.452179 
	C524.953186,186.966171 522.386292,187.500809 521.222107,188.589798 
	C520.299316,189.453049 520.320984,192.022964 520.797668,193.564667 
	C522.864868,200.249756 528.509888,203.769806 533.867615,207.434280 
	C542.647461,213.439255 551.943665,218.787109 560.205444,225.428009 
	C571.663879,234.638306 577.411987,246.814163 574.878540,261.899658 
	C573.127991,272.322815 567.328247,277.054321 556.814148,277.056824 
	C540.814819,277.060638 524.815491,277.057770 508.816162,277.057709 
	C507.073273,277.057709 505.330383,277.057709 502.553802,277.057709 
	C508.957123,268.612579 509.193970,259.884979 509.178894,251.015366 
	C509.091522,199.517654 509.074280,148.019775 509.094421,96.521996 
	C509.097717,88.111252 508.350861,79.946785 502.090088,71.216797 
	C523.823364,71.216797 544.161438,71.216797 564.999329,71.217102 
M572.500732,114.860260 
	C567.842712,114.907135 563.081238,114.349510 558.547974,115.125450 
	C548.808594,116.792503 538.978333,118.490044 529.596069,121.469040 
	C524.070374,123.223518 519.876221,127.752640 519.967407,134.657761 
	C520.055847,141.347183 523.699951,145.411133 529.302734,148.179398 
	C539.214478,153.076675 550.056580,154.438736 560.759827,154.703064 
	C577.850037,155.125137 595.018127,154.878174 612.060608,153.639267 
	C619.955811,153.065353 628.073669,150.430771 635.302551,147.046951 
	C645.490234,142.278107 645.733521,130.427505 636.326538,124.255569 
	C633.333130,122.291618 629.816345,120.924194 626.355835,119.907486 
	C609.080139,114.831924 591.281738,114.859039 572.500732,114.860260 
z"/>
<path fill="#899BFE" opacity="1.000000" stroke="none" 
	d="
M447.739349,882.673706 
	C430.644958,915.138367 382.826965,918.764221 358.717621,893.300415 
	C353.694031,887.994568 348.261261,883.061829 342.841156,878.151306 
	C339.897858,875.484741 336.289368,875.027954 333.424988,878.066406 
	C330.473236,881.197632 330.903015,885.435364 333.734528,887.995667 
	C338.612610,892.406738 343.813416,896.956360 349.700012,899.659607 
	C364.649109,906.524597 380.017487,912.487183 395.284637,918.645813 
	C410.275208,924.692749 425.308624,930.654480 437.967834,941.069214 
	C450.514343,951.391357 457.326324,964.116577 453.915558,980.892456 
	C452.619476,987.267090 448.614777,990.835327 442.105286,990.876221 
	C427.276123,990.969360 412.445679,990.967102 397.616394,990.886414 
	C391.775696,990.854675 389.867401,988.440002 390.944458,982.732849 
	C391.897369,977.683411 393.480957,972.706787 393.946564,967.621216 
	C394.865356,957.585266 389.665924,949.551880 383.711945,942.343018 
	C369.876373,925.591248 352.990570,912.501770 333.573914,902.725586 
	C330.473999,901.164795 326.667969,898.956604 324.055145,902.310730 
	C321.275726,905.878662 323.546906,910.212952 326.377228,912.562805 
	C332.868469,917.952209 339.840240,922.813538 346.906860,927.447083 
	C356.688477,933.860962 366.577423,940.228027 372.733612,950.463013 
	C379.206238,961.224182 380.498077,972.647461 374.322052,984.173035 
	C372.123077,988.276733 368.599976,990.823181 363.901825,990.852722 
	C345.407104,990.969177 326.911255,990.903748 308.415833,990.883301 
	C307.804565,990.882629 307.193604,990.639954 305.805695,990.345032 
	C314.452362,977.835327 311.965240,963.915405 312.014679,950.452637 
	C312.177460,906.130737 312.038483,861.807678 312.024384,817.485107 
	C312.020935,806.690125 312.622559,795.791138 305.249359,785.579468 
	C307.804016,785.375122 309.356506,785.143311 310.909088,785.142761 
	C338.569061,785.132080 366.233612,784.856995 393.886902,785.292725 
	C406.414276,785.490051 418.638092,788.222290 429.832611,794.349915 
	C445.157959,802.738708 453.200531,816.084961 455.897736,832.970764 
	C458.664185,850.289856 455.733215,866.730103 447.739349,882.673706 
M331.746826,835.119385 
	C325.774414,838.271545 322.337280,842.946655 322.889282,849.976624 
	C323.416473,856.690369 327.744537,860.507690 333.502014,862.554077 
	C338.943939,864.488220 344.608521,866.102966 350.310028,866.944336 
	C370.492981,869.923035 390.825256,869.918640 411.040466,867.749634 
	C419.828461,866.806702 428.589569,864.271301 436.966736,861.330627 
	C442.219604,859.486755 446.061829,854.937134 445.906128,848.655212 
	C445.756256,842.608093 441.731354,838.901489 436.781860,836.543762 
	C432.616333,834.559692 428.111694,832.944275 423.583527,832.122986 
	C401.392914,828.098145 378.993347,826.723083 356.558380,829.220642 
	C348.406097,830.128174 340.459747,832.885925 331.746826,835.119385 
z"/>
<path fill="#889BFE" opacity="1.000000" stroke="none" 
	d="
M720.240051,82.216370 
	C733.110168,72.500244 747.648499,68.277260 763.042664,68.425064 
	C791.198425,68.695404 812.689453,81.509926 827.194763,105.640564 
	C838.429871,124.331024 842.981628,144.954391 843.920044,166.524765 
	C844.647522,183.246140 843.351379,199.811035 838.789978,215.924698 
	C832.191284,239.235443 820.497009,259.400360 798.592651,271.335022 
	C768.766541,287.585876 729.503052,282.274475 706.128174,253.154068 
	C690.971619,234.272156 684.954407,212.177002 682.848328,188.514633 
	C681.478882,173.128525 682.240906,157.910294 685.189209,142.865997 
	C689.893127,118.863281 699.872131,97.688667 720.240051,82.216370 
M776.425659,266.005768 
	C778.184326,265.580048 780.082703,265.445770 781.678772,264.680786 
	C791.424805,260.009796 793.963806,250.640778 795.816467,241.346603 
	C798.658142,227.091339 798.359375,212.679718 797.260437,198.162659 
	C795.160034,170.415878 789.330627,143.612045 778.781738,117.891441 
	C774.221863,106.773270 768.725342,96.095734 759.438904,87.977257 
	C751.425049,80.971352 739.254395,79.664558 734.463562,92.730156 
	C733.556091,95.205025 732.562805,97.672859 731.943420,100.225067 
	C726.942627,120.830429 728.715210,141.595474 731.475708,162.190826 
	C733.433594,176.797501 736.683411,191.263031 739.971558,205.651016 
	C743.840942,222.582336 749.469971,238.989929 759.046570,253.628799 
	C762.904785,259.526428 767.432739,265.441315 776.425659,266.005768 
z"/>
<path fill="#889BFE" opacity="1.000000" stroke="none" 
	d="
M604.078796,790.106079 
	C612.379456,790.814453 619.136353,787.949341 625.849548,784.292908 
	C628.138428,783.046265 632.455383,782.250122 633.882263,783.496338 
	C635.803711,785.174438 636.791748,789.129028 636.498413,791.930542 
	C635.079712,805.476135 629.588684,817.539185 621.553406,828.427979 
	C614.463013,838.036316 601.876282,841.447266 588.657288,838.320862 
	C576.330933,835.405579 565.302856,829.730957 554.263611,823.844055 
	C545.319763,819.074646 536.251465,814.469727 525.586670,814.851440 
	C519.843872,815.056946 515.155518,817.271729 513.289490,822.569824 
	C511.172882,828.579407 509.750458,834.959839 509.022430,841.293579 
	C508.402557,846.686279 508.782043,852.295654 509.489502,857.708496 
	C510.105316,862.420349 512.860291,863.366577 517.024414,860.979614 
	C518.749023,859.990967 520.292053,858.690491 521.986816,857.643799 
	C533.528625,850.515564 545.668823,850.523987 557.952698,855.137451 
	C568.372986,859.050964 578.571655,863.551636 588.962769,867.546753 
	C596.007812,870.255432 602.202332,868.947632 607.559021,863.190918 
	C611.199951,859.278198 614.474365,860.961731 615.797363,867.070312 
	C619.104614,882.340393 609.086548,900.118530 594.105103,905.041260 
	C579.175476,909.947021 565.778442,906.457397 554.104492,896.414734 
	C547.298157,890.559448 541.206604,883.873352 534.400391,878.017883 
	C530.946594,875.046509 526.839905,872.567627 522.634766,870.805176 
	C517.666809,868.722839 514.490723,871.014709 515.083130,876.245117 
	C515.596558,880.778625 516.988281,885.339600 518.729797,889.585754 
	C527.554871,911.103455 540.404968,929.440430 561.893005,939.979858 
	C582.946899,950.306274 609.220703,947.643372 623.207642,922.688477 
	C625.217529,919.102417 627.581421,914.346375 632.338196,915.692505 
	C637.326233,917.104004 636.991455,922.618042 636.824463,926.838745 
	C636.168945,943.407654 630.067261,957.915344 619.137024,970.310974 
	C598.492615,993.723389 572.481323,998.862061 543.726257,990.349121 
	C522.472351,984.056946 507.346191,969.664307 497.643036,949.538269 
	C485.609009,924.577576 483.440369,898.266602 485.919708,871.174255 
	C487.655640,852.204956 492.682892,834.247070 502.260132,817.731689 
	C514.693726,796.290771 532.702698,783.021851 558.080688,782.343506 
	C565.719788,782.139282 573.441467,784.603760 581.107605,785.947083 
	C588.619446,787.263306 596.108704,788.708618 604.078796,790.106079 
z"/>
<path fill="#889BFE" opacity="1.000000" stroke="none" 
	d="
M432.335571,124.893669 
	C418.496674,122.679314 406.933716,116.060974 395.002197,110.122223 
	C387.499847,106.388008 379.407288,103.551918 371.288361,101.423386 
	C362.840027,99.208496 356.143158,103.688499 352.708466,111.866638 
	C348.389587,122.149887 349.683075,132.841507 350.382751,143.391617 
	C350.747772,148.896164 353.210236,149.579086 358.220917,147.070892 
	C363.687683,144.334457 369.004517,140.998871 374.788116,139.258514 
	C386.212982,135.820633 396.718475,140.394363 407.073975,144.627884 
	C413.846283,147.396515 420.477142,150.521240 427.298645,153.156967 
	C434.923950,156.103287 442.093292,156.277008 448.353088,149.542679 
	C452.070892,145.543045 455.173676,146.809418 456.784424,152.381424 
	C460.749542,166.097855 450.789368,185.254990 436.692688,190.882996 
	C421.451813,196.967850 407.874786,193.100098 395.827332,183.137238 
	C387.509674,176.258835 380.047028,168.350693 371.786407,161.396683 
	C369.037598,159.082642 365.114624,157.782364 361.513763,156.969513 
	C357.977875,156.171295 355.494324,158.454010 356.065369,162.161163 
	C356.766663,166.713699 357.722595,171.360718 359.468933,175.595596 
	C367.297241,194.579529 378.502411,211.204041 396.058075,222.469345 
	C413.021210,233.354416 431.137543,236.531403 449.097015,225.226471 
	C454.891327,221.579147 458.936005,215.093979 463.623474,209.768295 
	C466.476624,206.526642 468.053345,200.687653 473.540741,202.285522 
	C478.970703,203.866684 478.067566,209.630630 477.792328,213.875748 
	C476.339996,236.277634 466.198547,254.054337 448.449982,267.678131 
	C426.507355,284.521271 392.071136,283.576538 369.617462,269.985626 
	C345.866180,255.609299 334.362885,233.242294 329.036072,206.908508 
	C326.246002,193.115402 325.299347,179.172760 326.229645,165.205383 
	C327.819061,141.341080 333.176483,118.459328 346.970917,98.379166 
	C357.226227,83.450783 370.700897,72.794495 389.012299,69.615967 
	C398.223633,68.017052 407.423279,68.362297 416.622131,70.694733 
	C425.454285,72.934166 434.471680,74.449295 443.418518,76.228111 
	C451.024384,77.740326 457.874451,75.500771 464.399658,71.814079 
	C465.412384,71.241890 466.334900,70.497543 467.375641,69.989479 
	C473.394592,67.051224 478.232727,69.625153 477.640289,76.214989 
	C476.102234,93.322502 469.803619,108.514870 456.829010,120.222305 
	C451.860840,124.705284 445.684448,126.667969 438.756653,125.230186 
	C436.825653,124.829430 434.774017,125.010117 432.335571,124.893669 
z"/>
<path fill="#889BFE" opacity="1.000000" stroke="none" 
	d="
M228.043533,246.047729 
	C238.228271,239.432419 247.750031,232.335159 258.097046,226.773071 
	C266.820221,222.083878 276.535431,220.146149 286.544403,223.938721 
	C295.144592,227.197525 298.968597,232.382767 298.980927,241.590286 
	C298.994751,251.920731 298.858490,262.253540 299.052643,272.580353 
	C299.119110,276.115479 297.908325,277.126007 294.454712,277.117310 
	C254.299484,277.015930 214.143860,277.085449 173.988510,277.012939 
	C164.277832,276.995392 156.356445,270.617645 152.210770,259.955658 
	C140.240189,229.169250 149.458405,197.192413 175.212433,176.742447 
	C193.565567,162.169174 214.484131,152.622208 235.492996,142.942093 
	C249.510010,136.483566 263.141144,129.182312 276.878448,122.128639 
	C278.599091,121.245125 280.027100,119.677155 281.391327,118.237411 
	C284.437958,115.022186 287.212952,111.526909 285.387329,106.715492 
	C283.514130,101.778709 278.759918,99.879478 274.466919,100.350937 
	C266.310425,101.246658 257.998596,102.706169 250.312988,105.485039 
	C235.942123,110.681091 222.154312,117.500366 207.753922,122.599388 
	C201.176910,124.928230 193.738068,125.362862 186.658661,125.567062 
	C180.696793,125.739029 175.255341,122.792053 171.191711,118.398041 
	C160.100098,106.404633 153.460342,92.339256 152.994400,75.797813 
	C152.812485,69.339775 157.108002,66.379410 162.357803,69.991837 
	C174.840698,78.581398 188.164337,76.920624 201.788376,74.939835 
	C218.047745,72.575890 234.286453,69.582901 250.641617,68.526230 
	C262.707764,67.746658 274.899994,69.686501 285.337585,77.201736 
	C300.054291,87.797989 303.024200,106.449440 291.933380,123.278175 
	C286.829102,131.023193 280.965240,138.350830 274.805847,145.300568 
	C260.467133,161.479156 245.532272,177.130112 231.225708,193.336273 
	C215.060608,211.647720 199.308762,230.324249 183.417236,248.876297 
	C182.457443,249.996780 181.294785,251.374588 181.186569,252.710419 
	C180.893005,256.334442 180.018036,260.503510 181.403183,263.526489 
	C183.275436,267.612579 188.112701,267.864624 192.027985,266.410004 
	C198.679642,263.938812 205.364700,261.304138 211.521072,257.826996 
	C217.274521,254.577377 222.359192,250.143677 228.043533,246.047729 
z"/>
<path fill="#91A3FC" opacity="1.000000" stroke="none" 
	d="
M791.914490,592.346924 
	C790.520142,573.964783 795.890381,558.322144 807.187683,544.359192 
	C816.903198,532.351440 828.945862,523.167542 842.374878,516.228333 
	C863.472656,505.326477 885.301514,495.848022 906.567383,485.257782 
	C913.605774,481.752686 920.159729,477.047638 926.307739,472.110016 
	C928.343994,470.474670 929.881897,465.785156 928.976746,463.596588 
	C928.046570,461.347443 923.975830,459.514893 921.065735,459.134460 
	C912.739441,458.045868 905.013062,461.232513 897.473389,464.232849 
	C887.439819,468.225586 877.729431,473.042938 867.648315,476.900024 
	C857.406799,480.818451 846.931702,483.840637 835.712769,484.086212 
	C827.196167,484.272614 820.359924,481.522614 814.957520,475.252319 
	C804.365417,462.958588 797.614014,448.911469 797.152039,432.448456 
	C796.887390,423.014709 802.013062,419.424866 810.023804,424.151642 
	C822.499329,431.512939 835.347351,430.283356 848.679932,428.540161 
	C867.240234,426.113464 885.845642,423.126434 904.495117,422.592957 
	C917.783691,422.212830 930.693420,426.369781 940.052917,437.520905 
	C949.214600,448.436279 950.636719,460.598602 944.615967,472.862091 
	C940.209045,481.838379 934.485291,490.487366 927.898499,498.013184 
	C909.617493,518.900635 890.421997,538.984436 871.895325,559.661194 
	C859.704041,573.267517 847.961975,587.281128 836.212097,601.274597 
	C833.571960,604.418762 831.358765,608.063171 829.623840,611.791260 
	C827.200745,616.997925 829.545044,620.413452 835.236633,620.109314 
	C844.757568,619.600586 852.511658,614.546875 860.145508,609.522766 
	C873.319824,600.852356 886.132324,591.610962 899.528992,583.306641 
	C909.646851,577.034790 920.904907,573.733826 932.891846,577.190308 
	C941.783691,579.754395 948.555298,586.368164 948.096558,596.698425 
	C947.587097,608.171326 947.844849,619.686768 948.058777,631.178345 
	C948.128601,634.925354 946.942078,636.004517 943.223328,635.993652 
	C902.906067,635.875671 862.588318,635.943909 822.270752,635.900269 
	C811.127319,635.888184 803.595886,630.126038 798.385681,620.635986 
	C793.608154,611.934082 791.861328,602.592224 791.914490,592.346924 
M907.142761,455.533142 
	C914.041809,455.362183 921.008484,454.541260 927.816162,455.249023 
	C932.346008,455.720001 934.920593,459.439575 935.054260,464.582214 
	C935.238647,471.678314 931.371033,476.738800 926.023865,479.699890 
	C911.803406,487.574707 897.216919,494.821259 882.557556,501.862732 
	C862.187744,511.647125 841.314331,520.493713 823.698669,535.109070 
	C813.290710,543.744263 804.781250,553.945251 800.230286,566.825439 
	C795.031128,581.539856 795.486755,596.440430 799.934082,611.337891 
	C803.581665,623.556519 811.757385,630.842957 823.352234,630.888794 
	C861.679565,631.040466 900.007935,630.922913 938.335754,630.992126 
	C941.720947,630.998230 943.137634,629.868164 943.089294,626.357666 
	C942.947021,616.027710 943.527832,605.657715 942.763000,595.382568 
	C942.492249,591.744690 939.979675,587.215088 937.045471,585.063171 
	C931.599060,581.068848 924.623657,579.553406 918.018921,581.665283 
	C910.787537,583.977539 903.492859,586.771057 897.043335,590.697754 
	C886.002441,597.419800 875.862122,605.618103 864.839050,612.373230 
	C856.682739,617.371643 847.893005,621.461548 839.057556,625.176636 
	C834.284424,627.183655 829.023621,626.322083 825.457031,621.804138 
	C821.974487,617.392822 822.591492,612.681335 825.803955,608.453369 
	C835.338867,595.904236 844.421448,582.940308 854.789551,571.110168 
	C877.029175,545.734314 900.200195,521.175232 922.469971,495.825073 
	C929.097473,488.280914 934.728943,479.613068 939.508667,470.754272 
	C946.243835,458.271301 942.340881,444.939789 931.131226,436.260101 
	C921.134888,428.519897 909.268921,426.707123 897.598877,427.551697 
	C879.768677,428.842102 862.110474,432.363770 844.322266,434.453186 
	C837.313599,435.276428 830.069885,435.488251 823.088623,434.663361 
	C818.499512,434.121094 814.230957,431.111511 809.732544,429.439117 
	C807.807129,428.723328 805.147827,427.691864 803.769470,428.473877 
	C802.526978,429.178833 802.528564,432.153015 802.088135,434.149933 
	C801.950989,434.771942 802.098633,435.482758 802.222595,436.132538 
	C804.303650,447.040161 808.025452,457.359833 814.338623,466.514771 
	C819.527710,474.039642 826.118408,479.740570 836.163208,478.990845 
	C848.554443,478.065979 860.269165,474.569885 871.688599,469.779755 
	C883.177429,464.960541 894.794983,460.448090 907.142761,455.533142 
z"/>
<path fill="#91A3FD" opacity="1.000000" stroke="none" 
	d="
M637.187378,579.229614 
	C630.171570,587.897705 623.377869,596.288513 616.622620,604.710205 
	C615.691101,605.871521 614.820435,607.119629 614.146790,608.442200 
	C612.501404,611.672424 609.670959,615.706909 613.181885,618.355347 
	C615.538757,620.133301 620.560730,620.513672 623.322998,619.227478 
	C632.452942,614.975891 641.492676,610.270081 649.839294,604.656555 
	C663.203186,595.668701 675.641296,585.211487 690.856873,579.300110 
	C701.606873,575.123657 712.429138,573.703491 722.843933,580.558716 
	C727.881470,583.874512 730.945923,588.289734 730.941345,594.525391 
	C730.932251,606.855591 730.833252,619.187622 731.024048,631.514954 
	C731.080017,635.130188 729.731506,635.987305 726.355225,635.979553 
	C685.865540,635.886169 645.375549,635.961243 604.885803,635.880432 
	C595.959717,635.862610 588.811707,632.044922 583.857849,624.533203 
	C573.927307,609.475037 572.595459,592.851379 575.486877,575.636169 
	C579.311340,552.865295 593.686707,537.444397 611.699097,524.697876 
	C629.881348,511.831146 650.391724,503.437592 670.406982,494.061859 
	C681.811279,488.719727 693.101318,483.068756 704.060730,476.880249 
	C707.405273,474.991669 709.877075,471.100708 712.014954,467.669617 
	C713.889099,464.661804 712.642334,461.265991 709.157288,460.546783 
	C704.560852,459.598297 699.293762,458.395355 695.087036,459.731842 
	C683.260376,463.489105 671.786499,468.385132 660.253174,473.029907 
	C646.504700,478.566742 632.828064,483.949280 617.595337,484.080994 
	C609.161194,484.153931 602.703430,480.970276 597.526794,474.840088 
	C586.949890,462.314819 580.125916,448.156860 580.086853,431.407593 
	C580.067261,423.015564 585.487183,419.585968 592.532471,423.952850 
	C604.806702,431.560822 617.785828,430.398315 631.120239,428.687012 
	C649.852600,426.282959 668.609436,423.147552 687.422180,422.598267 
	C701.274780,422.193817 714.712341,426.644012 723.933228,438.625183 
	C731.437134,448.375427 732.905640,459.015350 728.619568,470.584167 
	C724.363037,482.073425 716.885071,491.405029 708.854492,500.305145 
	C685.128235,526.600586 661.244019,552.753540 637.187378,579.229614 
M725.133850,453.913086 
	C723.939880,446.882751 720.506653,441.300110 714.901062,436.800262 
	C704.754883,428.655640 692.580994,426.684723 680.543030,427.559540 
	C662.716614,428.855072 645.062500,432.375488 627.277832,434.461853 
	C620.268066,435.284180 613.012756,435.528107 606.043030,434.652405 
	C601.296082,434.056000 596.759033,431.248230 592.294678,429.085571 
	C587.199524,426.617371 584.861145,427.663208 585.118958,433.157043 
	C585.295898,436.926392 586.034485,440.734741 587.028503,444.387817 
	C589.771667,454.469879 594.467468,463.636230 601.289062,471.562683 
	C608.888000,480.392456 618.739380,479.521790 628.901550,477.704193 
	C644.331604,474.944366 658.179810,468.014343 672.381531,461.936249 
	C682.940918,457.417023 693.596924,452.990417 705.503479,454.003784 
	C710.325500,454.414215 714.972839,455.626953 717.068970,460.493622 
	C719.033081,465.053925 718.448547,469.684052 715.118652,473.591553 
	C713.192078,475.852295 711.338501,478.556854 708.828857,479.876038 
	C694.428467,487.445282 679.963806,494.915466 665.288025,501.932037 
	C645.042908,511.611389 624.454956,520.557312 606.837830,534.932129 
	C580.827454,556.155457 573.383179,584.171509 584.096680,614.758789 
	C587.832703,625.425354 595.275879,630.849182 606.317871,630.890625 
	C644.637146,631.034607 682.957214,630.923950 721.276855,630.992737 
	C724.630310,630.998718 726.114441,629.938782 726.065613,626.397766 
	C725.923157,616.070007 726.059875,605.738770 725.983398,595.409668 
	C725.948608,590.706055 723.756775,587.051514 719.673828,584.771484 
	C713.014771,581.052856 706.036377,579.933960 698.531921,582.187866 
	C686.397156,585.832458 675.868958,592.385376 665.702454,599.677307 
	C652.226868,609.342712 639.418945,620.101135 623.060730,624.961243 
	C617.178406,626.708923 611.549561,625.756714 608.408569,621.871826 
	C605.270996,617.991150 604.961365,612.986877 609.155884,607.584473 
	C621.165161,592.116943 633.178589,576.609985 646.026489,561.846008 
	C666.649658,538.147278 688.210999,515.264893 708.832214,491.564453 
	C717.860107,481.188477 726.681580,470.144531 725.133850,453.913086 
z"/>
<path fill="#91A3FD" opacity="1.000000" stroke="none" 
	d="
M507.903656,488.000000 
	C507.864532,512.989014 508.167847,537.484924 507.679718,561.964966 
	C507.279297,582.047424 502.143616,600.778320 488.090149,616.011292 
	C479.333344,625.503052 468.556274,632.035522 456.161133,635.549133 
	C438.980011,640.419312 421.685211,640.636536 404.561737,635.180054 
	C382.131775,628.032532 367.193085,613.169861 359.265411,590.997803 
	C355.042175,579.186279 354.417358,566.903564 354.298889,554.661316 
	C353.981262,521.844849 354.098236,489.022949 354.240051,456.204071 
	C354.290314,444.564148 353.552399,433.446136 342.626923,425.389130 
	C344.334656,425.300476 346.042297,425.136322 347.750092,425.134705 
	C367.075287,425.116516 386.400452,425.121216 405.725647,425.123962 
	C418.643585,425.125793 427.036316,435.789398 425.579956,448.676178 
	C423.279968,469.027710 412.688293,484.912994 400.307526,500.235718 
	C390.733154,512.085205 380.237152,523.319641 373.951233,537.565063 
	C363.071228,562.221863 374.447144,581.206238 399.737518,587.019287 
	C409.546356,589.273865 419.365997,589.899292 429.075073,585.773071 
	C440.829407,580.777588 447.223602,571.896973 448.095978,559.457397 
	C448.909302,547.859680 448.940704,536.195557 449.002655,524.559082 
	C449.127686,501.069611 449.143585,477.578247 448.955841,454.089630 
	C448.916412,449.156403 448.689178,443.890228 446.951935,439.394409 
	C445.026581,434.411682 441.270142,430.136536 438.276306,425.499512 
	C464.898346,425.499512 492.036133,425.499512 519.163879,425.499512 
	C519.163879,426.135315 519.289795,426.636108 519.145935,426.731964 
	C510.051300,432.790802 508.106750,442.087555 507.948669,452.016571 
	C507.760468,463.841614 507.903992,475.671967 507.903656,488.000000 
M453.977417,498.500000 
	C453.961914,517.996399 454.148956,537.495728 453.863647,556.988159 
	C453.653656,571.335144 446.733826,582.145813 434.364502,589.102966 
	C416.671265,599.054504 385.322083,593.127258 372.269806,577.525146 
	C366.630219,570.783813 363.713806,562.730835 364.457703,553.966614 
	C365.613861,540.345398 371.368378,528.495728 379.738068,517.766602 
	C389.854614,504.798187 400.198761,491.970825 409.601929,478.494568 
	C416.522369,468.576630 420.587219,457.266876 420.079865,444.773773 
	C419.700897,435.443146 415.060211,430.833893 405.895325,430.832703 
	C390.897919,430.830780 375.900513,430.832214 360.903107,430.832214 
	C359.131989,430.832214 357.360840,430.832214 354.969055,430.832214 
	C361.701385,446.824768 359.622162,462.903290 359.776459,478.731171 
	C360.018524,503.557831 359.540802,528.393921 359.981812,553.215149 
	C360.169617,563.785767 360.988586,574.522339 363.161438,584.837830 
	C366.199097,599.259033 374.220276,611.009155 386.198914,619.961243 
	C405.257111,634.204224 426.947144,636.005371 449.028107,631.628113 
	C475.964844,626.288269 493.307373,609.412598 499.550995,582.454895 
	C501.779846,572.831482 502.675903,562.730286 502.826263,552.826660 
	C503.251251,524.837952 502.759247,496.836182 503.073181,468.844543 
	C503.213165,456.362732 500.649017,443.539490 507.191467,431.234863 
	C487.808411,431.234863 469.144897,431.234863 451.509583,431.234863 
	C452.354248,439.371643 453.658966,447.176208 453.869659,455.010254 
	C454.250336,469.164215 453.977356,483.335785 453.977417,498.500000 
z"/>
<path fill="#91A3FC" opacity="1.000000" stroke="none" 
	d="
M262.025116,521.087524 
	C242.180878,535.777344 220.302322,534.342163 198.146454,530.362183 
	C188.685974,528.662842 179.330704,526.381226 169.914307,524.428345 
	C168.839142,524.205383 167.677780,524.398193 166.556381,524.398193 
	C166.355209,524.821228 166.154037,525.244202 165.952850,525.667236 
	C167.783203,526.574463 169.528122,527.968384 171.458252,528.307190 
	C181.414078,530.054871 191.373779,531.939819 201.413757,533.013672 
	C218.893036,534.883301 236.411591,535.872437 253.234192,541.957947 
	C286.683258,554.058167 293.116913,591.516296 276.952332,613.833984 
	C267.008698,627.562744 253.316986,635.453064 236.397583,635.704651 
	C201.922729,636.217224 167.435486,635.900635 132.953354,635.906128 
	C131.865707,635.906311 130.778015,635.692932 129.057785,635.513062 
	C131.182343,632.671021 133.060638,630.428345 134.641373,627.992554 
	C139.158966,621.031067 138.872528,612.910828 138.917740,605.253601 
	C139.211761,555.447449 139.185150,505.638123 138.930298,455.831543 
	C138.896088,449.144775 137.496689,442.330627 135.747971,435.839905 
	C134.778702,432.242249 131.775269,429.192627 129.353058,425.365692 
	C131.423828,425.274750 133.170212,425.132050 134.916656,425.131226 
	C164.568176,425.117706 194.221054,424.949829 223.870758,425.181854 
	C243.896027,425.338562 261.444733,431.381226 273.765137,448.370209 
	C278.929871,455.492096 281.865601,463.431000 282.871399,472.196381 
	C284.243439,484.153748 282.320526,495.443512 275.527069,505.390869 
	C271.723297,510.960541 266.747131,515.729492 262.025116,521.087524 
M261.447388,622.047546 
	C262.088043,621.516235 262.692871,620.933105 263.374542,620.460999 
	C285.023376,605.467773 284.362457,574.677612 268.987427,558.474121 
	C259.722321,548.709839 247.528809,544.465820 234.932343,542.290222 
	C219.749573,539.667969 204.238800,539.004089 188.963181,536.836060 
	C180.805130,535.678284 172.721329,533.514343 164.874786,530.969666 
	C162.803772,530.298035 160.679016,526.619873 160.461121,524.155823 
	C160.140762,520.533325 163.758911,519.628235 166.814896,519.202454 
	C168.092560,519.024536 169.463425,519.286377 170.761398,519.518799 
	C185.131866,522.091919 199.441025,525.072998 213.875809,527.205872 
	C233.993973,530.178528 251.740189,525.487000 265.885345,509.832703 
	C278.945557,495.379120 281.688080,474.949371 273.551025,458.221680 
	C264.797150,440.225983 249.299988,431.461060 229.780014,431.025482 
	C201.463715,430.393524 173.123245,430.839691 144.793076,430.847748 
	C143.368240,430.848145 141.943451,431.054108 140.056595,431.200104 
	C144.412582,443.016968 143.916519,454.829773 143.910889,466.606598 
	C143.888550,513.268188 143.913223,559.929749 143.873154,606.591309 
	C143.870728,609.400940 143.619431,612.234863 143.199020,615.014404 
	C142.419876,620.165466 141.429932,625.284607 140.433716,630.952148 
	C142.590073,630.952148 144.560547,630.952148 146.531006,630.952148 
	C174.028000,630.952148 201.525040,630.976196 229.021988,630.940552 
	C240.367233,630.925842 251.154236,628.678589 261.447388,622.047546 
z"/>
<path fill="#899CFE" opacity="1.000000" stroke="none" 
	d="
M905.984497,164.043579 
	C917.571472,163.373093 928.687988,162.877823 939.770142,161.964462 
	C944.299133,161.591202 946.207703,163.735321 945.820923,167.567642 
	C945.043091,175.273911 943.852539,182.954865 942.383972,190.559708 
	C942.125671,191.897354 939.679626,193.785034 938.251282,193.778671 
	C915.812744,193.678650 893.375854,193.275940 870.937500,193.046234 
	C868.219421,193.018402 867.004089,192.076065 866.899109,189.339691 
	C866.797974,186.701004 866.142456,184.071014 866.171143,181.442001 
	C866.307312,168.957520 869.889038,165.455856 882.116699,165.134964 
	C889.915283,164.930298 897.705994,164.422455 905.984497,164.043579 
z"/>
<path fill="#DBE8F1" opacity="1.000000" stroke="none" 
	d="
M200.480606,865.662231 
	C189.620316,867.173340 179.169800,869.147461 168.643341,869.716309 
	C161.947495,870.078186 155.310089,867.729919 151.681931,861.191101 
	C148.190872,854.899414 150.528046,846.251099 157.796310,841.049072 
	C163.263504,837.136108 169.395462,833.886658 175.652206,831.400940 
	C186.450348,827.111023 197.956314,825.935364 209.452301,827.126282 
	C213.831940,827.579956 218.503296,829.474060 222.128250,832.014893 
	C228.456329,836.450378 228.120621,845.539917 222.231735,852.279907 
	C216.453354,858.893433 208.892670,862.581909 200.480606,865.662231 
z"/>
<path fill="#DBE7F1" opacity="1.000000" stroke="none" 
	d="
M199.493332,909.399597 
	C207.612228,914.260559 216.063431,918.147095 222.958847,923.898804 
	C230.272751,929.999573 230.360626,939.716553 224.429062,945.613831 
	C218.866837,951.143860 211.732605,951.004517 204.741837,949.308594 
	C192.034286,946.225891 182.812424,937.670837 174.297775,928.480774 
	C167.077759,920.687988 160.493179,912.304993 153.671371,904.146423 
	C152.720123,903.008850 151.805664,901.745300 151.271042,900.384216 
	C150.832413,899.267578 150.435120,897.408081 151.005341,896.795471 
	C151.820145,895.920044 153.693512,895.280701 154.838959,895.583618 
	C162.384521,897.579041 169.887878,899.752014 177.342728,902.067566 
	C184.647385,904.336426 191.878113,906.843262 199.493332,909.399597 
z"/>
<path fill="#DCE8F1" opacity="1.000000" stroke="none" 
	d="
M573.000610,114.859940 
	C591.281738,114.859039 609.080139,114.831924 626.355835,119.907486 
	C629.816345,120.924194 633.333130,122.291618 636.326538,124.255569 
	C645.733521,130.427505 645.490234,142.278107 635.302551,147.046951 
	C628.073669,150.430771 619.955811,153.065353 612.060608,153.639267 
	C595.018127,154.878174 577.850037,155.125137 560.759827,154.703064 
	C550.056580,154.438736 539.214478,153.076675 529.302734,148.179398 
	C523.699951,145.411133 520.055847,141.347183 519.967407,134.657761 
	C519.876221,127.752640 524.070374,123.223518 529.596069,121.469040 
	C538.978333,118.490044 548.808594,116.792503 558.547974,115.125450 
	C563.081238,114.349510 567.842712,114.907135 573.000610,114.859940 
z"/>
<path fill="#DBE8F1" opacity="1.000000" stroke="none" 
	d="
M332.083130,834.959473 
	C340.459747,832.885925 348.406097,830.128174 356.558380,829.220642 
	C378.993347,826.723083 401.392914,828.098145 423.583527,832.122986 
	C428.111694,832.944275 432.616333,834.559692 436.781860,836.543762 
	C441.731354,838.901489 445.756256,842.608093 445.906128,848.655212 
	C446.061829,854.937134 442.219604,859.486755 436.966736,861.330627 
	C428.589569,864.271301 419.828461,866.806702 411.040466,867.749634 
	C390.825256,869.918640 370.492981,869.923035 350.310028,866.944336 
	C344.608521,866.102966 338.943939,864.488220 333.502014,862.554077 
	C327.744537,860.507690 323.416473,856.690369 322.889282,849.976624 
	C322.337280,842.946655 325.774414,838.271545 332.083130,834.959473 
z"/>
<path fill="#DCE8F1" opacity="1.000000" stroke="none" 
	d="
M776.011719,266.005981 
	C767.432739,265.441315 762.904785,259.526428 759.046570,253.628799 
	C749.469971,238.989929 743.840942,222.582336 739.971558,205.651016 
	C736.683411,191.263031 733.433594,176.797501 731.475708,162.190826 
	C728.715210,141.595474 726.942627,120.830429 731.943420,100.225067 
	C732.562805,97.672859 733.556091,95.205025 734.463562,92.730156 
	C739.254395,79.664558 751.425049,80.971352 759.438904,87.977257 
	C768.725342,96.095734 774.221863,106.773270 778.781738,117.891441 
	C789.330627,143.612045 795.160034,170.415878 797.260437,198.162659 
	C798.359375,212.679718 798.658142,227.091339 795.816467,241.346603 
	C793.963806,250.640778 791.424805,260.009796 781.678772,264.680786 
	C780.082703,265.445770 778.184326,265.580048 776.011719,266.005981 
z"/>
<path fill="#DBE8F1" opacity="1.000000" stroke="none" 
	d="
M906.749451,455.667175 
	C894.794983,460.448090 883.177429,464.960541 871.688599,469.779755 
	C860.269165,474.569885 848.554443,478.065979 836.163208,478.990845 
	C826.118408,479.740570 819.527710,474.039642 814.338623,466.514771 
	C808.025452,457.359833 804.303650,447.040161 802.222595,436.132538 
	C802.098633,435.482758 801.950989,434.771942 802.088135,434.149933 
	C802.528564,432.153015 802.526978,429.178833 803.769470,428.473877 
	C805.147827,427.691864 807.807129,428.723328 809.732544,429.439117 
	C814.230957,431.111511 818.499512,434.121094 823.088623,434.663361 
	C830.069885,435.488251 837.313599,435.276428 844.322266,434.453186 
	C862.110474,432.363770 879.768677,428.842102 897.598877,427.551697 
	C909.268921,426.707123 921.134888,428.519897 931.131226,436.260101 
	C942.340881,444.939789 946.243835,458.271301 939.508667,470.754272 
	C934.728943,479.613068 929.097473,488.280914 922.469971,495.825073 
	C900.200195,521.175232 877.029175,545.734314 854.789551,571.110168 
	C844.421448,582.940308 835.338867,595.904236 825.803955,608.453369 
	C822.591492,612.681335 821.974487,617.392822 825.457031,621.804138 
	C829.023621,626.322083 834.284424,627.183655 839.057556,625.176636 
	C847.893005,621.461548 856.682739,617.371643 864.839050,612.373230 
	C875.862122,605.618103 886.002441,597.419800 897.043335,590.697754 
	C903.492859,586.771057 910.787537,583.977539 918.018921,581.665283 
	C924.623657,579.553406 931.599060,581.068848 937.045471,585.063171 
	C939.979675,587.215088 942.492249,591.744690 942.763000,595.382568 
	C943.527832,605.657715 942.947021,616.027710 943.089294,626.357666 
	C943.137634,629.868164 941.720947,630.998230 938.335754,630.992126 
	C900.007935,630.922913 861.679565,631.040466 823.352234,630.888794 
	C811.757385,630.842957 803.581665,623.556519 799.934082,611.337891 
	C795.486755,596.440430 795.031128,581.539856 800.230286,566.825439 
	C804.781250,553.945251 813.290710,543.744263 823.698669,535.109070 
	C841.314331,520.493713 862.187744,511.647125 882.557556,501.862732 
	C897.216919,494.821259 911.803406,487.574707 926.023865,479.699890 
	C931.371033,476.738800 935.238647,471.678314 935.054260,464.582214 
	C934.920593,459.439575 932.346008,455.720001 927.816162,455.249023 
	C921.008484,454.541260 914.041809,455.362183 906.749451,455.667175 
z"/>
<path fill="#DBE8F1" opacity="1.000000" stroke="none" 
	d="
M725.145020,454.363831 
	C726.681580,470.144531 717.860107,481.188477 708.832214,491.564453 
	C688.210999,515.264893 666.649658,538.147278 646.026489,561.846008 
	C633.178589,576.609985 621.165161,592.116943 609.155884,607.584473 
	C604.961365,612.986877 605.270996,617.991150 608.408569,621.871826 
	C611.549561,625.756714 617.178406,626.708923 623.060730,624.961243 
	C639.418945,620.101135 652.226868,609.342712 665.702454,599.677307 
	C675.868958,592.385376 686.397156,585.832458 698.531921,582.187866 
	C706.036377,579.933960 713.014771,581.052856 719.673828,584.771484 
	C723.756775,587.051514 725.948608,590.706055 725.983398,595.409668 
	C726.059875,605.738770 725.923157,616.070007 726.065613,626.397766 
	C726.114441,629.938782 724.630310,630.998718 721.276855,630.992737 
	C682.957214,630.923950 644.637146,631.034607 606.317871,630.890625 
	C595.275879,630.849182 587.832703,625.425354 584.096680,614.758789 
	C573.383179,584.171509 580.827454,556.155457 606.837830,534.932129 
	C624.454956,520.557312 645.042908,511.611389 665.288025,501.932037 
	C679.963806,494.915466 694.428467,487.445282 708.828857,479.876038 
	C711.338501,478.556854 713.192078,475.852295 715.118652,473.591553 
	C718.448547,469.684052 719.033081,465.053925 717.068970,460.493622 
	C714.972839,455.626953 710.325500,454.414215 705.503479,454.003784 
	C693.596924,452.990417 682.940918,457.417023 672.381531,461.936249 
	C658.179810,468.014343 644.331604,474.944366 628.901550,477.704193 
	C618.739380,479.521790 608.888000,480.392456 601.289062,471.562683 
	C594.467468,463.636230 589.771667,454.469879 587.028503,444.387817 
	C586.034485,440.734741 585.295898,436.926392 585.118958,433.157043 
	C584.861145,427.663208 587.199524,426.617371 592.294678,429.085571 
	C596.759033,431.248230 601.296082,434.056000 606.043030,434.652405 
	C613.012756,435.528107 620.268066,435.284180 627.277832,434.461853 
	C645.062500,432.375488 662.716614,428.855072 680.543030,427.559540 
	C692.580994,426.684723 704.754883,428.655640 714.901062,436.800262 
	C720.506653,441.300110 723.939880,446.882751 725.145020,454.363831 
z"/>
<path fill="#DCE8F1" opacity="1.000000" stroke="none" 
	d="
M453.977386,498.000000 
	C453.977356,483.335785 454.250336,469.164215 453.869659,455.010254 
	C453.658966,447.176208 452.354248,439.371643 451.509583,431.234863 
	C469.144897,431.234863 487.808411,431.234863 507.191467,431.234863 
	C500.649017,443.539490 503.213165,456.362732 503.073181,468.844543 
	C502.759247,496.836182 503.251251,524.837952 502.826263,552.826660 
	C502.675903,562.730286 501.779846,572.831482 499.550995,582.454895 
	C493.307373,609.412598 475.964844,626.288269 449.028107,631.628113 
	C426.947144,636.005371 405.257111,634.204224 386.198914,619.961243 
	C374.220276,611.009155 366.199097,599.259033 363.161438,584.837830 
	C360.988586,574.522339 360.169617,563.785767 359.981812,553.215149 
	C359.540802,528.393921 360.018524,503.557831 359.776459,478.731171 
	C359.622162,462.903290 361.701385,446.824768 354.969055,430.832214 
	C357.360840,430.832214 359.131989,430.832214 360.903107,430.832214 
	C375.900513,430.832214 390.897919,430.830780 405.895325,430.832703 
	C415.060211,430.833893 419.700897,435.443146 420.079865,444.773773 
	C420.587219,457.266876 416.522369,468.576630 409.601929,478.494568 
	C400.198761,491.970825 389.854614,504.798187 379.738068,517.766602 
	C371.368378,528.495728 365.613861,540.345398 364.457703,553.966614 
	C363.713806,562.730835 366.630219,570.783813 372.269806,577.525146 
	C385.322083,593.127258 416.671265,599.054504 434.364502,589.102966 
	C446.733826,582.145813 453.653656,571.335144 453.863647,556.988159 
	C454.148956,537.495728 453.961914,517.996399 453.977386,498.000000 
z"/>
<path fill="#DBE7F1" opacity="1.000000" stroke="none" 
	d="
M261.165833,622.275391 
	C251.154236,628.678589 240.367233,630.925842 229.021988,630.940552 
	C201.525040,630.976196 174.028000,630.952148 146.531006,630.952148 
	C144.560547,630.952148 142.590073,630.952148 140.433716,630.952148 
	C141.429932,625.284607 142.419876,620.165466 143.199020,615.014404 
	C143.619431,612.234863 143.870728,609.400940 143.873154,606.591309 
	C143.913223,559.929749 143.888550,513.268188 143.910889,466.606598 
	C143.916519,454.829773 144.412582,443.016968 140.056595,431.200104 
	C141.943451,431.054108 143.368240,430.848145 144.793076,430.847748 
	C173.123245,430.839691 201.463715,430.393524 229.780014,431.025482 
	C249.299988,431.461060 264.797150,440.225983 273.551025,458.221680 
	C281.688080,474.949371 278.945557,495.379120 265.885345,509.832703 
	C251.740189,525.487000 233.993973,530.178528 213.875809,527.205872 
	C199.441025,525.072998 185.131866,522.091919 170.761398,519.518799 
	C169.463425,519.286377 168.092560,519.024536 166.814896,519.202454 
	C163.758911,519.628235 160.140762,520.533325 160.461121,524.155823 
	C160.679016,526.619873 162.803772,530.298035 164.874786,530.969666 
	C172.721329,533.514343 180.805130,535.678284 188.963181,536.836060 
	C204.238800,539.004089 219.749573,539.667969 234.932343,542.290222 
	C247.528809,544.465820 259.722321,548.709839 268.987427,558.474121 
	C284.362457,574.677612 285.023376,605.467773 263.374542,620.460999 
	C262.692871,620.933105 262.088043,621.516235 261.165833,622.275391 
M190.624268,586.918030 
	C197.797287,591.671387 205.380371,595.133789 214.254669,595.050049 
	C222.809662,594.969238 229.511292,591.438049 231.946152,584.668762 
	C234.667130,577.104004 233.240143,569.829346 227.002136,564.731750 
	C221.035706,559.856079 214.637085,554.932129 207.598938,552.067078 
	C193.633575,546.382141 179.117981,542.037109 164.779327,537.290771 
	C161.971863,536.361450 158.956757,535.923706 156.000244,535.612061 
	C151.522171,535.140076 149.165710,538.395508 150.865326,542.521667 
	C151.496262,544.053345 152.134308,545.672852 153.157471,546.938293 
	C164.517929,560.988586 175.475677,575.425415 190.624268,586.918030 
M230.453415,478.323273 
	C226.072815,470.430054 219.298004,466.651794 210.349655,466.952118 
	C203.059189,467.196808 195.640045,466.972961 188.524033,468.288239 
	C176.833908,470.448914 165.769272,474.717743 156.811005,482.954834 
	C151.330627,487.994080 148.770859,494.403717 150.545181,501.876953 
	C152.323761,509.368042 158.216873,512.939148 165.051544,513.745361 
	C172.534988,514.628113 180.243454,514.440857 187.782135,513.832031 
	C200.808884,512.779846 212.657944,508.071899 223.050186,500.104034 
	C229.997314,494.777527 232.926544,486.236633 230.453415,478.323273 
z"/>
<path fill="#91A3FC" opacity="1.000000" stroke="none" 
	d="
M190.349136,586.685364 
	C175.475677,575.425415 164.517929,560.988586 153.157471,546.938293 
	C152.134308,545.672852 151.496262,544.053345 150.865326,542.521667 
	C149.165710,538.395508 151.522171,535.140076 156.000244,535.612061 
	C158.956757,535.923706 161.971863,536.361450 164.779327,537.290771 
	C179.117981,542.037109 193.633575,546.382141 207.598938,552.067078 
	C214.637085,554.932129 221.035706,559.856079 227.002136,564.731750 
	C233.240143,569.829346 234.667130,577.104004 231.946152,584.668762 
	C229.511292,591.438049 222.809662,594.969238 214.254669,595.050049 
	C205.380371,595.133789 197.797287,591.671387 190.349136,586.685364 
M187.294571,577.217346 
	C193.931244,582.850464 200.907242,588.071594 209.669525,589.650940 
	C215.182053,590.644592 221.199997,591.308472 225.365906,586.213257 
	C229.673920,580.944275 228.974258,573.876587 224.129349,568.511353 
	C217.803238,561.505859 209.531342,557.551697 200.916534,554.462708 
	C188.737122,550.095398 176.381668,546.214050 164.062943,542.244507 
	C161.682465,541.477417 159.125107,541.259216 156.649338,540.787842 
	C156.408447,541.237000 156.167557,541.686157 155.926666,542.135315 
	C165.327377,554.437805 175.162781,566.367615 187.294571,577.217346 
z"/>
<path fill="#91A3FD" opacity="1.000000" stroke="none" 
	d="
M230.605316,478.675781 
	C232.926544,486.236633 229.997314,494.777527 223.050186,500.104034 
	C212.657944,508.071899 200.808884,512.779846 187.782135,513.832031 
	C180.243454,514.440857 172.534988,514.628113 165.051544,513.745361 
	C158.216873,512.939148 152.323761,509.368042 150.545181,501.876953 
	C148.770859,494.403717 151.330627,487.994080 156.811005,482.954834 
	C165.769272,474.717743 176.833908,470.448914 188.524033,468.288239 
	C195.640045,466.972961 203.059189,467.196808 210.349655,466.952118 
	C219.298004,466.651794 226.072815,470.430054 230.605316,478.675781 
M165.911560,482.332581 
	C163.206497,484.769104 160.120407,486.900299 157.873581,489.704071 
	C152.785416,496.053528 154.166367,503.671112 161.064560,506.946777 
	C164.433746,508.546600 168.359894,509.803436 172.023392,509.776611 
	C179.117859,509.724640 186.296738,509.159393 193.273911,507.890259 
	C204.387756,505.868683 214.612091,501.612244 222.562271,493.104950 
	C228.965912,486.252625 227.690948,477.398071 218.905396,474.104248 
	C213.589905,472.111359 207.360107,472.003815 201.543137,472.015991 
	C189.022995,472.042206 177.271149,475.380920 165.911560,482.332581 
z"/>
<path fill="#DBE7F1" opacity="1.000000" stroke="none" 
	d="
M186.991608,577.032593 
	C175.162781,566.367615 165.327377,554.437805 155.926666,542.135315 
	C156.167557,541.686157 156.408447,541.237000 156.649338,540.787842 
	C159.125107,541.259216 161.682465,541.477417 164.062943,542.244507 
	C176.381668,546.214050 188.737122,550.095398 200.916534,554.462708 
	C209.531342,557.551697 217.803238,561.505859 224.129349,568.511353 
	C228.974258,573.876587 229.673920,580.944275 225.365906,586.213257 
	C221.199997,591.308472 215.182053,590.644592 209.669525,589.650940 
	C200.907242,588.071594 193.931244,582.850464 186.991608,577.032593 
z"/>
<path fill="#DBE7F1" opacity="1.000000" stroke="none" 
	d="
M166.205811,482.117615 
	C177.271149,475.380920 189.022995,472.042206 201.543137,472.015991 
	C207.360107,472.003815 213.589905,472.111359 218.905396,474.104248 
	C227.690948,477.398071 228.965912,486.252625 222.562271,493.104950 
	C214.612091,501.612244 204.387756,505.868683 193.273911,507.890259 
	C186.296738,509.159393 179.117859,509.724640 172.023392,509.776611 
	C168.359894,509.803436 164.433746,508.546600 161.064560,506.946777 
	C154.166367,503.671112 152.785416,496.053528 157.873581,489.704071 
	C160.120407,486.900299 163.206497,484.769104 166.205811,482.117615 
z"/>
</svg>